%TF.GenerationSoftware,KiCad,Pcbnew,6.0.8+dfsg-1~bpo11+1*%
%TF.CreationDate,2022-11-14T19:08:57+01:00*%
%TF.ProjectId,Voiture_RC,566f6974-7572-4655-9f52-432e6b696361,rev?*%
%TF.SameCoordinates,Original*%
%TF.FileFunction,Soldermask,Top*%
%TF.FilePolarity,Negative*%
%FSLAX46Y46*%
G04 Gerber Fmt 4.6, Leading zero omitted, Abs format (unit mm)*
G04 Created by KiCad (PCBNEW 6.0.8+dfsg-1~bpo11+1) date 2022-11-14 19:08:57*
%MOMM*%
%LPD*%
G01*
G04 APERTURE LIST*
G04 Aperture macros list*
%AMRoundRect*
0 Rectangle with rounded corners*
0 $1 Rounding radius*
0 $2 $3 $4 $5 $6 $7 $8 $9 X,Y pos of 4 corners*
0 Add a 4 corners polygon primitive as box body*
4,1,4,$2,$3,$4,$5,$6,$7,$8,$9,$2,$3,0*
0 Add four circle primitives for the rounded corners*
1,1,$1+$1,$2,$3*
1,1,$1+$1,$4,$5*
1,1,$1+$1,$6,$7*
1,1,$1+$1,$8,$9*
0 Add four rect primitives between the rounded corners*
20,1,$1+$1,$2,$3,$4,$5,0*
20,1,$1+$1,$4,$5,$6,$7,0*
20,1,$1+$1,$6,$7,$8,$9,0*
20,1,$1+$1,$8,$9,$2,$3,0*%
G04 Aperture macros list end*
%ADD10RoundRect,0.200000X0.275000X-0.200000X0.275000X0.200000X-0.275000X0.200000X-0.275000X-0.200000X0*%
%ADD11R,1.500000X1.500000*%
%ADD12R,2.000000X1.500000*%
%ADD13R,2.000000X3.800000*%
%ADD14RoundRect,0.200000X-0.200000X-0.275000X0.200000X-0.275000X0.200000X0.275000X-0.200000X0.275000X0*%
%ADD15R,1.500000X0.900000*%
%ADD16R,0.900000X1.500000*%
%ADD17C,0.475000*%
%ADD18R,4.200000X4.200000*%
%ADD19RoundRect,0.162500X-0.825000X-0.162500X0.825000X-0.162500X0.825000X0.162500X-0.825000X0.162500X0*%
%ADD20RoundRect,0.225000X0.250000X-0.225000X0.250000X0.225000X-0.250000X0.225000X-0.250000X-0.225000X0*%
%ADD21C,1.200000*%
%ADD22RoundRect,0.250000X-0.600000X-0.725000X0.600000X-0.725000X0.600000X0.725000X-0.600000X0.725000X0*%
%ADD23O,1.700000X1.950000*%
%ADD24RoundRect,0.162500X-0.162500X0.825000X-0.162500X-0.825000X0.162500X-0.825000X0.162500X0.825000X0*%
%ADD25RoundRect,0.225000X-0.225000X-0.250000X0.225000X-0.250000X0.225000X0.250000X-0.225000X0.250000X0*%
%ADD26R,1.700000X1.700000*%
%ADD27O,1.700000X1.700000*%
%ADD28RoundRect,0.150000X0.587500X0.150000X-0.587500X0.150000X-0.587500X-0.150000X0.587500X-0.150000X0*%
%ADD29RoundRect,0.225000X-0.250000X0.225000X-0.250000X-0.225000X0.250000X-0.225000X0.250000X0.225000X0*%
%ADD30RoundRect,0.225000X0.225000X0.250000X-0.225000X0.250000X-0.225000X-0.250000X0.225000X-0.250000X0*%
%ADD31RoundRect,0.200000X-0.275000X0.200000X-0.275000X-0.200000X0.275000X-0.200000X0.275000X0.200000X0*%
%ADD32C,1.700000*%
G04 APERTURE END LIST*
D10*
%TO.C,R4*%
X95900000Y-72200000D03*
X95900000Y-70550000D03*
%TD*%
D11*
%TO.C,Reset1*%
X110400000Y-84700000D03*
X118200000Y-84700000D03*
%TD*%
D12*
%TO.C,U2*%
X129650000Y-81350000D03*
X129650000Y-83650000D03*
D13*
X135950000Y-83650000D03*
D12*
X129650000Y-85950000D03*
%TD*%
D14*
%TO.C,R2*%
X94075000Y-63250000D03*
X95725000Y-63250000D03*
%TD*%
D15*
%TO.C,U1*%
X103550000Y-51500000D03*
X103550000Y-52770000D03*
X103550000Y-54040000D03*
X103550000Y-55310000D03*
X103550000Y-56580000D03*
X103550000Y-57850000D03*
X103550000Y-59120000D03*
X103550000Y-60390000D03*
X103550000Y-61660000D03*
X103550000Y-62930000D03*
X103550000Y-64200000D03*
X103550000Y-65470000D03*
X103550000Y-66740000D03*
X103550000Y-68010000D03*
D16*
X106590000Y-69260000D03*
X107860000Y-69260000D03*
X109130000Y-69260000D03*
X110400000Y-69260000D03*
X111670000Y-69260000D03*
X112940000Y-69260000D03*
X114210000Y-69260000D03*
X115480000Y-69260000D03*
X116750000Y-69260000D03*
X118020000Y-69260000D03*
D15*
X121050000Y-68010000D03*
X121050000Y-66740000D03*
X121050000Y-65470000D03*
X121050000Y-64200000D03*
X121050000Y-62930000D03*
X121050000Y-61660000D03*
X121050000Y-60390000D03*
X121050000Y-59120000D03*
X121050000Y-57850000D03*
X121050000Y-56580000D03*
X121050000Y-55310000D03*
X121050000Y-54040000D03*
X121050000Y-52770000D03*
X121050000Y-51500000D03*
D17*
X113145000Y-58077500D03*
X112382500Y-57315000D03*
X110857500Y-60365000D03*
X110857500Y-57315000D03*
X113145000Y-59602500D03*
X111620000Y-58077500D03*
X112382500Y-58840000D03*
X110857500Y-58840000D03*
X112382500Y-60365000D03*
X111620000Y-59602500D03*
X110095000Y-58077500D03*
X110095000Y-59602500D03*
D18*
X111620000Y-58840000D03*
%TD*%
D19*
%TO.C,U3*%
X72062500Y-80595000D03*
X72062500Y-81865000D03*
X72062500Y-83135000D03*
X72062500Y-84405000D03*
X77137500Y-84405000D03*
X77137500Y-83135000D03*
X77137500Y-81865000D03*
X77137500Y-80595000D03*
%TD*%
D20*
%TO.C,C2*%
X98850000Y-53025000D03*
X98850000Y-51475000D03*
%TD*%
D21*
%TO.C,Prog1*%
X135800000Y-44475000D03*
D22*
X137400000Y-42475000D03*
D23*
X139900000Y-42475000D03*
X142400000Y-42475000D03*
X144900000Y-42475000D03*
X147400000Y-42475000D03*
X149900000Y-42475000D03*
%TD*%
D24*
%TO.C,Q3*%
X85455000Y-76462500D03*
X84185000Y-76462500D03*
X82915000Y-76462500D03*
X81645000Y-76462500D03*
X81645000Y-81537500D03*
X82915000Y-81537500D03*
X84185000Y-81537500D03*
X85455000Y-81537500D03*
%TD*%
D25*
%TO.C,C3*%
X94225000Y-60800000D03*
X95775000Y-60800000D03*
%TD*%
D26*
%TO.C,J2*%
X77350000Y-67925000D03*
D27*
X77350000Y-65385000D03*
%TD*%
D14*
%TO.C,R1*%
X89750000Y-63250000D03*
X91400000Y-63250000D03*
%TD*%
D28*
%TO.C,Q1*%
X91237500Y-67950000D03*
X91237500Y-66050000D03*
X89362500Y-67000000D03*
%TD*%
D26*
%TO.C,J1*%
X149100000Y-62060000D03*
D27*
X149100000Y-64600000D03*
X149100000Y-67140000D03*
%TD*%
D19*
%TO.C,U4*%
X72062500Y-47245000D03*
X72062500Y-48515000D03*
X72062500Y-49785000D03*
X72062500Y-51055000D03*
X77137500Y-51055000D03*
X77137500Y-49785000D03*
X77137500Y-48515000D03*
X77137500Y-47245000D03*
%TD*%
D24*
%TO.C,Q4*%
X85455000Y-85412500D03*
X84185000Y-85412500D03*
X82915000Y-85412500D03*
X81645000Y-85412500D03*
X81645000Y-90487500D03*
X82915000Y-90487500D03*
X84185000Y-90487500D03*
X85455000Y-90487500D03*
%TD*%
D20*
%TO.C,C1*%
X96040000Y-53025000D03*
X96040000Y-51475000D03*
%TD*%
D26*
%TO.C,Batt1*%
X143775000Y-83950000D03*
D27*
X146315000Y-83950000D03*
%TD*%
D29*
%TO.C,C5*%
X125300000Y-86275000D03*
X125300000Y-87825000D03*
%TD*%
D24*
%TO.C,Q6*%
X85755000Y-51562500D03*
X84485000Y-51562500D03*
X83215000Y-51562500D03*
X81945000Y-51562500D03*
X81945000Y-56637500D03*
X83215000Y-56637500D03*
X84485000Y-56637500D03*
X85755000Y-56637500D03*
%TD*%
D30*
%TO.C,C7*%
X117575000Y-80050000D03*
X116025000Y-80050000D03*
%TD*%
D20*
%TO.C,C6*%
X125500000Y-83075000D03*
X125500000Y-81525000D03*
%TD*%
D31*
%TO.C,R5*%
X110250000Y-78325000D03*
X110250000Y-79975000D03*
%TD*%
D24*
%TO.C,Q5*%
X85855000Y-42062500D03*
X84585000Y-42062500D03*
X83315000Y-42062500D03*
X82045000Y-42062500D03*
X82045000Y-47137500D03*
X83315000Y-47137500D03*
X84585000Y-47137500D03*
X85855000Y-47137500D03*
%TD*%
D29*
%TO.C,C4*%
X93750000Y-66275000D03*
X93750000Y-67825000D03*
%TD*%
D31*
%TO.C,R3*%
X95950000Y-66225000D03*
X95950000Y-67875000D03*
%TD*%
D26*
%TO.C,J3*%
X137100000Y-67450000D03*
D32*
X134560000Y-67450000D03*
X137100000Y-64910000D03*
X134560000Y-64910000D03*
X137100000Y-62370000D03*
X134560000Y-62370000D03*
X137100000Y-59830000D03*
X134560000Y-59830000D03*
%TD*%
D28*
%TO.C,Q2*%
X93187500Y-72450000D03*
X93187500Y-70550000D03*
X91312500Y-71500000D03*
%TD*%
M02*
