%TF.GenerationSoftware,KiCad,Pcbnew,6.0.8+dfsg-1~bpo11+1*%
%TF.CreationDate,2022-11-14T19:08:57+01:00*%
%TF.ProjectId,Voiture_RC,566f6974-7572-4655-9f52-432e6b696361,rev?*%
%TF.SameCoordinates,Original*%
%TF.FileFunction,Legend,Top*%
%TF.FilePolarity,Positive*%
%FSLAX46Y46*%
G04 Gerber Fmt 4.6, Leading zero omitted, Abs format (unit mm)*
G04 Created by KiCad (PCBNEW 6.0.8+dfsg-1~bpo11+1) date 2022-11-14 19:08:57*
%MOMM*%
%LPD*%
G01*
G04 APERTURE LIST*
%ADD10C,0.150000*%
%ADD11C,0.120000*%
G04 APERTURE END LIST*
D10*
%TO.C,R4*%
X94922380Y-71541666D02*
X94446190Y-71875000D01*
X94922380Y-72113095D02*
X93922380Y-72113095D01*
X93922380Y-71732142D01*
X93970000Y-71636904D01*
X94017619Y-71589285D01*
X94112857Y-71541666D01*
X94255714Y-71541666D01*
X94350952Y-71589285D01*
X94398571Y-71636904D01*
X94446190Y-71732142D01*
X94446190Y-72113095D01*
X94255714Y-70684523D02*
X94922380Y-70684523D01*
X93874761Y-70922619D02*
X94589047Y-71160714D01*
X94589047Y-70541666D01*
%TO.C,Reset1*%
X112585714Y-82552380D02*
X112252380Y-82076190D01*
X112014285Y-82552380D02*
X112014285Y-81552380D01*
X112395238Y-81552380D01*
X112490476Y-81600000D01*
X112538095Y-81647619D01*
X112585714Y-81742857D01*
X112585714Y-81885714D01*
X112538095Y-81980952D01*
X112490476Y-82028571D01*
X112395238Y-82076190D01*
X112014285Y-82076190D01*
X113395238Y-82504761D02*
X113300000Y-82552380D01*
X113109523Y-82552380D01*
X113014285Y-82504761D01*
X112966666Y-82409523D01*
X112966666Y-82028571D01*
X113014285Y-81933333D01*
X113109523Y-81885714D01*
X113300000Y-81885714D01*
X113395238Y-81933333D01*
X113442857Y-82028571D01*
X113442857Y-82123809D01*
X112966666Y-82219047D01*
X113823809Y-82504761D02*
X113919047Y-82552380D01*
X114109523Y-82552380D01*
X114204761Y-82504761D01*
X114252380Y-82409523D01*
X114252380Y-82361904D01*
X114204761Y-82266666D01*
X114109523Y-82219047D01*
X113966666Y-82219047D01*
X113871428Y-82171428D01*
X113823809Y-82076190D01*
X113823809Y-82028571D01*
X113871428Y-81933333D01*
X113966666Y-81885714D01*
X114109523Y-81885714D01*
X114204761Y-81933333D01*
X115061904Y-82504761D02*
X114966666Y-82552380D01*
X114776190Y-82552380D01*
X114680952Y-82504761D01*
X114633333Y-82409523D01*
X114633333Y-82028571D01*
X114680952Y-81933333D01*
X114776190Y-81885714D01*
X114966666Y-81885714D01*
X115061904Y-81933333D01*
X115109523Y-82028571D01*
X115109523Y-82123809D01*
X114633333Y-82219047D01*
X115395238Y-81885714D02*
X115776190Y-81885714D01*
X115538095Y-81552380D02*
X115538095Y-82409523D01*
X115585714Y-82504761D01*
X115680952Y-82552380D01*
X115776190Y-82552380D01*
X116633333Y-82552380D02*
X116061904Y-82552380D01*
X116347619Y-82552380D02*
X116347619Y-81552380D01*
X116252380Y-81695238D01*
X116157142Y-81790476D01*
X116061904Y-81838095D01*
%TO.C,U2*%
X132038095Y-78602380D02*
X132038095Y-79411904D01*
X132085714Y-79507142D01*
X132133333Y-79554761D01*
X132228571Y-79602380D01*
X132419047Y-79602380D01*
X132514285Y-79554761D01*
X132561904Y-79507142D01*
X132609523Y-79411904D01*
X132609523Y-78602380D01*
X133038095Y-78697619D02*
X133085714Y-78650000D01*
X133180952Y-78602380D01*
X133419047Y-78602380D01*
X133514285Y-78650000D01*
X133561904Y-78697619D01*
X133609523Y-78792857D01*
X133609523Y-78888095D01*
X133561904Y-79030952D01*
X132990476Y-79602380D01*
X133609523Y-79602380D01*
%TO.C,R2*%
X94733333Y-62272380D02*
X94400000Y-61796190D01*
X94161904Y-62272380D02*
X94161904Y-61272380D01*
X94542857Y-61272380D01*
X94638095Y-61320000D01*
X94685714Y-61367619D01*
X94733333Y-61462857D01*
X94733333Y-61605714D01*
X94685714Y-61700952D01*
X94638095Y-61748571D01*
X94542857Y-61796190D01*
X94161904Y-61796190D01*
X95114285Y-61367619D02*
X95161904Y-61320000D01*
X95257142Y-61272380D01*
X95495238Y-61272380D01*
X95590476Y-61320000D01*
X95638095Y-61367619D01*
X95685714Y-61462857D01*
X95685714Y-61558095D01*
X95638095Y-61700952D01*
X95066666Y-62272380D01*
X95685714Y-62272380D01*
%TO.C,U1*%
X101142380Y-68941904D02*
X101951904Y-68941904D01*
X102047142Y-68894285D01*
X102094761Y-68846666D01*
X102142380Y-68751428D01*
X102142380Y-68560952D01*
X102094761Y-68465714D01*
X102047142Y-68418095D01*
X101951904Y-68370476D01*
X101142380Y-68370476D01*
X102142380Y-67370476D02*
X102142380Y-67941904D01*
X102142380Y-67656190D02*
X101142380Y-67656190D01*
X101285238Y-67751428D01*
X101380476Y-67846666D01*
X101428095Y-67941904D01*
%TO.C,U3*%
X73838095Y-78522380D02*
X73838095Y-79331904D01*
X73885714Y-79427142D01*
X73933333Y-79474761D01*
X74028571Y-79522380D01*
X74219047Y-79522380D01*
X74314285Y-79474761D01*
X74361904Y-79427142D01*
X74409523Y-79331904D01*
X74409523Y-78522380D01*
X74790476Y-78522380D02*
X75409523Y-78522380D01*
X75076190Y-78903333D01*
X75219047Y-78903333D01*
X75314285Y-78950952D01*
X75361904Y-78998571D01*
X75409523Y-79093809D01*
X75409523Y-79331904D01*
X75361904Y-79427142D01*
X75314285Y-79474761D01*
X75219047Y-79522380D01*
X74933333Y-79522380D01*
X74838095Y-79474761D01*
X74790476Y-79427142D01*
%TO.C,C2*%
X97777142Y-52416666D02*
X97824761Y-52464285D01*
X97872380Y-52607142D01*
X97872380Y-52702380D01*
X97824761Y-52845238D01*
X97729523Y-52940476D01*
X97634285Y-52988095D01*
X97443809Y-53035714D01*
X97300952Y-53035714D01*
X97110476Y-52988095D01*
X97015238Y-52940476D01*
X96920000Y-52845238D01*
X96872380Y-52702380D01*
X96872380Y-52607142D01*
X96920000Y-52464285D01*
X96967619Y-52416666D01*
X96967619Y-52035714D02*
X96920000Y-51988095D01*
X96872380Y-51892857D01*
X96872380Y-51654761D01*
X96920000Y-51559523D01*
X96967619Y-51511904D01*
X97062857Y-51464285D01*
X97158095Y-51464285D01*
X97300952Y-51511904D01*
X97872380Y-52083333D01*
X97872380Y-51464285D01*
%TO.C,Prog1*%
X141697619Y-39377380D02*
X141697619Y-38377380D01*
X142078571Y-38377380D01*
X142173809Y-38425000D01*
X142221428Y-38472619D01*
X142269047Y-38567857D01*
X142269047Y-38710714D01*
X142221428Y-38805952D01*
X142173809Y-38853571D01*
X142078571Y-38901190D01*
X141697619Y-38901190D01*
X142697619Y-39377380D02*
X142697619Y-38710714D01*
X142697619Y-38901190D02*
X142745238Y-38805952D01*
X142792857Y-38758333D01*
X142888095Y-38710714D01*
X142983333Y-38710714D01*
X143459523Y-39377380D02*
X143364285Y-39329761D01*
X143316666Y-39282142D01*
X143269047Y-39186904D01*
X143269047Y-38901190D01*
X143316666Y-38805952D01*
X143364285Y-38758333D01*
X143459523Y-38710714D01*
X143602380Y-38710714D01*
X143697619Y-38758333D01*
X143745238Y-38805952D01*
X143792857Y-38901190D01*
X143792857Y-39186904D01*
X143745238Y-39282142D01*
X143697619Y-39329761D01*
X143602380Y-39377380D01*
X143459523Y-39377380D01*
X144650000Y-38710714D02*
X144650000Y-39520238D01*
X144602380Y-39615476D01*
X144554761Y-39663095D01*
X144459523Y-39710714D01*
X144316666Y-39710714D01*
X144221428Y-39663095D01*
X144650000Y-39329761D02*
X144554761Y-39377380D01*
X144364285Y-39377380D01*
X144269047Y-39329761D01*
X144221428Y-39282142D01*
X144173809Y-39186904D01*
X144173809Y-38901190D01*
X144221428Y-38805952D01*
X144269047Y-38758333D01*
X144364285Y-38710714D01*
X144554761Y-38710714D01*
X144650000Y-38758333D01*
X145650000Y-39377380D02*
X145078571Y-39377380D01*
X145364285Y-39377380D02*
X145364285Y-38377380D01*
X145269047Y-38520238D01*
X145173809Y-38615476D01*
X145078571Y-38663095D01*
%TO.C,Q3*%
X87527619Y-79095238D02*
X87480000Y-79190476D01*
X87384761Y-79285714D01*
X87241904Y-79428571D01*
X87194285Y-79523809D01*
X87194285Y-79619047D01*
X87432380Y-79571428D02*
X87384761Y-79666666D01*
X87289523Y-79761904D01*
X87099047Y-79809523D01*
X86765714Y-79809523D01*
X86575238Y-79761904D01*
X86480000Y-79666666D01*
X86432380Y-79571428D01*
X86432380Y-79380952D01*
X86480000Y-79285714D01*
X86575238Y-79190476D01*
X86765714Y-79142857D01*
X87099047Y-79142857D01*
X87289523Y-79190476D01*
X87384761Y-79285714D01*
X87432380Y-79380952D01*
X87432380Y-79571428D01*
X86432380Y-78809523D02*
X86432380Y-78190476D01*
X86813333Y-78523809D01*
X86813333Y-78380952D01*
X86860952Y-78285714D01*
X86908571Y-78238095D01*
X87003809Y-78190476D01*
X87241904Y-78190476D01*
X87337142Y-78238095D01*
X87384761Y-78285714D01*
X87432380Y-78380952D01*
X87432380Y-78666666D01*
X87384761Y-78761904D01*
X87337142Y-78809523D01*
%TO.C,C3*%
X94833333Y-59727142D02*
X94785714Y-59774761D01*
X94642857Y-59822380D01*
X94547619Y-59822380D01*
X94404761Y-59774761D01*
X94309523Y-59679523D01*
X94261904Y-59584285D01*
X94214285Y-59393809D01*
X94214285Y-59250952D01*
X94261904Y-59060476D01*
X94309523Y-58965238D01*
X94404761Y-58870000D01*
X94547619Y-58822380D01*
X94642857Y-58822380D01*
X94785714Y-58870000D01*
X94833333Y-58917619D01*
X95166666Y-58822380D02*
X95785714Y-58822380D01*
X95452380Y-59203333D01*
X95595238Y-59203333D01*
X95690476Y-59250952D01*
X95738095Y-59298571D01*
X95785714Y-59393809D01*
X95785714Y-59631904D01*
X95738095Y-59727142D01*
X95690476Y-59774761D01*
X95595238Y-59822380D01*
X95309523Y-59822380D01*
X95214285Y-59774761D01*
X95166666Y-59727142D01*
%TO.C,J2*%
X77016666Y-69707380D02*
X77016666Y-70421666D01*
X76969047Y-70564523D01*
X76873809Y-70659761D01*
X76730952Y-70707380D01*
X76635714Y-70707380D01*
X77445238Y-69802619D02*
X77492857Y-69755000D01*
X77588095Y-69707380D01*
X77826190Y-69707380D01*
X77921428Y-69755000D01*
X77969047Y-69802619D01*
X78016666Y-69897857D01*
X78016666Y-69993095D01*
X77969047Y-70135952D01*
X77397619Y-70707380D01*
X78016666Y-70707380D01*
%TO.C,R1*%
X90408333Y-62272380D02*
X90075000Y-61796190D01*
X89836904Y-62272380D02*
X89836904Y-61272380D01*
X90217857Y-61272380D01*
X90313095Y-61320000D01*
X90360714Y-61367619D01*
X90408333Y-61462857D01*
X90408333Y-61605714D01*
X90360714Y-61700952D01*
X90313095Y-61748571D01*
X90217857Y-61796190D01*
X89836904Y-61796190D01*
X91360714Y-62272380D02*
X90789285Y-62272380D01*
X91075000Y-62272380D02*
X91075000Y-61272380D01*
X90979761Y-61415238D01*
X90884523Y-61510476D01*
X90789285Y-61558095D01*
%TO.C,Q1*%
X90204761Y-69947619D02*
X90109523Y-69900000D01*
X90014285Y-69804761D01*
X89871428Y-69661904D01*
X89776190Y-69614285D01*
X89680952Y-69614285D01*
X89728571Y-69852380D02*
X89633333Y-69804761D01*
X89538095Y-69709523D01*
X89490476Y-69519047D01*
X89490476Y-69185714D01*
X89538095Y-68995238D01*
X89633333Y-68900000D01*
X89728571Y-68852380D01*
X89919047Y-68852380D01*
X90014285Y-68900000D01*
X90109523Y-68995238D01*
X90157142Y-69185714D01*
X90157142Y-69519047D01*
X90109523Y-69709523D01*
X90014285Y-69804761D01*
X89919047Y-69852380D01*
X89728571Y-69852380D01*
X91109523Y-69852380D02*
X90538095Y-69852380D01*
X90823809Y-69852380D02*
X90823809Y-68852380D01*
X90728571Y-68995238D01*
X90633333Y-69090476D01*
X90538095Y-69138095D01*
%TO.C,J1*%
X148766666Y-59182380D02*
X148766666Y-59896666D01*
X148719047Y-60039523D01*
X148623809Y-60134761D01*
X148480952Y-60182380D01*
X148385714Y-60182380D01*
X149766666Y-60182380D02*
X149195238Y-60182380D01*
X149480952Y-60182380D02*
X149480952Y-59182380D01*
X149385714Y-59325238D01*
X149290476Y-59420476D01*
X149195238Y-59468095D01*
%TO.C,U4*%
X73838095Y-45172380D02*
X73838095Y-45981904D01*
X73885714Y-46077142D01*
X73933333Y-46124761D01*
X74028571Y-46172380D01*
X74219047Y-46172380D01*
X74314285Y-46124761D01*
X74361904Y-46077142D01*
X74409523Y-45981904D01*
X74409523Y-45172380D01*
X75314285Y-45505714D02*
X75314285Y-46172380D01*
X75076190Y-45124761D02*
X74838095Y-45839047D01*
X75457142Y-45839047D01*
%TO.C,Q4*%
X87527619Y-88045238D02*
X87480000Y-88140476D01*
X87384761Y-88235714D01*
X87241904Y-88378571D01*
X87194285Y-88473809D01*
X87194285Y-88569047D01*
X87432380Y-88521428D02*
X87384761Y-88616666D01*
X87289523Y-88711904D01*
X87099047Y-88759523D01*
X86765714Y-88759523D01*
X86575238Y-88711904D01*
X86480000Y-88616666D01*
X86432380Y-88521428D01*
X86432380Y-88330952D01*
X86480000Y-88235714D01*
X86575238Y-88140476D01*
X86765714Y-88092857D01*
X87099047Y-88092857D01*
X87289523Y-88140476D01*
X87384761Y-88235714D01*
X87432380Y-88330952D01*
X87432380Y-88521428D01*
X86765714Y-87235714D02*
X87432380Y-87235714D01*
X86384761Y-87473809D02*
X87099047Y-87711904D01*
X87099047Y-87092857D01*
%TO.C,C1*%
X94967142Y-52416666D02*
X95014761Y-52464285D01*
X95062380Y-52607142D01*
X95062380Y-52702380D01*
X95014761Y-52845238D01*
X94919523Y-52940476D01*
X94824285Y-52988095D01*
X94633809Y-53035714D01*
X94490952Y-53035714D01*
X94300476Y-52988095D01*
X94205238Y-52940476D01*
X94110000Y-52845238D01*
X94062380Y-52702380D01*
X94062380Y-52607142D01*
X94110000Y-52464285D01*
X94157619Y-52416666D01*
X95062380Y-51464285D02*
X95062380Y-52035714D01*
X95062380Y-51750000D02*
X94062380Y-51750000D01*
X94205238Y-51845238D01*
X94300476Y-51940476D01*
X94348095Y-52035714D01*
%TO.C,Batt1*%
X141373571Y-85378571D02*
X141421190Y-85235714D01*
X141468809Y-85188095D01*
X141564047Y-85140476D01*
X141706904Y-85140476D01*
X141802142Y-85188095D01*
X141849761Y-85235714D01*
X141897380Y-85330952D01*
X141897380Y-85711904D01*
X140897380Y-85711904D01*
X140897380Y-85378571D01*
X140945000Y-85283333D01*
X140992619Y-85235714D01*
X141087857Y-85188095D01*
X141183095Y-85188095D01*
X141278333Y-85235714D01*
X141325952Y-85283333D01*
X141373571Y-85378571D01*
X141373571Y-85711904D01*
X141897380Y-84283333D02*
X141373571Y-84283333D01*
X141278333Y-84330952D01*
X141230714Y-84426190D01*
X141230714Y-84616666D01*
X141278333Y-84711904D01*
X141849761Y-84283333D02*
X141897380Y-84378571D01*
X141897380Y-84616666D01*
X141849761Y-84711904D01*
X141754523Y-84759523D01*
X141659285Y-84759523D01*
X141564047Y-84711904D01*
X141516428Y-84616666D01*
X141516428Y-84378571D01*
X141468809Y-84283333D01*
X141230714Y-83950000D02*
X141230714Y-83569047D01*
X140897380Y-83807142D02*
X141754523Y-83807142D01*
X141849761Y-83759523D01*
X141897380Y-83664285D01*
X141897380Y-83569047D01*
X141230714Y-83378571D02*
X141230714Y-82997619D01*
X140897380Y-83235714D02*
X141754523Y-83235714D01*
X141849761Y-83188095D01*
X141897380Y-83092857D01*
X141897380Y-82997619D01*
X141897380Y-82140476D02*
X141897380Y-82711904D01*
X141897380Y-82426190D02*
X140897380Y-82426190D01*
X141040238Y-82521428D01*
X141135476Y-82616666D01*
X141183095Y-82711904D01*
%TO.C,C5*%
X127087142Y-87216666D02*
X127134761Y-87264285D01*
X127182380Y-87407142D01*
X127182380Y-87502380D01*
X127134761Y-87645238D01*
X127039523Y-87740476D01*
X126944285Y-87788095D01*
X126753809Y-87835714D01*
X126610952Y-87835714D01*
X126420476Y-87788095D01*
X126325238Y-87740476D01*
X126230000Y-87645238D01*
X126182380Y-87502380D01*
X126182380Y-87407142D01*
X126230000Y-87264285D01*
X126277619Y-87216666D01*
X126182380Y-86311904D02*
X126182380Y-86788095D01*
X126658571Y-86835714D01*
X126610952Y-86788095D01*
X126563333Y-86692857D01*
X126563333Y-86454761D01*
X126610952Y-86359523D01*
X126658571Y-86311904D01*
X126753809Y-86264285D01*
X126991904Y-86264285D01*
X127087142Y-86311904D01*
X127134761Y-86359523D01*
X127182380Y-86454761D01*
X127182380Y-86692857D01*
X127134761Y-86788095D01*
X127087142Y-86835714D01*
%TO.C,Q6*%
X87827619Y-54195238D02*
X87780000Y-54290476D01*
X87684761Y-54385714D01*
X87541904Y-54528571D01*
X87494285Y-54623809D01*
X87494285Y-54719047D01*
X87732380Y-54671428D02*
X87684761Y-54766666D01*
X87589523Y-54861904D01*
X87399047Y-54909523D01*
X87065714Y-54909523D01*
X86875238Y-54861904D01*
X86780000Y-54766666D01*
X86732380Y-54671428D01*
X86732380Y-54480952D01*
X86780000Y-54385714D01*
X86875238Y-54290476D01*
X87065714Y-54242857D01*
X87399047Y-54242857D01*
X87589523Y-54290476D01*
X87684761Y-54385714D01*
X87732380Y-54480952D01*
X87732380Y-54671428D01*
X86732380Y-53385714D02*
X86732380Y-53576190D01*
X86780000Y-53671428D01*
X86827619Y-53719047D01*
X86970476Y-53814285D01*
X87160952Y-53861904D01*
X87541904Y-53861904D01*
X87637142Y-53814285D01*
X87684761Y-53766666D01*
X87732380Y-53671428D01*
X87732380Y-53480952D01*
X87684761Y-53385714D01*
X87637142Y-53338095D01*
X87541904Y-53290476D01*
X87303809Y-53290476D01*
X87208571Y-53338095D01*
X87160952Y-53385714D01*
X87113333Y-53480952D01*
X87113333Y-53671428D01*
X87160952Y-53766666D01*
X87208571Y-53814285D01*
X87303809Y-53861904D01*
%TO.C,C7*%
X116633333Y-81837142D02*
X116585714Y-81884761D01*
X116442857Y-81932380D01*
X116347619Y-81932380D01*
X116204761Y-81884761D01*
X116109523Y-81789523D01*
X116061904Y-81694285D01*
X116014285Y-81503809D01*
X116014285Y-81360952D01*
X116061904Y-81170476D01*
X116109523Y-81075238D01*
X116204761Y-80980000D01*
X116347619Y-80932380D01*
X116442857Y-80932380D01*
X116585714Y-80980000D01*
X116633333Y-81027619D01*
X116966666Y-80932380D02*
X117633333Y-80932380D01*
X117204761Y-81932380D01*
%TO.C,C6*%
X124427142Y-82466666D02*
X124474761Y-82514285D01*
X124522380Y-82657142D01*
X124522380Y-82752380D01*
X124474761Y-82895238D01*
X124379523Y-82990476D01*
X124284285Y-83038095D01*
X124093809Y-83085714D01*
X123950952Y-83085714D01*
X123760476Y-83038095D01*
X123665238Y-82990476D01*
X123570000Y-82895238D01*
X123522380Y-82752380D01*
X123522380Y-82657142D01*
X123570000Y-82514285D01*
X123617619Y-82466666D01*
X123522380Y-81609523D02*
X123522380Y-81800000D01*
X123570000Y-81895238D01*
X123617619Y-81942857D01*
X123760476Y-82038095D01*
X123950952Y-82085714D01*
X124331904Y-82085714D01*
X124427142Y-82038095D01*
X124474761Y-81990476D01*
X124522380Y-81895238D01*
X124522380Y-81704761D01*
X124474761Y-81609523D01*
X124427142Y-81561904D01*
X124331904Y-81514285D01*
X124093809Y-81514285D01*
X123998571Y-81561904D01*
X123950952Y-81609523D01*
X123903333Y-81704761D01*
X123903333Y-81895238D01*
X123950952Y-81990476D01*
X123998571Y-82038095D01*
X124093809Y-82085714D01*
%TO.C,R5*%
X112132380Y-79316666D02*
X111656190Y-79650000D01*
X112132380Y-79888095D02*
X111132380Y-79888095D01*
X111132380Y-79507142D01*
X111180000Y-79411904D01*
X111227619Y-79364285D01*
X111322857Y-79316666D01*
X111465714Y-79316666D01*
X111560952Y-79364285D01*
X111608571Y-79411904D01*
X111656190Y-79507142D01*
X111656190Y-79888095D01*
X111132380Y-78411904D02*
X111132380Y-78888095D01*
X111608571Y-78935714D01*
X111560952Y-78888095D01*
X111513333Y-78792857D01*
X111513333Y-78554761D01*
X111560952Y-78459523D01*
X111608571Y-78411904D01*
X111703809Y-78364285D01*
X111941904Y-78364285D01*
X112037142Y-78411904D01*
X112084761Y-78459523D01*
X112132380Y-78554761D01*
X112132380Y-78792857D01*
X112084761Y-78888095D01*
X112037142Y-78935714D01*
%TO.C,Q5*%
X87927619Y-44695238D02*
X87880000Y-44790476D01*
X87784761Y-44885714D01*
X87641904Y-45028571D01*
X87594285Y-45123809D01*
X87594285Y-45219047D01*
X87832380Y-45171428D02*
X87784761Y-45266666D01*
X87689523Y-45361904D01*
X87499047Y-45409523D01*
X87165714Y-45409523D01*
X86975238Y-45361904D01*
X86880000Y-45266666D01*
X86832380Y-45171428D01*
X86832380Y-44980952D01*
X86880000Y-44885714D01*
X86975238Y-44790476D01*
X87165714Y-44742857D01*
X87499047Y-44742857D01*
X87689523Y-44790476D01*
X87784761Y-44885714D01*
X87832380Y-44980952D01*
X87832380Y-45171428D01*
X86832380Y-43838095D02*
X86832380Y-44314285D01*
X87308571Y-44361904D01*
X87260952Y-44314285D01*
X87213333Y-44219047D01*
X87213333Y-43980952D01*
X87260952Y-43885714D01*
X87308571Y-43838095D01*
X87403809Y-43790476D01*
X87641904Y-43790476D01*
X87737142Y-43838095D01*
X87784761Y-43885714D01*
X87832380Y-43980952D01*
X87832380Y-44219047D01*
X87784761Y-44314285D01*
X87737142Y-44361904D01*
%TO.C,C4*%
X95537142Y-67216666D02*
X95584761Y-67264285D01*
X95632380Y-67407142D01*
X95632380Y-67502380D01*
X95584761Y-67645238D01*
X95489523Y-67740476D01*
X95394285Y-67788095D01*
X95203809Y-67835714D01*
X95060952Y-67835714D01*
X94870476Y-67788095D01*
X94775238Y-67740476D01*
X94680000Y-67645238D01*
X94632380Y-67502380D01*
X94632380Y-67407142D01*
X94680000Y-67264285D01*
X94727619Y-67216666D01*
X94965714Y-66359523D02*
X95632380Y-66359523D01*
X94584761Y-66597619D02*
X95299047Y-66835714D01*
X95299047Y-66216666D01*
%TO.C,R3*%
X97832380Y-67216666D02*
X97356190Y-67550000D01*
X97832380Y-67788095D02*
X96832380Y-67788095D01*
X96832380Y-67407142D01*
X96880000Y-67311904D01*
X96927619Y-67264285D01*
X97022857Y-67216666D01*
X97165714Y-67216666D01*
X97260952Y-67264285D01*
X97308571Y-67311904D01*
X97356190Y-67407142D01*
X97356190Y-67788095D01*
X96832380Y-66883333D02*
X96832380Y-66264285D01*
X97213333Y-66597619D01*
X97213333Y-66454761D01*
X97260952Y-66359523D01*
X97308571Y-66311904D01*
X97403809Y-66264285D01*
X97641904Y-66264285D01*
X97737142Y-66311904D01*
X97784761Y-66359523D01*
X97832380Y-66454761D01*
X97832380Y-66740476D01*
X97784761Y-66835714D01*
X97737142Y-66883333D01*
%TO.C,J3*%
X136766666Y-69902380D02*
X136766666Y-70616666D01*
X136719047Y-70759523D01*
X136623809Y-70854761D01*
X136480952Y-70902380D01*
X136385714Y-70902380D01*
X137147619Y-69902380D02*
X137766666Y-69902380D01*
X137433333Y-70283333D01*
X137576190Y-70283333D01*
X137671428Y-70330952D01*
X137719047Y-70378571D01*
X137766666Y-70473809D01*
X137766666Y-70711904D01*
X137719047Y-70807142D01*
X137671428Y-70854761D01*
X137576190Y-70902380D01*
X137290476Y-70902380D01*
X137195238Y-70854761D01*
X137147619Y-70807142D01*
%TO.C,Q2*%
X92154761Y-74447619D02*
X92059523Y-74400000D01*
X91964285Y-74304761D01*
X91821428Y-74161904D01*
X91726190Y-74114285D01*
X91630952Y-74114285D01*
X91678571Y-74352380D02*
X91583333Y-74304761D01*
X91488095Y-74209523D01*
X91440476Y-74019047D01*
X91440476Y-73685714D01*
X91488095Y-73495238D01*
X91583333Y-73400000D01*
X91678571Y-73352380D01*
X91869047Y-73352380D01*
X91964285Y-73400000D01*
X92059523Y-73495238D01*
X92107142Y-73685714D01*
X92107142Y-74019047D01*
X92059523Y-74209523D01*
X91964285Y-74304761D01*
X91869047Y-74352380D01*
X91678571Y-74352380D01*
X92488095Y-73447619D02*
X92535714Y-73400000D01*
X92630952Y-73352380D01*
X92869047Y-73352380D01*
X92964285Y-73400000D01*
X93011904Y-73447619D01*
X93059523Y-73542857D01*
X93059523Y-73638095D01*
X93011904Y-73780952D01*
X92440476Y-74352380D01*
X93059523Y-74352380D01*
D11*
%TO.C,R4*%
X95377500Y-71612258D02*
X95377500Y-71137742D01*
X96422500Y-71612258D02*
X96422500Y-71137742D01*
%TO.C,Reset1*%
X111240000Y-82850000D02*
X117360000Y-82850000D01*
X117360000Y-86550000D02*
X111240000Y-86550000D01*
X117360000Y-82850000D02*
X117360000Y-86550000D01*
X111240000Y-86550000D02*
X111240000Y-82850000D01*
%TO.C,U2*%
X130950000Y-87060000D02*
X134710000Y-87060000D01*
X128700000Y-80240000D02*
X134710000Y-80240000D01*
X134710000Y-87060000D02*
X134710000Y-85800000D01*
X134710000Y-80240000D02*
X134710000Y-81500000D01*
%TO.C,R2*%
X94662742Y-62727500D02*
X95137258Y-62727500D01*
X94662742Y-63772500D02*
X95137258Y-63772500D01*
%TO.C,U1*%
X121420000Y-69630000D02*
X120420000Y-69630000D01*
X103180000Y-43890000D02*
X103180000Y-50305000D01*
X103180000Y-69630000D02*
X104180000Y-69630000D01*
X103180000Y-50305000D02*
X102800000Y-50305000D01*
X103180000Y-68850000D02*
X103180000Y-69630000D01*
X121420000Y-68850000D02*
X121420000Y-69630000D01*
X121420000Y-43890000D02*
X121420000Y-50305000D01*
X103180000Y-43890000D02*
X121420000Y-43890000D01*
%TO.C,U3*%
X74600000Y-79910000D02*
X76480000Y-79910000D01*
X74600000Y-79910000D02*
X71075000Y-79910000D01*
X74600000Y-85090000D02*
X76480000Y-85090000D01*
X74600000Y-85090000D02*
X72720000Y-85090000D01*
%TO.C,C2*%
X98340000Y-52390580D02*
X98340000Y-52109420D01*
X99360000Y-52390580D02*
X99360000Y-52109420D01*
%TO.C,Prog1*%
X150650000Y-40025000D02*
X150650000Y-40775000D01*
X134840000Y-45985000D02*
X152460000Y-45985000D01*
X151700000Y-45225000D02*
X143650000Y-45225000D01*
X134840000Y-40015000D02*
X134840000Y-45985000D01*
X149150000Y-40775000D02*
X149150000Y-40025000D01*
X136650000Y-40775000D02*
X136650000Y-40025000D01*
X134550000Y-39725000D02*
X134550000Y-40975000D01*
X134850000Y-42275000D02*
X135600000Y-42275000D01*
X143650000Y-45225000D02*
X136660000Y-45225000D01*
X138150000Y-40775000D02*
X149150000Y-40775000D01*
X152450000Y-42275000D02*
X151700000Y-42275000D01*
X135800000Y-39725000D02*
X134550000Y-39725000D01*
X152450000Y-40025000D02*
X150650000Y-40025000D01*
X135600000Y-42275000D02*
X135600000Y-43615000D01*
X152460000Y-40015000D02*
X134840000Y-40015000D01*
X134850000Y-40025000D02*
X134850000Y-40775000D01*
X152460000Y-45985000D02*
X152460000Y-40015000D01*
X152450000Y-40775000D02*
X152450000Y-40025000D01*
X136650000Y-40025000D02*
X134850000Y-40025000D01*
X150650000Y-40775000D02*
X152450000Y-40775000D01*
X134850000Y-40775000D02*
X136650000Y-40775000D01*
X138150000Y-40025000D02*
X138150000Y-40775000D01*
X151700000Y-42275000D02*
X151700000Y-45225000D01*
X149150000Y-40025000D02*
X138150000Y-40025000D01*
%TO.C,Q3*%
X86140000Y-79000000D02*
X86140000Y-75475000D01*
X86140000Y-79000000D02*
X86140000Y-80880000D01*
X80960000Y-79000000D02*
X80960000Y-77120000D01*
X80960000Y-79000000D02*
X80960000Y-80880000D01*
%TO.C,C3*%
X94859420Y-60290000D02*
X95140580Y-60290000D01*
X94859420Y-61310000D02*
X95140580Y-61310000D01*
%TO.C,J2*%
X78680000Y-66655000D02*
X78680000Y-64055000D01*
X76020000Y-66655000D02*
X76020000Y-64055000D01*
X78680000Y-67925000D02*
X78680000Y-69255000D01*
X78680000Y-66655000D02*
X76020000Y-66655000D01*
X78680000Y-64055000D02*
X76020000Y-64055000D01*
X78680000Y-69255000D02*
X77350000Y-69255000D01*
%TO.C,R1*%
X90337742Y-63772500D02*
X90812258Y-63772500D01*
X90337742Y-62727500D02*
X90812258Y-62727500D01*
%TO.C,Q1*%
X90300000Y-68560000D02*
X89650000Y-68560000D01*
X90300000Y-65440000D02*
X90950000Y-65440000D01*
X90300000Y-68560000D02*
X91975000Y-68560000D01*
X90300000Y-65440000D02*
X89650000Y-65440000D01*
%TO.C,J1*%
X147770000Y-63330000D02*
X147770000Y-68470000D01*
X147770000Y-60730000D02*
X149100000Y-60730000D01*
X147770000Y-68470000D02*
X150430000Y-68470000D01*
X147770000Y-62060000D02*
X147770000Y-60730000D01*
X150430000Y-63330000D02*
X150430000Y-68470000D01*
X147770000Y-63330000D02*
X150430000Y-63330000D01*
%TO.C,U4*%
X74600000Y-46560000D02*
X71075000Y-46560000D01*
X74600000Y-51740000D02*
X76480000Y-51740000D01*
X74600000Y-46560000D02*
X76480000Y-46560000D01*
X74600000Y-51740000D02*
X72720000Y-51740000D01*
%TO.C,Q4*%
X86140000Y-87950000D02*
X86140000Y-84425000D01*
X86140000Y-87950000D02*
X86140000Y-89830000D01*
X80960000Y-87950000D02*
X80960000Y-86070000D01*
X80960000Y-87950000D02*
X80960000Y-89830000D01*
%TO.C,C1*%
X96550000Y-52390580D02*
X96550000Y-52109420D01*
X95530000Y-52390580D02*
X95530000Y-52109420D01*
%TO.C,Batt1*%
X145045000Y-85280000D02*
X147645000Y-85280000D01*
X142445000Y-85280000D02*
X142445000Y-83950000D01*
X145045000Y-85280000D02*
X145045000Y-82620000D01*
X143775000Y-85280000D02*
X142445000Y-85280000D01*
X145045000Y-82620000D02*
X147645000Y-82620000D01*
X147645000Y-85280000D02*
X147645000Y-82620000D01*
%TO.C,C5*%
X125810000Y-86909420D02*
X125810000Y-87190580D01*
X124790000Y-86909420D02*
X124790000Y-87190580D01*
%TO.C,Q6*%
X81260000Y-54100000D02*
X81260000Y-52220000D01*
X86440000Y-54100000D02*
X86440000Y-55980000D01*
X81260000Y-54100000D02*
X81260000Y-55980000D01*
X86440000Y-54100000D02*
X86440000Y-50575000D01*
%TO.C,C7*%
X116940580Y-79540000D02*
X116659420Y-79540000D01*
X116940580Y-80560000D02*
X116659420Y-80560000D01*
%TO.C,C6*%
X124990000Y-82440580D02*
X124990000Y-82159420D01*
X126010000Y-82440580D02*
X126010000Y-82159420D01*
%TO.C,R5*%
X110772500Y-78912742D02*
X110772500Y-79387258D01*
X109727500Y-78912742D02*
X109727500Y-79387258D01*
%TO.C,Q5*%
X81360000Y-44600000D02*
X81360000Y-46480000D01*
X86540000Y-44600000D02*
X86540000Y-41075000D01*
X86540000Y-44600000D02*
X86540000Y-46480000D01*
X81360000Y-44600000D02*
X81360000Y-42720000D01*
%TO.C,C4*%
X93240000Y-66909420D02*
X93240000Y-67190580D01*
X94260000Y-66909420D02*
X94260000Y-67190580D01*
%TO.C,R3*%
X96472500Y-66812742D02*
X96472500Y-67287258D01*
X95427500Y-66812742D02*
X95427500Y-67287258D01*
%TO.C,J3*%
X138370000Y-68974000D02*
X138370000Y-68974000D01*
X138700000Y-69550000D02*
X109500000Y-69550000D01*
X135830000Y-68466000D02*
X135830000Y-66180000D01*
X133036000Y-68974000D02*
X133036000Y-58306000D01*
X109500000Y-69550000D02*
X109500000Y-54100000D01*
X138370000Y-68974000D02*
X133036000Y-68974000D01*
X135830000Y-66180000D02*
X138116000Y-66180000D01*
X109500000Y-54100000D02*
X138700000Y-54100000D01*
X138116000Y-66180000D02*
X138116000Y-66180000D01*
X138370000Y-58306000D02*
X138370000Y-68974000D01*
X138700000Y-69550000D02*
X138700000Y-69550000D01*
X133036000Y-58306000D02*
X138370000Y-58306000D01*
X138700000Y-54100000D02*
X138700000Y-69550000D01*
X138370000Y-58306000D02*
X138370000Y-58306000D01*
%TO.C,Q2*%
X92250000Y-73060000D02*
X91600000Y-73060000D01*
X92250000Y-69940000D02*
X92900000Y-69940000D01*
X92250000Y-69940000D02*
X91600000Y-69940000D01*
X92250000Y-73060000D02*
X93925000Y-73060000D01*
%TD*%
M02*
