M48
; DRILL file {KiCad 6.0.8+dfsg-1~bpo11+1} date lun. 14 nov. 2022 19:08:53
; FORMAT={-:-/ absolute / inch / decimal}
; #@! TF.CreationDate,2022-11-14T19:08:53+01:00
; #@! TF.GenerationSoftware,Kicad,Pcbnew,6.0.8+dfsg-1~bpo11+1
; #@! TF.FileFunction,Plated,1,2,PTH
FMAT,2
INCH
; #@! TA.AperFunction,Plated,PTH,ViaDrill
T1C0.0079
; #@! TA.AperFunction,Plated,PTH,ComponentDrill
T2C0.0079
; #@! TA.AperFunction,Plated,PTH,ViaDrill
T3C0.0157
; #@! TA.AperFunction,Plated,PTH,ComponentDrill
T4C0.0374
; #@! TA.AperFunction,Plated,PTH,ComponentDrill
T5C0.0394
; #@! TA.AperFunction,Plated,PTH,ViaDrill
T6C0.0591
%
G90
G05
T1
X2.7126Y-2.0433
X2.7126Y-2.0984
X2.7126Y-2.189
X2.7126Y-2.2795
X2.7126Y-2.3681
X2.7126Y-2.4587
X2.7126Y-2.5492
X2.7126Y-2.6378
X2.7126Y-2.7283
X2.7126Y-2.8189
X2.7126Y-2.9075
X2.7126Y-2.998
X2.7126Y-3.0886
X2.7126Y-3.1772
X2.7126Y-3.2677
X2.7126Y-3.3563
X2.7126Y-3.4469
X2.7126Y-3.5374
X2.7244Y-1.8957
X2.7362Y-3.6398
X2.75Y-1.7756
X2.7657Y-1.5906
X2.7972Y-3.4213
X2.8012Y-3.4902
X2.8031Y-2.3228
X2.8071Y-2.0807
X2.8071Y-2.1752
X2.8091Y-3.7047
X2.811Y-2.7598
X2.813Y-2.5531
X2.8189Y-2.628
X2.8189Y-2.8563
X2.8228Y-3.0925
X2.8504Y-3.5787
X2.8681Y-2.9508
X2.8799Y-3.5217
X2.8839Y-2.4272
X2.8858Y-2.0748
X2.8898Y-2.7008
X2.9016Y-2.2992
X2.9055Y-1.9154
X2.9075Y-2.8346
X2.9134Y-3.3799
X2.9272Y-3.248
X2.9488Y-2.6181
X2.9547Y-2.2441
X2.9547Y-2.7283
X2.9547Y-2.9213
X2.9567Y-3.3248
X2.9587Y-3.2461
X2.9606Y-3.7047
X2.9626Y-3.4232
X2.9744Y-3.5394
X2.9783Y-2.811
X2.9803Y-3.6083
X2.9902Y-2.4252
X3.0059Y-1.7283
X3.0098Y-2.2047
X3.0197Y-3.4311
X3.0394Y-1.5728
X3.0512Y-2.3583
X3.0669Y-3.5374
X3.0669Y-3.6083
X3.0689Y-2.4606
X3.0709Y-2.0709
X3.0945Y-2.7933
X3.1063Y-2.0039
X3.1063Y-2.1102
X3.1083Y-3.3878
X3.1122Y-2.3091
X3.1122Y-3.7047
X3.122Y-2.5886
X3.124Y-2.4232
X3.124Y-2.6811
X3.1476Y-2.7421
X3.1476Y-3.4331
X3.1496Y-3.6102
X3.1535Y-3.5374
X3.1575Y-2.5709
X3.1594Y-2.0551
X3.1614Y-3.1378
X3.1673Y-2.3504
X3.1732Y-1.7382
X3.1772Y-2.9783
X3.1969Y-2.7047
X3.2067Y-2.6142
X3.2087Y-2.435
X3.2087Y-3.1161
X3.2126Y-2.5335
X3.2185Y-2.935
X3.2343Y-2.1575
X3.2638Y-3.7047
X3.2657Y-1.5669
X3.2756Y-2.1083
X3.2913Y-1.7874
X3.3465Y-1.7382
X3.3583Y-2.502
X3.3602Y-2.3504
X3.3839Y-1.7382
X3.4173Y-1.5669
X3.4173Y-3.7047
X3.4252Y-2.9547
X3.4272Y-3.5256
X3.435Y-3.6063
X3.4469Y-1.8327
X3.4469Y-2.0157
X3.4488Y-2.6161
X3.4705Y-3.0413
X3.4724Y-2.4843
X3.4902Y-3.4154
X3.5039Y-3.1575
X3.5098Y-3.2461
X3.5236Y-2.6929
X3.5551Y-2.9724
X3.5689Y-3.7047
X3.5709Y-1.5669
X3.5945Y-3.4094
X3.6024Y-2.0669
X3.6063Y-2.5531
X3.6122Y-2.2264
X3.6457Y-3.2343
X3.6535Y-1.7559
X3.6555Y-2.4449
X3.6614Y-2.7323
X3.6634Y-1.9075
X3.6654Y-3.1161
X3.6831Y-3.3602
X3.6929Y-3.5551
X3.7087Y-2.1161
X3.7224Y-1.5669
X3.7224Y-3.6949
X3.7283Y-2.8091
X3.7283Y-2.9094
X3.7461Y-3.3012
X3.7657Y-2.5492
X3.7697Y-2.25
X3.7697Y-3.2165
X3.7953Y-2.9685
X3.8189Y-1.5886
X3.8189Y-1.6831
X3.8189Y-1.8937
X3.8248Y-2.122
X3.8524Y-2.7756
X3.8622Y-2.5335
X3.8701Y-2.1732
X3.874Y-3.6949
X3.878Y-2.3465
X3.8839Y-3.5768
X3.8898Y-3.3602
X3.9213Y-3.0787
X3.9252Y-2.8602
X3.9331Y-2.4488
X3.9783Y-2.3681
X3.9803Y-2.0098
X3.9921Y-2.6988
X3.998Y-2.124
X4.0Y-3.4665
X4.002Y-2.1811
X4.0079Y-2.5315
X4.0276Y-3.6949
X4.0295Y-3.002
X4.0315Y-3.1949
X4.1004Y-3.5925
X4.128Y-2.7776
X4.1535Y-2.935
X4.1594Y-2.2697
X4.1594Y-2.3425
X4.1594Y-2.5256
X4.1614Y-2.0394
X4.1614Y-2.1811
X4.1791Y-3.6949
X4.1831Y-3.311
X4.2323Y-2.4429
X4.2421Y-3.0413
X4.248Y-3.3307
X4.2717Y-3.2165
X4.2776Y-2.2736
X4.2776Y-2.3425
X4.2854Y-2.0256
X4.3031Y-2.5453
X4.315Y-3.4744
X4.3307Y-3.6949
X4.3366Y-2.1752
X4.3445Y-2.6654
X4.4075Y-2.626
X4.4114Y-3.0413
X4.4154Y-2.0728
X4.4154Y-2.6673
X4.4173Y-2.4488
X4.4173Y-3.6535
X4.4213Y-3.5531
X4.4232Y-3.2087
X4.4744Y-2.1772
X4.4941Y-2.0236
X4.4941Y-2.5118
X4.498Y-3.313
X4.5177Y-3.3937
X4.5236Y-3.6988
X4.5256Y-3.5669
X4.5394Y-3.0453
X4.5492Y-2.4449
X4.5571Y-3.6476
X4.5689Y-2.2776
X4.5689Y-2.6535
X4.6043Y-2.5433
X4.6358Y-2.1713
X4.6535Y-2.6654
X4.6654Y-1.9783
X4.6693Y-3.4488
X4.6831Y-2.2953
X4.6949Y-2.5866
X4.6988Y-2.0768
X4.6988Y-3.6949
X4.7067Y-3.1634
X4.7165Y-2.9882
X4.752Y-2.8366
X4.7559Y-2.7205
X4.7638Y-3.0433
X4.7854Y-3.5807
X4.7992Y-3.2815
X4.8366Y-2.3031
X4.8386Y-2.1201
X4.8484Y-2.9134
X4.8504Y-2.0354
X4.8524Y-3.6949
X4.8661Y-3.0276
X4.8701Y-3.4941
X4.8839Y-2.6201
X4.8878Y-2.8012
X4.8996Y-2.3681
X4.9016Y-2.1142
X4.9232Y-2.4724
X4.9311Y-2.7126
X4.937Y-2.2028
X4.939Y-3.1142
X4.9803Y-2.8681
X4.9961Y-2.0472
X5.0039Y-3.6949
X5.0138Y-2.3583
X5.0138Y-3.2067
X5.0236Y-3.0551
X5.0236Y-3.3287
X5.0256Y-2.7087
X5.0413Y-1.7146
X5.0453Y-2.2776
X5.0453Y-2.4705
X5.0531Y-2.6201
X5.0571Y-1.8681
X5.0748Y-2.8268
X5.0807Y-3.4685
X5.0906Y-1.5669
X5.1024Y-2.9843
X5.1024Y-3.0965
X5.124Y-2.1004
X5.1339Y-2.3563
X5.1437Y-1.935
X5.1555Y-3.6949
X5.1713Y-1.7106
X5.1752Y-3.6161
X5.1772Y-2.7087
X5.1811Y-2.4685
X5.1811Y-3.0492
X5.1831Y-2.0374
X5.185Y-2.9055
X5.185Y-3.3307
X5.189Y-2.624
X5.2008Y-2.2067
X5.2047Y-3.3858
X5.2362Y-1.8839
X5.2441Y-1.5669
X5.252Y-2.1043
X5.2598Y-3.2165
X5.2657Y-3.3878
X5.2736Y-2.8307
X5.2795Y-3.3366
X5.2854Y-2.9764
X5.2874Y-3.063
X5.2913Y-3.5098
X5.3012Y-2.7224
X5.3071Y-3.6949
X5.3346Y-2.0453
X5.3799Y-1.9232
X5.3878Y-2.1083
X5.3937Y-2.2067
X5.3937Y-2.2756
X5.3957Y-1.5669
X5.4094Y-2.9016
X5.4173Y-2.9843
X5.4469Y-3.1476
X5.4606Y-2.7776
X5.4606Y-3.3583
X5.4606Y-3.6949
X5.4705Y-2.0669
X5.4803Y-2.2835
X5.4921Y-2.4528
X5.4921Y-2.5433
X5.4921Y-2.5945
X5.5Y-2.3642
X5.502Y-3.5335
X5.5157Y-3.2343
X5.5413Y-2.3504
X5.5413Y-2.5531
X5.5472Y-1.5669
X5.5571Y-2.4528
X5.561Y-2.0217
X5.561Y-2.2323
X5.5886Y-3.2776
X5.5925Y-2.9134
X5.6122Y-3.6949
X5.628Y-2.6043
X5.6358Y-2.7854
X5.6693Y-1.9114
X5.6713Y-2.1122
X5.6732Y-2.2028
X5.687Y-3.4232
X5.689Y-2.3268
X5.689Y-2.4744
X5.7008Y-1.5669
X5.7028Y-3.563
X5.7165Y-3.0787
X5.7402Y-2.4705
X5.7441Y-1.8406
X5.7579Y-1.7638
X5.7638Y-3.6949
X5.7697Y-2.0177
X5.7717Y-2.6535
X5.7756Y-3.1772
X5.7992Y-2.8563
X5.8465Y-2.1634
X5.8524Y-1.5669
X5.8583Y-3.2835
X5.9154Y-1.935
X5.9173Y-3.6969
X5.9193Y-3.4154
X5.9488Y-2.8268
X6.0039Y-1.6575
X6.0039Y-1.7461
X6.0039Y-1.8366
X6.0039Y-1.9272
X6.0039Y-2.0157
X6.0039Y-2.1063
X6.0039Y-2.1969
X6.0039Y-2.2854
X6.0039Y-2.376
X6.0039Y-2.4665
X6.0039Y-2.5551
X6.0039Y-2.6457
X6.0039Y-2.7362
X6.0039Y-2.8248
X6.0039Y-2.9154
X6.0039Y-3.0059
X6.0039Y-3.0945
X6.0039Y-3.185
X6.0039Y-3.2756
X6.0039Y-3.3642
X6.0039Y-3.4547
X6.0039Y-3.5453
X6.0039Y-3.6339
T2
X4.3344Y-2.2865
X4.3344Y-2.3466
X4.3645Y-2.2565
X4.3645Y-2.3165
X4.3645Y-2.3766
X4.3945Y-2.2865
X4.3945Y-2.3466
X4.4245Y-2.2565
X4.4245Y-2.3165
X4.4245Y-2.3766
X4.4545Y-2.2865
X4.4545Y-2.3466
T3
X2.8959Y-3.173
X2.9411Y-3.173
X2.9426Y-2.3599
X2.9771Y-2.3255
X2.9864Y-3.173
X3.0105Y-2.292
X3.0407Y-2.2618
X3.124Y-1.6791
X3.1355Y-1.9393
X3.1594Y-1.6791
X3.165Y-1.9688
X3.1945Y-1.9984
X3.2047Y-1.6791
X3.2644Y-2.586
X3.2644Y-2.6274
X3.2644Y-2.6726
X3.2644Y-2.7199
X3.2644Y-2.7671
X3.2644Y-2.8085
X3.2644Y-2.8537
X3.2644Y-2.899
X3.2801Y-1.9522
X3.2801Y-2.0191
X3.3301Y-1.9514
X3.3762Y-1.9506
X3.8406Y-2.2224
X4.1004Y-3.374
X4.1329Y-3.4065
X4.1673Y-3.4409
X4.2008Y-3.4744
X4.2264Y-2.3406
X4.2372Y-3.5108
X4.2756Y-3.5492
X4.3159Y-3.5896
X4.4843Y-3.1516
X4.6772Y-2.4075
X4.8386Y-2.374
X4.8386Y-2.5256
X4.8425Y-2.4311
X4.8445Y-2.4764
X4.876Y-2.1791
X4.878Y-2.2303
X5.0295Y-2.7717
X5.5098Y-1.9921
X5.6142Y-2.5335
T4
X5.4094Y-1.6722
X5.5079Y-1.6722
X5.6063Y-1.6722
X5.7047Y-1.6722
X5.8031Y-1.6722
X5.9016Y-1.6722
T5
X3.0453Y-2.5742
X3.0453Y-2.6742
X5.2976Y-2.3555
X5.2976Y-2.4555
X5.2976Y-2.5555
X5.2976Y-2.6555
X5.3976Y-2.3555
X5.3976Y-2.4555
X5.3976Y-2.5555
X5.3976Y-2.6555
X5.6604Y-3.3051
X5.7604Y-3.3051
X5.8701Y-2.4433
X5.8701Y-2.5433
X5.8701Y-2.6433
T6
X3.1339Y-1.8661
X3.1339Y-3.0492
X5.4961Y-1.8642
X5.4961Y-3.0492
T0
M30
