M48
; DRILL file {KiCad (6.0.11)} date Wed Aug  9 22:56:21 2023
; FORMAT={-:-/ absolute / inch / decimal}
; #@! TF.CreationDate,2023-08-09T22:56:21+02:00
; #@! TF.GenerationSoftware,Kicad,Pcbnew,(6.0.11)
; #@! TF.FileFunction,Plated,1,2,PTH
FMAT,2
INCH
; #@! TA.AperFunction,Plated,PTH,ViaDrill
T1C0.0079
; #@! TA.AperFunction,Plated,PTH,ViaDrill
T2C0.0236
; #@! TA.AperFunction,Plated,PTH,ComponentDrill
T3C0.0374
; #@! TA.AperFunction,Plated,PTH,ComponentDrill
T4C0.0394
; #@! TA.AperFunction,Plated,PTH,ViaDrill
T5C0.1181
%
G90
G05
T1
X5.1654Y-4.6142
X5.1969Y-5.685
X5.2047Y-4.9843
X5.2047Y-5.2126
X5.2047Y-5.4173
X5.2047Y-5.5591
X5.2205Y-4.252
X5.2441Y-4.3307
X5.3543Y-4.2205
X5.3543Y-4.5591
X5.3622Y-5.3701
X5.3701Y-5.5748
X5.4016Y-5.1339
X5.4094Y-4.8346
X5.4173Y-4.4252
X5.4488Y-5.874
X5.5118Y-5.1102
X5.5197Y-4.2283
X5.5433Y-5.6535
X5.6693Y-5.126
X5.7008Y-4.2205
X5.7008Y-5.8583
X5.7087Y-5.4803
X5.7165Y-4.315
X5.748Y-5.685
X5.7638Y-4.4016
X5.811Y-4.6772
X5.8346Y-5.3071
X5.8346Y-5.4016
X5.8504Y-4.4094
X5.8661Y-4.3386
X5.8976Y-4.2126
X5.9134Y-5.3228
X5.9528Y-5.6535
X5.9606Y-4.9685
X5.9685Y-5.5197
X5.9764Y-4.5433
X5.9843Y-4.7874
X6.0079Y-5.874
X6.0236Y-5.6693
X6.0315Y-4.1811
X6.0787Y-5.378
X6.1024Y-5.1417
X6.126Y-4.4488
X6.1496Y-5.4803
X6.152Y-5.23
X6.1654Y-4.9055
X6.1811Y-4.5433
X6.1811Y-4.6535
X6.1969Y-4.2441
X6.2205Y-4.3858
X6.2362Y-5.0866
X6.2677Y-4.6693
X6.277Y-5.313
X6.2835Y-5.2598
X6.2913Y-5.3937
X6.3228Y-4.4803
X6.3307Y-4.9449
X6.3465Y-4.1654
X6.3465Y-5.8661
X6.358Y-5.064
X6.3622Y-4.8268
X6.3701Y-5.685
X6.4094Y-5.1969
X6.4331Y-4.5827
X6.447Y-5.309
X6.4567Y-5.2362
X6.4803Y-4.4094
X6.4882Y-5.8661
X6.5039Y-4.2126
X6.5118Y-4.9449
X6.5512Y-5.3622
X6.5669Y-5.1732
X6.5748Y-4.5512
X6.5906Y-4.4094
X6.5906Y-4.9685
X6.6063Y-4.2126
X6.6142Y-4.748
X6.626Y-5.46
X6.6457Y-5.3622
X6.6535Y-5.8661
X6.685Y-5.4724
X6.685Y-5.6929
X6.7165Y-5.2126
X6.748Y-4.4094
X6.748Y-4.6693
X6.748Y-4.8346
X6.7717Y-5.3543
X6.7795Y-5.685
X6.781Y-5.029
X6.8209Y-5.2791
X6.8268Y-5.5276
X6.831Y-4.917
X6.836Y-4.803
X6.84Y-5.294
X6.8425Y-4.4173
X6.8583Y-4.5433
X6.8583Y-5.1181
X6.862Y-5.268
X6.874Y-4.3701
X6.8819Y-4.9606
X6.8898Y-5.0236
X6.8976Y-5.3386
X6.901Y-4.499
X6.9055Y-5.8583
X6.934Y-4.914
X6.936Y-4.515
X6.9449Y-4.315
X6.9528Y-5.1181
X6.956Y-4.448
X6.9606Y-5.5433
X6.9685Y-5.4016
X6.978Y-4.395
X6.9939Y-4.9466
X7.0058Y-4.9902
X7.0394Y-4.2992
X7.0394Y-4.5354
X7.0394Y-4.6929
X7.0394Y-4.8189
X7.0472Y-4.4173
X7.063Y-5.2441
X7.1024Y-5.4331
X7.1024Y-5.8583
X7.1181Y-4.8661
X7.128Y-5.62
X7.1339Y-5.1654
X7.15Y-5.05
X7.1575Y-4.4094
X7.1575Y-4.5354
X7.1575Y-4.7244
X7.1654Y-5.5354
X7.1732Y-4.2126
X7.1969Y-5.7008
X7.208Y-5.106
X7.2283Y-4.2598
X7.2283Y-5.4488
X7.2304Y-5.0496
X7.2362Y-5.1654
X7.2835Y-4.5433
X7.2913Y-5.8583
X7.3071Y-4.4252
X7.3071Y-4.685
X7.315Y-4.2126
X7.3543Y-5.3622
X7.3622Y-5.0394
X7.3622Y-5.1654
X7.373Y-5.107
X7.378Y-5.622
X7.3858Y-5.4961
X7.3937Y-4.874
X7.4409Y-4.7087
X7.4488Y-5.7008
X7.4961Y-5.8583
X7.5197Y-5.0787
X7.5276Y-5.5827
X7.5433Y-5.2047
X7.5591Y-5.8031
X7.5669Y-4.8583
X7.5827Y-4.3701
X7.5906Y-4.6614
X7.6457Y-5.3071
X7.6772Y-5.0551
X7.7165Y-5.6614
X7.7323Y-4.2205
X7.7323Y-4.7717
X7.748Y-5.2835
X7.7559Y-4.4803
X7.7717Y-5.4409
X7.7717Y-5.874
X7.8189Y-5.622
X7.8346Y-4.9685
X7.8504Y-5.2047
X7.8819Y-5.5433
X7.8898Y-5.3858
X7.8976Y-5.7165
X7.9134Y-4.2126
X7.9134Y-4.6299
X7.9291Y-4.811
X8.0157Y-5.6142
X8.0236Y-5.8661
X8.0472Y-5.685
X8.0787Y-4.6299
X8.0866Y-4.3858
X8.0866Y-5.2047
X8.0945Y-4.8898
X8.1024Y-4.2047
X8.1496Y-5.4252
X8.2126Y-5.7008
X8.2835Y-5.0236
X8.2992Y-5.2047
X8.2992Y-5.378
X8.3307Y-5.4803
X8.3701Y-5.622
X8.4567Y-5.0315
X8.4646Y-5.3701
X8.5118Y-5.685
X8.5433Y-5.8346
X8.5984Y-5.748
X8.6142Y-5.063
X8.6142Y-5.2677
X8.622Y-5.5984
X8.6299Y-5.4252
T2
X5.597Y-4.897
X5.641Y-5.384
X5.681Y-4.559
X5.685Y-4.771
X6.243Y-5.578
X6.598Y-5.562
X6.716Y-5.62
T3
X6.6929Y-4.2402
X6.7913Y-4.2402
X6.8898Y-4.2402
X6.9882Y-4.2402
X7.0866Y-4.2402
X7.6575Y-5.7874
X7.7559Y-5.7874
X7.8543Y-5.7874
X7.9528Y-5.7874
T4
X5.2394Y-4.5374
X5.2394Y-4.6374
X5.2394Y-4.7374
X5.2394Y-4.8374
X5.3118Y-5.7874
X5.4118Y-5.7874
X5.5118Y-5.7874
X5.6118Y-5.7874
X5.7736Y-5.7874
X5.8736Y-5.7874
X5.9736Y-5.7874
X5.9843Y-4.252
X6.0736Y-5.7874
X6.0843Y-4.252
X6.1736Y-5.7874
X6.2736Y-5.7874
X6.2992Y-4.252
X6.3992Y-4.252
X6.4567Y-5.7874
X6.5567Y-5.7874
X7.2327Y-5.7992
X7.3327Y-5.7992
X7.3925Y-4.2238
X7.3925Y-4.3238
X7.3925Y-4.4238
X7.3925Y-4.5238
X7.4327Y-5.7992
X7.4925Y-4.2238
X7.4925Y-4.3238
X7.4925Y-4.4238
X7.4925Y-4.5238
X8.5433Y-5.2433
X8.5433Y-5.3433
X8.5433Y-5.4433
X8.5433Y-5.5433
T5
X5.7677Y-5.0197
X8.0512Y-5.0197
T0
M30
