%TF.GenerationSoftware,KiCad,Pcbnew,(6.0.11)*%
%TF.CreationDate,2023-08-09T22:56:24+02:00*%
%TF.ProjectId,Voiture_RC,566f6974-7572-4655-9f52-432e6b696361,rev?*%
%TF.SameCoordinates,Original*%
%TF.FileFunction,Paste,Top*%
%TF.FilePolarity,Positive*%
%FSLAX46Y46*%
G04 Gerber Fmt 4.6, Leading zero omitted, Abs format (unit mm)*
G04 Created by KiCad (PCBNEW (6.0.11)) date 2023-08-09 22:56:24*
%MOMM*%
%LPD*%
G01*
G04 APERTURE LIST*
G04 Aperture macros list*
%AMRoundRect*
0 Rectangle with rounded corners*
0 $1 Rounding radius*
0 $2 $3 $4 $5 $6 $7 $8 $9 X,Y pos of 4 corners*
0 Add a 4 corners polygon primitive as box body*
4,1,4,$2,$3,$4,$5,$6,$7,$8,$9,$2,$3,0*
0 Add four circle primitives for the rounded corners*
1,1,$1+$1,$2,$3*
1,1,$1+$1,$4,$5*
1,1,$1+$1,$6,$7*
1,1,$1+$1,$8,$9*
0 Add four rect primitives between the rounded corners*
20,1,$1+$1,$2,$3,$4,$5,0*
20,1,$1+$1,$4,$5,$6,$7,0*
20,1,$1+$1,$6,$7,$8,$9,0*
20,1,$1+$1,$8,$9,$2,$3,0*%
G04 Aperture macros list end*
%ADD10RoundRect,0.250000X0.475000X-0.250000X0.475000X0.250000X-0.475000X0.250000X-0.475000X-0.250000X0*%
%ADD11RoundRect,0.250000X-0.250000X-0.475000X0.250000X-0.475000X0.250000X0.475000X-0.250000X0.475000X0*%
%ADD12RoundRect,0.218750X0.218750X0.256250X-0.218750X0.256250X-0.218750X-0.256250X0.218750X-0.256250X0*%
%ADD13RoundRect,0.039130X0.557870X0.240370X-0.557870X0.240370X-0.557870X-0.240370X0.557870X-0.240370X0*%
%ADD14RoundRect,0.250000X-0.475000X0.250000X-0.475000X-0.250000X0.475000X-0.250000X0.475000X0.250000X0*%
%ADD15RoundRect,0.200000X-0.200000X-0.275000X0.200000X-0.275000X0.200000X0.275000X-0.200000X0.275000X0*%
%ADD16RoundRect,0.218750X-0.218750X-0.256250X0.218750X-0.256250X0.218750X0.256250X-0.218750X0.256250X0*%
%ADD17RoundRect,0.150000X-0.150000X0.675000X-0.150000X-0.675000X0.150000X-0.675000X0.150000X0.675000X0*%
%ADD18RoundRect,0.200000X0.275000X-0.200000X0.275000X0.200000X-0.275000X0.200000X-0.275000X-0.200000X0*%
%ADD19RoundRect,0.200000X-0.275000X0.200000X-0.275000X-0.200000X0.275000X-0.200000X0.275000X0.200000X0*%
%ADD20R,1.500000X1.500000*%
%ADD21RoundRect,0.250000X0.250000X0.475000X-0.250000X0.475000X-0.250000X-0.475000X0.250000X-0.475000X0*%
%ADD22RoundRect,0.011200X-0.733800X-0.128800X0.733800X-0.128800X0.733800X0.128800X-0.733800X0.128800X0*%
%ADD23RoundRect,0.011200X0.128800X-0.733800X0.128800X0.733800X-0.128800X0.733800X-0.128800X-0.733800X0*%
%ADD24RoundRect,0.218750X-0.256250X0.218750X-0.256250X-0.218750X0.256250X-0.218750X0.256250X0.218750X0*%
%ADD25RoundRect,0.042000X0.748000X0.258000X-0.748000X0.258000X-0.748000X-0.258000X0.748000X-0.258000X0*%
%ADD26RoundRect,0.200000X0.200000X0.275000X-0.200000X0.275000X-0.200000X-0.275000X0.200000X-0.275000X0*%
%ADD27R,1.500000X2.000000*%
%ADD28R,3.800000X2.000000*%
%ADD29RoundRect,0.250000X0.400000X0.625000X-0.400000X0.625000X-0.400000X-0.625000X0.400000X-0.625000X0*%
%ADD30RoundRect,0.150000X-0.150000X0.587500X-0.150000X-0.587500X0.150000X-0.587500X0.150000X0.587500X0*%
G04 APERTURE END LIST*
D10*
%TO.C,C9*%
X165132000Y-129488000D03*
X165132000Y-127588000D03*
%TD*%
D11*
%TO.C,C7*%
X174232000Y-143764000D03*
X176132000Y-143764000D03*
%TD*%
D12*
%TO.C,D3*%
X142087700Y-110413800D03*
X140512700Y-110413800D03*
%TD*%
D10*
%TO.C,C10*%
X163152000Y-129488000D03*
X163152000Y-127588000D03*
%TD*%
D13*
%TO.C,Q4*%
X145595400Y-123951400D03*
X145595400Y-122681400D03*
X145595400Y-121411400D03*
X145595400Y-120141400D03*
X140541400Y-120141400D03*
X140541400Y-121411400D03*
X140541400Y-122681400D03*
X140541400Y-123951400D03*
%TD*%
D14*
%TO.C,C1*%
X183420000Y-124232000D03*
X183420000Y-126132000D03*
%TD*%
D15*
%TO.C,R9*%
X151727600Y-131204200D03*
X153377600Y-131204200D03*
%TD*%
D16*
%TO.C,D5*%
X140563500Y-127330200D03*
X142138500Y-127330200D03*
%TD*%
D11*
%TO.C,C8*%
X171614000Y-120610000D03*
X173514000Y-120610000D03*
%TD*%
%TO.C,C5*%
X143550000Y-142000000D03*
X145450000Y-142000000D03*
%TD*%
D17*
%TO.C,U4*%
X153035000Y-133138000D03*
X151765000Y-133138000D03*
X150495000Y-133138000D03*
X149225000Y-133138000D03*
X149225000Y-138388000D03*
X150495000Y-138388000D03*
X151765000Y-138388000D03*
X153035000Y-138388000D03*
%TD*%
D18*
%TO.C,R11*%
X174276000Y-118895000D03*
X174276000Y-117245000D03*
%TD*%
D19*
%TO.C,R1*%
X157962600Y-132017000D03*
X157962600Y-133667000D03*
%TD*%
D16*
%TO.C,D4*%
X140563500Y-112141000D03*
X142138500Y-112141000D03*
%TD*%
D20*
%TO.C,Reset1*%
X178900000Y-147000000D03*
X171100000Y-147000000D03*
%TD*%
D15*
%TO.C,R4*%
X164475400Y-142351800D03*
X166125400Y-142351800D03*
%TD*%
D21*
%TO.C,C12*%
X166225000Y-144155200D03*
X164325000Y-144155200D03*
%TD*%
D22*
%TO.C,U1*%
X170830000Y-124750000D03*
X170830000Y-125250000D03*
X170830000Y-125750000D03*
X170830000Y-126250000D03*
X170830000Y-126750000D03*
X170830000Y-127250000D03*
X170830000Y-127750000D03*
X170830000Y-128250000D03*
X170830000Y-128750000D03*
X170830000Y-129250000D03*
X170830000Y-129750000D03*
X170830000Y-130250000D03*
D23*
X172250000Y-131670000D03*
X172750000Y-131670000D03*
X173250000Y-131670000D03*
X173750000Y-131670000D03*
X174250000Y-131670000D03*
X174750000Y-131670000D03*
X175250000Y-131670000D03*
X175750000Y-131670000D03*
X176250000Y-131670000D03*
X176750000Y-131670000D03*
X177250000Y-131670000D03*
X177750000Y-131670000D03*
D22*
X179170000Y-130250000D03*
X179170000Y-129750000D03*
X179170000Y-129250000D03*
X179170000Y-128750000D03*
X179170000Y-128250000D03*
X179170000Y-127750000D03*
X179170000Y-127250000D03*
X179170000Y-126750000D03*
X179170000Y-126250000D03*
X179170000Y-125750000D03*
X179170000Y-125250000D03*
X179170000Y-124750000D03*
D23*
X177750000Y-123330000D03*
X177250000Y-123330000D03*
X176750000Y-123330000D03*
X176250000Y-123330000D03*
X175750000Y-123330000D03*
X175250000Y-123330000D03*
X174750000Y-123330000D03*
X174250000Y-123330000D03*
X173750000Y-123330000D03*
X173250000Y-123330000D03*
X172750000Y-123330000D03*
X172250000Y-123330000D03*
%TD*%
D13*
%TO.C,Q3*%
X145527000Y-117905000D03*
X145527000Y-116635000D03*
X145527000Y-115365000D03*
X145527000Y-114095000D03*
X140473000Y-114095000D03*
X140473000Y-115365000D03*
X140473000Y-116635000D03*
X140473000Y-117905000D03*
%TD*%
D21*
%TO.C,C6*%
X140450000Y-142000000D03*
X138550000Y-142000000D03*
%TD*%
%TO.C,C2*%
X178528000Y-135342000D03*
X176628000Y-135342000D03*
%TD*%
D15*
%TO.C,R8*%
X151752800Y-129413000D03*
X153402800Y-129413000D03*
%TD*%
D11*
%TO.C,C13*%
X162089800Y-137754400D03*
X163989800Y-137754400D03*
%TD*%
D21*
%TO.C,C11*%
X154476252Y-110501252D03*
X152576252Y-110501252D03*
%TD*%
D11*
%TO.C,C14*%
X192598000Y-107442000D03*
X194498000Y-107442000D03*
%TD*%
D24*
%TO.C,D2*%
X212000000Y-145212500D03*
X212000000Y-146787500D03*
%TD*%
D25*
%TO.C,U6*%
X154770900Y-123900600D03*
X154770900Y-122630600D03*
X154770900Y-121360600D03*
X154770900Y-120090600D03*
X149430900Y-120090600D03*
X149430900Y-121360600D03*
X149430900Y-122630600D03*
X149430900Y-123900600D03*
%TD*%
D14*
%TO.C,C17*%
X135864600Y-118125200D03*
X135864600Y-120025200D03*
%TD*%
D26*
%TO.C,R5*%
X179309000Y-143830400D03*
X177659000Y-143830400D03*
%TD*%
D24*
%TO.C,D1*%
X213549400Y-145237900D03*
X213549400Y-146812900D03*
%TD*%
D26*
%TO.C,R3*%
X215288800Y-148286000D03*
X213638800Y-148286000D03*
%TD*%
D14*
%TO.C,C3*%
X156184600Y-135016200D03*
X156184600Y-136916200D03*
%TD*%
D21*
%TO.C,C16*%
X161950000Y-111000000D03*
X160050000Y-111000000D03*
%TD*%
D27*
%TO.C,U2*%
X138700000Y-139150000D03*
X141000000Y-139150000D03*
D28*
X141000000Y-132850000D03*
D27*
X143300000Y-139150000D03*
%TD*%
D15*
%TO.C,R10*%
X210260600Y-148209800D03*
X211910600Y-148209800D03*
%TD*%
D29*
%TO.C,R7*%
X150038400Y-130835400D03*
X146938400Y-130835400D03*
%TD*%
D30*
%TO.C,Q1*%
X164015200Y-139839500D03*
X162115200Y-139839500D03*
X163065200Y-141714500D03*
%TD*%
D15*
%TO.C,R6*%
X162240200Y-136001800D03*
X163890200Y-136001800D03*
%TD*%
D30*
%TO.C,Q2*%
X167342600Y-137883700D03*
X165442600Y-137883700D03*
X166392600Y-139758700D03*
%TD*%
D10*
%TO.C,C15*%
X214078000Y-140480000D03*
X214078000Y-138580000D03*
%TD*%
D25*
%TO.C,U5*%
X154670000Y-117955800D03*
X154670000Y-116685800D03*
X154670000Y-115415800D03*
X154670000Y-114145800D03*
X149330000Y-114145800D03*
X149330000Y-115415800D03*
X149330000Y-116685800D03*
X149330000Y-117955800D03*
%TD*%
D19*
%TO.C,R2*%
X157957600Y-135022200D03*
X157957600Y-136672200D03*
%TD*%
D10*
%TO.C,C4*%
X167132000Y-129488000D03*
X167132000Y-127588000D03*
%TD*%
D12*
%TO.C,D6*%
X142138500Y-125476000D03*
X140563500Y-125476000D03*
%TD*%
M02*
