%TF.GenerationSoftware,KiCad,Pcbnew,(6.0.11)*%
%TF.CreationDate,2023-08-09T22:56:24+02:00*%
%TF.ProjectId,Voiture_RC,566f6974-7572-4655-9f52-432e6b696361,rev?*%
%TF.SameCoordinates,Original*%
%TF.FileFunction,Legend,Bot*%
%TF.FilePolarity,Positive*%
%FSLAX46Y46*%
G04 Gerber Fmt 4.6, Leading zero omitted, Abs format (unit mm)*
G04 Created by KiCad (PCBNEW (6.0.11)) date 2023-08-09 22:56:24*
%MOMM*%
%LPD*%
G01*
G04 APERTURE LIST*
%ADD10C,0.500000*%
%ADD11C,0.150000*%
%ADD12C,0.300000*%
G04 APERTURE END LIST*
D10*
X185042857Y-115242857D02*
X184042857Y-115242857D01*
X183614285Y-117861904D02*
X185042857Y-117861904D01*
X185042857Y-112861904D01*
X183614285Y-112861904D01*
X181900000Y-117861904D02*
X182185714Y-117623809D01*
X182328571Y-117147619D01*
X182328571Y-112861904D01*
X179614285Y-117623809D02*
X179900000Y-117861904D01*
X180471428Y-117861904D01*
X180757142Y-117623809D01*
X180900000Y-117147619D01*
X180900000Y-115242857D01*
X180757142Y-114766666D01*
X180471428Y-114528571D01*
X179900000Y-114528571D01*
X179614285Y-114766666D01*
X179471428Y-115242857D01*
X179471428Y-115719047D01*
X180900000Y-116195238D01*
X176900000Y-117623809D02*
X177185714Y-117861904D01*
X177757142Y-117861904D01*
X178042857Y-117623809D01*
X178185714Y-117385714D01*
X178328571Y-116909523D01*
X178328571Y-115480952D01*
X178185714Y-115004761D01*
X178042857Y-114766666D01*
X177757142Y-114528571D01*
X177185714Y-114528571D01*
X176900000Y-114766666D01*
X176042857Y-114528571D02*
X174900000Y-114528571D01*
X175614285Y-112861904D02*
X175614285Y-117147619D01*
X175471428Y-117623809D01*
X175185714Y-117861904D01*
X174900000Y-117861904D01*
X173900000Y-117861904D02*
X173900000Y-114528571D01*
X173900000Y-115480952D02*
X173757142Y-115004761D01*
X173614285Y-114766666D01*
X173328571Y-114528571D01*
X173042857Y-114528571D01*
X171614285Y-117861904D02*
X171900000Y-117623809D01*
X172042857Y-117385714D01*
X172185714Y-116909523D01*
X172185714Y-115480952D01*
X172042857Y-115004761D01*
X171900000Y-114766666D01*
X171614285Y-114528571D01*
X171185714Y-114528571D01*
X170900000Y-114766666D01*
X170757142Y-115004761D01*
X170614285Y-115480952D01*
X170614285Y-116909523D01*
X170757142Y-117385714D01*
X170900000Y-117623809D01*
X171185714Y-117861904D01*
X171614285Y-117861904D01*
X169757142Y-112861904D02*
X169614285Y-113100000D01*
X169757142Y-113338095D01*
X169900000Y-113100000D01*
X169757142Y-112861904D01*
X169757142Y-113338095D01*
X168614285Y-112861904D02*
X168471428Y-113100000D01*
X168614285Y-113338095D01*
X168757142Y-113100000D01*
X168614285Y-112861904D01*
X168614285Y-113338095D01*
X169185714Y-117861904D02*
X169185714Y-114528571D01*
X166328571Y-117861904D02*
X166328571Y-112861904D01*
X166328571Y-117623809D02*
X166614285Y-117861904D01*
X167185714Y-117861904D01*
X167471428Y-117623809D01*
X167614285Y-117385714D01*
X167757142Y-116909523D01*
X167757142Y-115480952D01*
X167614285Y-115004761D01*
X167471428Y-114766666D01*
X167185714Y-114528571D01*
X166614285Y-114528571D01*
X166328571Y-114766666D01*
X163757142Y-117623809D02*
X164042857Y-117861904D01*
X164614285Y-117861904D01*
X164900000Y-117623809D01*
X165042857Y-117147619D01*
X165042857Y-115242857D01*
X164900000Y-114766666D01*
X164614285Y-114528571D01*
X164042857Y-114528571D01*
X163757142Y-114766666D01*
X163614285Y-115242857D01*
X163614285Y-115719047D01*
X165042857Y-116195238D01*
D11*
X141619047Y-107747619D02*
X141571428Y-107700000D01*
X141476190Y-107652380D01*
X141238095Y-107652380D01*
X141142857Y-107700000D01*
X141095238Y-107747619D01*
X141047619Y-107842857D01*
X141047619Y-107938095D01*
X141095238Y-108080952D01*
X141666666Y-108652380D01*
X141047619Y-108652380D01*
X140666666Y-107747619D02*
X140619047Y-107700000D01*
X140523809Y-107652380D01*
X140285714Y-107652380D01*
X140190476Y-107700000D01*
X140142857Y-107747619D01*
X140095238Y-107842857D01*
X140095238Y-107938095D01*
X140142857Y-108080952D01*
X140714285Y-108652380D01*
X140095238Y-108652380D01*
X139666666Y-108271428D02*
X138904761Y-108271428D01*
X138238095Y-107652380D02*
X138142857Y-107652380D01*
X138047619Y-107700000D01*
X138000000Y-107747619D01*
X137952380Y-107842857D01*
X137904761Y-108033333D01*
X137904761Y-108271428D01*
X137952380Y-108461904D01*
X138000000Y-108557142D01*
X138047619Y-108604761D01*
X138142857Y-108652380D01*
X138238095Y-108652380D01*
X138333333Y-108604761D01*
X138380952Y-108557142D01*
X138428571Y-108461904D01*
X138476190Y-108271428D01*
X138476190Y-108033333D01*
X138428571Y-107842857D01*
X138380952Y-107747619D01*
X138333333Y-107700000D01*
X138238095Y-107652380D01*
X137285714Y-107652380D02*
X137190476Y-107652380D01*
X137095238Y-107700000D01*
X137047619Y-107747619D01*
X137000000Y-107842857D01*
X136952380Y-108033333D01*
X136952380Y-108271428D01*
X137000000Y-108461904D01*
X137047619Y-108557142D01*
X137095238Y-108604761D01*
X137190476Y-108652380D01*
X137285714Y-108652380D01*
X137380952Y-108604761D01*
X137428571Y-108557142D01*
X137476190Y-108461904D01*
X137523809Y-108271428D01*
X137523809Y-108033333D01*
X137476190Y-107842857D01*
X137428571Y-107747619D01*
X137380952Y-107700000D01*
X137285714Y-107652380D01*
X136380952Y-108080952D02*
X136476190Y-108033333D01*
X136523809Y-107985714D01*
X136571428Y-107890476D01*
X136571428Y-107842857D01*
X136523809Y-107747619D01*
X136476190Y-107700000D01*
X136380952Y-107652380D01*
X136190476Y-107652380D01*
X136095238Y-107700000D01*
X136047619Y-107747619D01*
X136000000Y-107842857D01*
X136000000Y-107890476D01*
X136047619Y-107985714D01*
X136095238Y-108033333D01*
X136190476Y-108080952D01*
X136380952Y-108080952D01*
X136476190Y-108128571D01*
X136523809Y-108176190D01*
X136571428Y-108271428D01*
X136571428Y-108461904D01*
X136523809Y-108557142D01*
X136476190Y-108604761D01*
X136380952Y-108652380D01*
X136190476Y-108652380D01*
X136095238Y-108604761D01*
X136047619Y-108557142D01*
X136000000Y-108461904D01*
X136000000Y-108271428D01*
X136047619Y-108176190D01*
X136095238Y-108128571D01*
X136190476Y-108080952D01*
X135809523Y-108747619D02*
X135047619Y-108747619D01*
X134857142Y-108366666D02*
X134380952Y-108366666D01*
X134952380Y-108652380D02*
X134619047Y-107652380D01*
X134285714Y-108652380D01*
D12*
X182161904Y-125542142D02*
X181495238Y-128542142D01*
X180828571Y-125542142D01*
X179876190Y-128542142D02*
X180066666Y-128399285D01*
X180161904Y-128256428D01*
X180257142Y-127970714D01*
X180257142Y-127113571D01*
X180161904Y-126827857D01*
X180066666Y-126685000D01*
X179876190Y-126542142D01*
X179590476Y-126542142D01*
X179400000Y-126685000D01*
X179304761Y-126827857D01*
X179209523Y-127113571D01*
X179209523Y-127970714D01*
X179304761Y-128256428D01*
X179400000Y-128399285D01*
X179590476Y-128542142D01*
X179876190Y-128542142D01*
X178352380Y-128542142D02*
X178352380Y-126542142D01*
X178352380Y-125542142D02*
X178447619Y-125685000D01*
X178352380Y-125827857D01*
X178257142Y-125685000D01*
X178352380Y-125542142D01*
X178352380Y-125827857D01*
X177685714Y-126542142D02*
X176923809Y-126542142D01*
X177400000Y-125542142D02*
X177400000Y-128113571D01*
X177304761Y-128399285D01*
X177114285Y-128542142D01*
X176923809Y-128542142D01*
X175400000Y-126542142D02*
X175400000Y-128542142D01*
X176257142Y-126542142D02*
X176257142Y-128113571D01*
X176161904Y-128399285D01*
X175971428Y-128542142D01*
X175685714Y-128542142D01*
X175495238Y-128399285D01*
X175400000Y-128256428D01*
X174447619Y-128542142D02*
X174447619Y-126542142D01*
X174447619Y-127113571D02*
X174352380Y-126827857D01*
X174257142Y-126685000D01*
X174066666Y-126542142D01*
X173876190Y-126542142D01*
X172447619Y-128399285D02*
X172638095Y-128542142D01*
X173019047Y-128542142D01*
X173209523Y-128399285D01*
X173304761Y-128113571D01*
X173304761Y-126970714D01*
X173209523Y-126685000D01*
X173019047Y-126542142D01*
X172638095Y-126542142D01*
X172447619Y-126685000D01*
X172352380Y-126970714D01*
X172352380Y-127256428D01*
X173304761Y-127542142D01*
X168828571Y-128542142D02*
X169495238Y-127113571D01*
X169971428Y-128542142D02*
X169971428Y-125542142D01*
X169209523Y-125542142D01*
X169019047Y-125685000D01*
X168923809Y-125827857D01*
X168828571Y-126113571D01*
X168828571Y-126542142D01*
X168923809Y-126827857D01*
X169019047Y-126970714D01*
X169209523Y-127113571D01*
X169971428Y-127113571D01*
X166828571Y-128256428D02*
X166923809Y-128399285D01*
X167209523Y-128542142D01*
X167400000Y-128542142D01*
X167685714Y-128399285D01*
X167876190Y-128113571D01*
X167971428Y-127827857D01*
X168066666Y-127256428D01*
X168066666Y-126827857D01*
X167971428Y-126256428D01*
X167876190Y-125970714D01*
X167685714Y-125685000D01*
X167400000Y-125542142D01*
X167209523Y-125542142D01*
X166923809Y-125685000D01*
X166828571Y-125827857D01*
X176542857Y-133372142D02*
X177209523Y-131943571D01*
X177685714Y-133372142D02*
X177685714Y-130372142D01*
X176923809Y-130372142D01*
X176733333Y-130515000D01*
X176638095Y-130657857D01*
X176542857Y-130943571D01*
X176542857Y-131372142D01*
X176638095Y-131657857D01*
X176733333Y-131800714D01*
X176923809Y-131943571D01*
X177685714Y-131943571D01*
X175019047Y-131800714D02*
X175685714Y-131800714D01*
X175685714Y-133372142D02*
X175685714Y-130372142D01*
X174733333Y-130372142D01*
X174066666Y-130657857D02*
X173971428Y-130515000D01*
X173780952Y-130372142D01*
X173304761Y-130372142D01*
X173114285Y-130515000D01*
X173019047Y-130657857D01*
X172923809Y-130943571D01*
X172923809Y-131229285D01*
X173019047Y-131657857D01*
X174161904Y-133372142D01*
X172923809Y-133372142D01*
X171209523Y-131372142D02*
X171209523Y-133372142D01*
X171685714Y-130229285D02*
X172161904Y-132372142D01*
X170923809Y-132372142D01*
M02*
