%TF.GenerationSoftware,KiCad,Pcbnew,(6.0.11)*%
%TF.CreationDate,2023-08-09T22:56:24+02:00*%
%TF.ProjectId,Voiture_RC,566f6974-7572-4655-9f52-432e6b696361,rev?*%
%TF.SameCoordinates,Original*%
%TF.FileFunction,Soldermask,Bot*%
%TF.FilePolarity,Negative*%
%FSLAX46Y46*%
G04 Gerber Fmt 4.6, Leading zero omitted, Abs format (unit mm)*
G04 Created by KiCad (PCBNEW (6.0.11)) date 2023-08-09 22:56:24*
%MOMM*%
%LPD*%
G01*
G04 APERTURE LIST*
G04 Aperture macros list*
%AMRoundRect*
0 Rectangle with rounded corners*
0 $1 Rounding radius*
0 $2 $3 $4 $5 $6 $7 $8 $9 X,Y pos of 4 corners*
0 Add a 4 corners polygon primitive as box body*
4,1,4,$2,$3,$4,$5,$6,$7,$8,$9,$2,$3,0*
0 Add four circle primitives for the rounded corners*
1,1,$1+$1,$2,$3*
1,1,$1+$1,$4,$5*
1,1,$1+$1,$6,$7*
1,1,$1+$1,$8,$9*
0 Add four rect primitives between the rounded corners*
20,1,$1+$1,$2,$3,$4,$5,0*
20,1,$1+$1,$4,$5,$6,$7,0*
20,1,$1+$1,$6,$7,$8,$9,0*
20,1,$1+$1,$8,$9,$2,$3,0*%
G04 Aperture macros list end*
%ADD10R,1.700000X1.700000*%
%ADD11O,1.700000X1.700000*%
%ADD12RoundRect,0.250000X-0.600000X-0.725000X0.600000X-0.725000X0.600000X0.725000X-0.600000X0.725000X0*%
%ADD13O,1.700000X1.950000*%
%ADD14C,1.700000*%
G04 APERTURE END LIST*
D10*
%TO.C,J4*%
X164000000Y-147000000D03*
D11*
X166540000Y-147000000D03*
%TD*%
D10*
%TO.C,J3*%
X152000000Y-108000000D03*
D11*
X154540000Y-108000000D03*
%TD*%
D12*
%TO.C,J8*%
X194500000Y-147000000D03*
D13*
X197000000Y-147000000D03*
X199500000Y-147000000D03*
X202000000Y-147000000D03*
%TD*%
D10*
%TO.C,J5*%
X142540000Y-147000000D03*
D11*
X140000000Y-147000000D03*
X137460000Y-147000000D03*
X134920000Y-147000000D03*
%TD*%
D10*
%TO.C,J2*%
X159350000Y-147000000D03*
D11*
X156810000Y-147000000D03*
X154270000Y-147000000D03*
X151730000Y-147000000D03*
X149190000Y-147000000D03*
X146650000Y-147000000D03*
%TD*%
D10*
%TO.C,U3*%
X187770000Y-107285000D03*
D14*
X190310000Y-107285000D03*
X187770000Y-109825000D03*
X190310000Y-109825000D03*
X187770000Y-112365000D03*
X190310000Y-112365000D03*
X187770000Y-114905000D03*
X190310000Y-114905000D03*
%TD*%
D12*
%TO.C,J10*%
X170000000Y-107700000D03*
D13*
X172500000Y-107700000D03*
X175000000Y-107700000D03*
X177500000Y-107700000D03*
X180000000Y-107700000D03*
%TD*%
D10*
%TO.C,J7*%
X160000000Y-108000000D03*
D11*
X162540000Y-108000000D03*
%TD*%
D10*
%TO.C,J6*%
X217000000Y-140800000D03*
D11*
X217000000Y-138260000D03*
X217000000Y-135720000D03*
X217000000Y-133180000D03*
%TD*%
D10*
%TO.C,J9*%
X133080100Y-115249200D03*
D11*
X133080100Y-117789200D03*
X133080100Y-120329200D03*
X133080100Y-122869200D03*
%TD*%
D10*
%TO.C,J1*%
X188790000Y-147300000D03*
D11*
X186250000Y-147300000D03*
X183710000Y-147300000D03*
%TD*%
M02*
