%TF.GenerationSoftware,KiCad,Pcbnew,(6.0.11)*%
%TF.CreationDate,2023-08-09T22:56:24+02:00*%
%TF.ProjectId,Voiture_RC,566f6974-7572-4655-9f52-432e6b696361,rev?*%
%TF.SameCoordinates,Original*%
%TF.FileFunction,Copper,L2,Bot*%
%TF.FilePolarity,Positive*%
%FSLAX46Y46*%
G04 Gerber Fmt 4.6, Leading zero omitted, Abs format (unit mm)*
G04 Created by KiCad (PCBNEW (6.0.11)) date 2023-08-09 22:56:24*
%MOMM*%
%LPD*%
G01*
G04 APERTURE LIST*
G04 Aperture macros list*
%AMRoundRect*
0 Rectangle with rounded corners*
0 $1 Rounding radius*
0 $2 $3 $4 $5 $6 $7 $8 $9 X,Y pos of 4 corners*
0 Add a 4 corners polygon primitive as box body*
4,1,4,$2,$3,$4,$5,$6,$7,$8,$9,$2,$3,0*
0 Add four circle primitives for the rounded corners*
1,1,$1+$1,$2,$3*
1,1,$1+$1,$4,$5*
1,1,$1+$1,$6,$7*
1,1,$1+$1,$8,$9*
0 Add four rect primitives between the rounded corners*
20,1,$1+$1,$2,$3,$4,$5,0*
20,1,$1+$1,$4,$5,$6,$7,0*
20,1,$1+$1,$6,$7,$8,$9,0*
20,1,$1+$1,$8,$9,$2,$3,0*%
G04 Aperture macros list end*
%TA.AperFunction,ComponentPad*%
%ADD10R,1.700000X1.700000*%
%TD*%
%TA.AperFunction,ComponentPad*%
%ADD11O,1.700000X1.700000*%
%TD*%
%TA.AperFunction,ComponentPad*%
%ADD12RoundRect,0.250000X-0.600000X-0.725000X0.600000X-0.725000X0.600000X0.725000X-0.600000X0.725000X0*%
%TD*%
%TA.AperFunction,ComponentPad*%
%ADD13O,1.700000X1.950000*%
%TD*%
%TA.AperFunction,ComponentPad*%
%ADD14C,1.700000*%
%TD*%
%TA.AperFunction,ViaPad*%
%ADD15C,3.000000*%
%TD*%
%TA.AperFunction,ViaPad*%
%ADD16C,0.400000*%
%TD*%
%TA.AperFunction,ViaPad*%
%ADD17C,1.000000*%
%TD*%
%TA.AperFunction,Conductor*%
%ADD18C,1.400000*%
%TD*%
%TA.AperFunction,Conductor*%
%ADD19C,0.800000*%
%TD*%
%TA.AperFunction,Conductor*%
%ADD20C,0.200000*%
%TD*%
%TA.AperFunction,Conductor*%
%ADD21C,0.400000*%
%TD*%
G04 APERTURE END LIST*
D10*
%TO.P,J4,1,Pin_1*%
%TO.N,GND*%
X164000000Y-147000000D03*
D11*
%TO.P,J4,2,Pin_2*%
%TO.N,Net-(C12-Pad1)*%
X166540000Y-147000000D03*
%TD*%
D10*
%TO.P,J3,1,Pin_1*%
%TO.N,GND*%
X152000000Y-108000000D03*
D11*
%TO.P,J3,2,Pin_2*%
%TO.N,/led_recule*%
X154540000Y-108000000D03*
%TD*%
D12*
%TO.P,J8,1,Pin_1*%
%TO.N,GND*%
X194500000Y-147000000D03*
D13*
%TO.P,J8,2,Pin_2*%
%TO.N,+3V3*%
X197000000Y-147000000D03*
%TO.P,J8,3,Pin_3*%
%TO.N,/DBG_Tx*%
X199500000Y-147000000D03*
%TO.P,J8,4,Pin_4*%
%TO.N,/DBG_Rx*%
X202000000Y-147000000D03*
%TD*%
D10*
%TO.P,J5,1,Pin_1*%
%TO.N,+BATT*%
X142540000Y-147000000D03*
D11*
%TO.P,J5,2,Pin_2*%
X140000000Y-147000000D03*
%TO.P,J5,3,Pin_3*%
%TO.N,GND*%
X137460000Y-147000000D03*
%TO.P,J5,4,Pin_4*%
X134920000Y-147000000D03*
%TD*%
D10*
%TO.P,J2,1,Pin_1*%
%TO.N,/PA11*%
X159350000Y-147000000D03*
D11*
%TO.P,J2,2,Pin_2*%
%TO.N,/PA7*%
X156810000Y-147000000D03*
%TO.P,J2,3,Pin_3*%
%TO.N,/PA6*%
X154270000Y-147000000D03*
%TO.P,J2,4,Pin_4*%
%TO.N,/PA5*%
X151730000Y-147000000D03*
%TO.P,J2,5,Pin_5*%
%TO.N,+3V3*%
X149190000Y-147000000D03*
%TO.P,J2,6,Pin_6*%
%TO.N,GND*%
X146650000Y-147000000D03*
%TD*%
D10*
%TO.P,U3,1,GND*%
%TO.N,GND*%
X187770000Y-107285000D03*
D14*
%TO.P,U3,2,VCC*%
%TO.N,+3V3*%
X190310000Y-107285000D03*
%TO.P,U3,3,CE*%
%TO.N,/CE*%
X187770000Y-109825000D03*
%TO.P,U3,4,~{CSN}*%
%TO.N,/CSN*%
X190310000Y-109825000D03*
%TO.P,U3,5,SCK*%
%TO.N,/SCK*%
X187770000Y-112365000D03*
%TO.P,U3,6,MOSI*%
%TO.N,/MOSI*%
X190310000Y-112365000D03*
%TO.P,U3,7,MISO*%
%TO.N,/MISO*%
X187770000Y-114905000D03*
%TO.P,U3,8,IRQ*%
%TO.N,/IRQ*%
X190310000Y-114905000D03*
%TD*%
D12*
%TO.P,J10,1,Pin_1*%
%TO.N,GND*%
X170000000Y-107700000D03*
D13*
%TO.P,J10,2,Pin_2*%
%TO.N,+3V3*%
X172500000Y-107700000D03*
%TO.P,J10,3,Pin_3*%
%TO.N,/RST*%
X175000000Y-107700000D03*
%TO.P,J10,4,Pin_4*%
%TO.N,/SWDCLK*%
X177500000Y-107700000D03*
%TO.P,J10,5,Pin_5*%
%TO.N,/SWDIO*%
X180000000Y-107700000D03*
%TD*%
D10*
%TO.P,J7,1,Pin_1*%
%TO.N,GND*%
X160000000Y-108000000D03*
D11*
%TO.P,J7,2,Pin_2*%
%TO.N,/led_feu_stop*%
X162540000Y-108000000D03*
%TD*%
D10*
%TO.P,J6,1,Pin_1*%
%TO.N,+3V3*%
X217000000Y-140800000D03*
D11*
%TO.P,J6,2,Pin_2*%
%TO.N,GND*%
X217000000Y-138260000D03*
%TO.P,J6,3,Pin_3*%
%TO.N,/SCL*%
X217000000Y-135720000D03*
%TO.P,J6,4,Pin_4*%
%TO.N,/SDA*%
X217000000Y-133180000D03*
%TD*%
D10*
%TO.P,J9,1,Pin_1*%
%TO.N,Net-(J9-Pad1)*%
X133080100Y-115249200D03*
D11*
%TO.P,J9,2,Pin_2*%
X133080100Y-117789200D03*
%TO.P,J9,3,Pin_3*%
%TO.N,Net-(J9-Pad3)*%
X133080100Y-120329200D03*
%TO.P,J9,4,Pin_4*%
X133080100Y-122869200D03*
%TD*%
D10*
%TO.P,J1,1,Pin_1*%
%TO.N,+3V3*%
X188790000Y-147300000D03*
D11*
%TO.P,J1,2,Pin_2*%
%TO.N,/direction*%
X186250000Y-147300000D03*
%TO.P,J1,3,Pin_3*%
%TO.N,GND*%
X183710000Y-147300000D03*
%TD*%
D15*
%TO.N,*%
X204500000Y-127500000D03*
X146500000Y-127500000D03*
D16*
%TO.N,+3V3*%
X161493200Y-128625600D03*
X181052000Y-142748000D03*
D17*
X170586400Y-142748000D03*
X158572200Y-141681200D03*
X167589200Y-141274800D03*
D16*
%TO.N,GND*%
X180400000Y-148800000D03*
X171400000Y-118600000D03*
X178800000Y-109200000D03*
X150200000Y-135200000D03*
X172000000Y-136000000D03*
X194200000Y-134800000D03*
X151200000Y-143600000D03*
X195000000Y-128400000D03*
X162800000Y-132000000D03*
X196400000Y-121200000D03*
X205800000Y-106800000D03*
X145200000Y-109600000D03*
X208600000Y-144800000D03*
X171400000Y-112000000D03*
X131200000Y-117200000D03*
X157000000Y-118200000D03*
X182000000Y-140600000D03*
X151800000Y-115400000D03*
X198600000Y-142800000D03*
X144000000Y-130200000D03*
X169000000Y-149000000D03*
X177000000Y-137200000D03*
X174800000Y-126000000D03*
X168800000Y-136200000D03*
X146400000Y-111800000D03*
X180400000Y-138000000D03*
X165400000Y-125600000D03*
X153000000Y-144000000D03*
X217000000Y-148200000D03*
X132000000Y-144400000D03*
X201000000Y-107000000D03*
X192600000Y-111000000D03*
X154400000Y-136600000D03*
X201400000Y-122200000D03*
X199000000Y-126200000D03*
X185800000Y-107000000D03*
X216200000Y-144400000D03*
X211600000Y-139200000D03*
X196800000Y-134200000D03*
X153200000Y-106200000D03*
X196400000Y-107200000D03*
X166400000Y-136200000D03*
X136200000Y-136400000D03*
X189200000Y-144800000D03*
X146000000Y-144400000D03*
X168000000Y-120600000D03*
X175000000Y-127600000D03*
X191200000Y-141800000D03*
X161800000Y-144400000D03*
X210400000Y-127600000D03*
X183600000Y-108200000D03*
X151600000Y-140200000D03*
X170600000Y-132400000D03*
X157400000Y-107800000D03*
X210800000Y-132200000D03*
X214800000Y-127800000D03*
X187400000Y-142800000D03*
X205200000Y-117600000D03*
X205400000Y-111400000D03*
X140200000Y-107400000D03*
X185600000Y-119000000D03*
X176400000Y-109600000D03*
X219000000Y-142200000D03*
X210800000Y-136600000D03*
X219200000Y-137800000D03*
X180800000Y-123600000D03*
X132200000Y-132400000D03*
X205600000Y-124200000D03*
X189000000Y-119600000D03*
X172200000Y-144400000D03*
X181800000Y-120000000D03*
X191600000Y-132200000D03*
X200200000Y-140800000D03*
X174200000Y-130000000D03*
X191000000Y-129000000D03*
X212600000Y-142800000D03*
X144800000Y-107200000D03*
X132200000Y-126600000D03*
X148200000Y-137200000D03*
X144800000Y-148800000D03*
X185200000Y-148800000D03*
X192000000Y-147400000D03*
X138400000Y-149200000D03*
X200600000Y-145200000D03*
X187000000Y-131200000D03*
X160800000Y-125600000D03*
X149800000Y-107000000D03*
X167000000Y-115600000D03*
X178800000Y-119200000D03*
X167400000Y-126200000D03*
X136000000Y-107200000D03*
X166800000Y-131400000D03*
X156200000Y-139200000D03*
X175200000Y-135600000D03*
X161200000Y-149000000D03*
X187000000Y-128000000D03*
X163400000Y-116400000D03*
X169800000Y-144600000D03*
X197000000Y-113800000D03*
X203800000Y-149000000D03*
X183800000Y-131200000D03*
X207000000Y-137800000D03*
X132600000Y-108000000D03*
X199400000Y-132200000D03*
X159200000Y-118600000D03*
X137600000Y-112400000D03*
X149000000Y-110200000D03*
X159800000Y-137000000D03*
X136400000Y-141600000D03*
X181800000Y-112000000D03*
X164000000Y-133000000D03*
X161600000Y-122600000D03*
X218400000Y-146000000D03*
X158400000Y-129200000D03*
X187800000Y-123800000D03*
X192800000Y-118400000D03*
X190400000Y-148800000D03*
X200400000Y-136800000D03*
X174200000Y-115400000D03*
X181800000Y-115200000D03*
X165200000Y-107000000D03*
X137400000Y-122800000D03*
X185600000Y-112400000D03*
X173400000Y-140400000D03*
X160600000Y-113800000D03*
X167800000Y-107000000D03*
X132200000Y-137600000D03*
X140800000Y-143600000D03*
X179000000Y-112200000D03*
X175400000Y-148800000D03*
X197400000Y-138200000D03*
X136000000Y-115800000D03*
X205400000Y-132200000D03*
X176800000Y-140800000D03*
X176600000Y-130000000D03*
X164800000Y-149000000D03*
X174600000Y-111000000D03*
X178800000Y-122400000D03*
X196000000Y-143800000D03*
X187600000Y-139600000D03*
X161200000Y-105800000D03*
X148600000Y-112000000D03*
X147600000Y-118800000D03*
X182200000Y-107000000D03*
X169800000Y-139000000D03*
X182800000Y-144800000D03*
X137200000Y-130400000D03*
X204400000Y-144400000D03*
X218800000Y-128600000D03*
X186800000Y-136200000D03*
X145000000Y-139200000D03*
X215000000Y-136400000D03*
X203600000Y-142600000D03*
X197400000Y-149200000D03*
X155000000Y-130600000D03*
X179400000Y-133200000D03*
X181200000Y-131200000D03*
X201000000Y-117600000D03*
X148200000Y-134800000D03*
X151400000Y-126200000D03*
X156600000Y-124600000D03*
X173800000Y-112200000D03*
X158000000Y-111400000D03*
X171400000Y-122800000D03*
X159600000Y-133600000D03*
X178800000Y-115200000D03*
X167400000Y-112000000D03*
X157000000Y-115400000D03*
X192200000Y-123400000D03*
X164600000Y-112000000D03*
X133200000Y-110000000D03*
X132200000Y-141200000D03*
X152600000Y-149200000D03*
X140000000Y-129800000D03*
X218800000Y-133800000D03*
X185000000Y-115400000D03*
X155600000Y-113000000D03*
X183600000Y-138400000D03*
X152000000Y-121600000D03*
%TO.N,/mesure_VBat*%
X163753800Y-134848600D03*
X159435800Y-134950200D03*
D17*
%TO.N,+BATT*%
X144399000Y-121183400D03*
X143281400Y-136753600D03*
X142163800Y-124383800D03*
X144297400Y-115798600D03*
D16*
X156260800Y-132842000D03*
%TO.N,/RST*%
X172237400Y-127736600D03*
X168300400Y-138684000D03*
%TO.N,/PA5*%
X173250000Y-134090000D03*
%TO.N,/PA6*%
X173736000Y-134467600D03*
%TO.N,/SCL*%
X176123600Y-124815600D03*
%TO.N,/SDA*%
X177644366Y-125643688D03*
%TO.N,/led_r*%
X181610000Y-128270000D03*
X183652300Y-128259700D03*
%TO.N,/led_v*%
X183083200Y-129692400D03*
X187274200Y-129717800D03*
%TO.N,/PA7*%
X174294800Y-133807200D03*
%TO.N,/CSN*%
X177241200Y-111633000D03*
%TO.N,/SCK*%
X176682400Y-112979200D03*
%TO.N,/MISO*%
X176174400Y-114681000D03*
%TO.N,/MOSI*%
X175285400Y-114274600D03*
%TO.N,/IRQ*%
X173634400Y-121996200D03*
%TO.N,/CE*%
X173507400Y-124891800D03*
%TO.N,/PA11*%
X177948400Y-126750000D03*
%TD*%
D18*
%TO.N,+3V3*%
X162115500Y-138137900D02*
X169824400Y-130429000D01*
X172500000Y-108151346D02*
X172500000Y-107700000D01*
D19*
X190703200Y-145338800D02*
X188790000Y-147252000D01*
X181052000Y-142748000D02*
X170586400Y-142748000D01*
D20*
X162052000Y-128066800D02*
X169824400Y-128066800D01*
D19*
X202845600Y-140765600D02*
X196645600Y-146965600D01*
D18*
X158572200Y-141681200D02*
X162115500Y-138137900D01*
D19*
X184238000Y-142748000D02*
X181052000Y-142748000D01*
X188790000Y-147300000D02*
X184238000Y-142748000D01*
D20*
X161493200Y-128625600D02*
X162052000Y-128066800D01*
D18*
X169824400Y-130429000D02*
X169824400Y-128066800D01*
D19*
X195732400Y-145338800D02*
X190703200Y-145338800D01*
X216645600Y-140765600D02*
X202845600Y-140765600D01*
X164452300Y-138137900D02*
X162115500Y-138137900D01*
D18*
X169824400Y-128066800D02*
X169824400Y-110826946D01*
X169824400Y-110826946D02*
X172500000Y-108151346D01*
D19*
X197000000Y-146606400D02*
X195732400Y-145338800D01*
X197000000Y-147000000D02*
X197000000Y-146606400D01*
X167589200Y-141274800D02*
X164452300Y-138137900D01*
X188790000Y-147252000D02*
X188790000Y-147300000D01*
D20*
%TO.N,/mesure_VBat*%
X163728400Y-134874000D02*
X159512000Y-134874000D01*
X159512000Y-134874000D02*
X159435800Y-134950200D01*
X163753800Y-134848600D02*
X163728400Y-134874000D01*
X159435800Y-134950200D02*
X159410400Y-134975600D01*
D18*
%TO.N,+BATT*%
X142163800Y-123418600D02*
X142163800Y-124383800D01*
D21*
X156260800Y-132842000D02*
X142392400Y-132842000D01*
D18*
X142163800Y-133070600D02*
X142163800Y-135636000D01*
X144399000Y-121183400D02*
X142163800Y-123418600D01*
X142163800Y-124383800D02*
X142163800Y-133070600D01*
X144297400Y-115798600D02*
X144297400Y-121081800D01*
D21*
X142392400Y-132842000D02*
X142163800Y-133070600D01*
D19*
X144297400Y-121081800D02*
X144399000Y-121183400D01*
D18*
X142163800Y-135636000D02*
X143281400Y-136753600D01*
D20*
%TO.N,/RST*%
X172701000Y-127031800D02*
X172701000Y-134283400D01*
X172701000Y-127031800D02*
X172701000Y-127273000D01*
X175000000Y-107700000D02*
X172701000Y-109999000D01*
X172701000Y-109999000D02*
X172701000Y-127031800D01*
X172701000Y-134283400D02*
X168300400Y-138684000D01*
X172701000Y-127273000D02*
X172237400Y-127736600D01*
%TO.N,/PA5*%
X156048799Y-142681201D02*
X151730000Y-147000000D01*
X167432141Y-142681201D02*
X156048799Y-142681201D01*
X173236000Y-136877342D02*
X167432141Y-142681201D01*
X173250000Y-134090000D02*
X173236000Y-134104000D01*
X173236000Y-134104000D02*
X173236000Y-136877342D01*
%TO.N,/PA6*%
X154270000Y-147000000D02*
X158188799Y-143081201D01*
X173736000Y-136943028D02*
X173736000Y-134467600D01*
X167597827Y-143081201D02*
X173736000Y-136943028D01*
X158188799Y-143081201D02*
X167597827Y-143081201D01*
%TO.N,/SCL*%
X176123600Y-124830029D02*
X177531571Y-126238000D01*
X216408000Y-135128000D02*
X217000000Y-135720000D01*
X204513914Y-135128000D02*
X216408000Y-135128000D01*
X176123600Y-124815600D02*
X176123600Y-124830029D01*
X177531571Y-126238000D02*
X195623914Y-126238000D01*
X195623914Y-126238000D02*
X204513914Y-135128000D01*
%TO.N,/SDA*%
X203911200Y-133959600D02*
X216220400Y-133959600D01*
X216220400Y-133959600D02*
X217000000Y-133180000D01*
X195789599Y-125838000D02*
X203911200Y-133959600D01*
X177838678Y-125838000D02*
X195789599Y-125838000D01*
X177644366Y-125643688D02*
X177838678Y-125838000D01*
%TO.N,/led_r*%
X183642000Y-128270000D02*
X181610000Y-128270000D01*
X183652300Y-128259700D02*
X183642000Y-128270000D01*
%TO.N,/led_v*%
X187274200Y-129717800D02*
X187248800Y-129692400D01*
X187248800Y-129692400D02*
X183083200Y-129692400D01*
%TO.N,/PA7*%
X156810000Y-147000000D02*
X160328799Y-143481201D01*
X174294800Y-136949914D02*
X174294800Y-133807200D01*
X167763513Y-143481201D02*
X174294800Y-136949914D01*
X160328799Y-143481201D02*
X167763513Y-143481201D01*
%TO.N,/CSN*%
X190310000Y-109825000D02*
X189137000Y-110998000D01*
X177876200Y-110998000D02*
X177241200Y-111633000D01*
X189137000Y-110998000D02*
X177876200Y-110998000D01*
%TO.N,/SCK*%
X187770000Y-112365000D02*
X186819200Y-113315800D01*
X177019000Y-113315800D02*
X176682400Y-112979200D01*
X186819200Y-113315800D02*
X177019000Y-113315800D01*
%TO.N,/MISO*%
X187770000Y-114905000D02*
X187020000Y-114155000D01*
X187020000Y-114155000D02*
X176700400Y-114155000D01*
X176700400Y-114155000D02*
X176174400Y-114681000D01*
%TO.N,/MOSI*%
X190310000Y-112365000D02*
X188959200Y-113715800D01*
X175844200Y-113715800D02*
X175285400Y-114274600D01*
X188959200Y-113715800D02*
X175844200Y-113715800D01*
%TO.N,/IRQ*%
X179324000Y-116306600D02*
X173634400Y-121996200D01*
X188908400Y-116306600D02*
X179324000Y-116306600D01*
X190310000Y-114905000D02*
X188908400Y-116306600D01*
%TO.N,/CE*%
X186997000Y-110598000D02*
X187770000Y-109825000D01*
X173101000Y-114604800D02*
X177107800Y-110598000D01*
X177107800Y-110598000D02*
X186997000Y-110598000D01*
X173101000Y-124485400D02*
X173101000Y-114604800D01*
X173507400Y-124891800D02*
X173101000Y-124485400D01*
%TO.N,/PA11*%
X160500000Y-145850000D02*
X159350000Y-147000000D01*
X177495200Y-134315200D02*
X165960400Y-145850000D01*
X177948400Y-126750000D02*
X177495200Y-127203200D01*
X165960400Y-145850000D02*
X160500000Y-145850000D01*
X177495200Y-127203200D02*
X177495200Y-134315200D01*
%TD*%
%TA.AperFunction,Conductor*%
%TO.N,GND*%
G36*
X206742121Y-105528502D02*
G01*
X206788614Y-105582158D01*
X206800000Y-105634500D01*
X206800000Y-126400000D01*
X219365500Y-126400000D01*
X219433621Y-126420002D01*
X219480114Y-126473658D01*
X219491500Y-126526000D01*
X219491500Y-144950633D01*
X219490000Y-144970018D01*
X219487690Y-144984851D01*
X219487690Y-144984855D01*
X219486309Y-144993724D01*
X219488984Y-145014183D01*
X219489928Y-145036007D01*
X219474648Y-145385964D01*
X219473690Y-145396913D01*
X219424129Y-145773377D01*
X219423982Y-145774490D01*
X219422074Y-145785307D01*
X219341950Y-146146727D01*
X219339647Y-146157114D01*
X219336802Y-146167731D01*
X219224224Y-146524783D01*
X219222285Y-146530932D01*
X219218529Y-146541254D01*
X219081530Y-146872000D01*
X219072784Y-146893114D01*
X219068142Y-146903067D01*
X218922476Y-147182890D01*
X218892295Y-147240867D01*
X218886799Y-147250387D01*
X218682180Y-147571574D01*
X218675876Y-147580578D01*
X218444038Y-147882716D01*
X218436972Y-147891137D01*
X218179686Y-148171914D01*
X218171914Y-148179686D01*
X217891137Y-148436972D01*
X217882716Y-148444038D01*
X217580578Y-148675876D01*
X217571574Y-148682180D01*
X217250387Y-148886799D01*
X217240868Y-148892294D01*
X216903067Y-149068142D01*
X216893123Y-149072780D01*
X216541254Y-149218529D01*
X216530939Y-149222282D01*
X216167732Y-149336802D01*
X216157115Y-149339647D01*
X215785307Y-149422074D01*
X215774498Y-149423981D01*
X215396914Y-149473690D01*
X215385965Y-149474648D01*
X215043446Y-149489603D01*
X215018571Y-149488223D01*
X215006276Y-149486309D01*
X214997374Y-149487473D01*
X214997372Y-149487473D01*
X214982323Y-149489441D01*
X214974714Y-149490436D01*
X214958379Y-149491500D01*
X135049367Y-149491500D01*
X135029982Y-149490000D01*
X135015149Y-149487690D01*
X135015145Y-149487690D01*
X135006276Y-149486309D01*
X134985817Y-149488984D01*
X134963993Y-149489928D01*
X134614035Y-149474648D01*
X134603086Y-149473690D01*
X134225502Y-149423981D01*
X134214693Y-149422074D01*
X133842885Y-149339647D01*
X133832268Y-149336802D01*
X133469061Y-149222282D01*
X133458746Y-149218529D01*
X133106877Y-149072780D01*
X133096933Y-149068142D01*
X132759132Y-148892294D01*
X132749613Y-148886799D01*
X132428426Y-148682180D01*
X132419422Y-148675876D01*
X132117284Y-148444038D01*
X132108863Y-148436972D01*
X131828086Y-148179686D01*
X131820314Y-148171914D01*
X131563028Y-147891137D01*
X131555962Y-147882716D01*
X131324124Y-147580578D01*
X131317820Y-147571574D01*
X131124400Y-147267966D01*
X133588257Y-147267966D01*
X133618565Y-147402446D01*
X133621645Y-147412275D01*
X133701770Y-147609603D01*
X133706413Y-147618794D01*
X133817694Y-147800388D01*
X133823777Y-147808699D01*
X133963213Y-147969667D01*
X133970580Y-147976883D01*
X134134434Y-148112916D01*
X134142881Y-148118831D01*
X134326756Y-148226279D01*
X134336042Y-148230729D01*
X134535001Y-148306703D01*
X134544899Y-148309579D01*
X134648250Y-148330606D01*
X134662299Y-148329410D01*
X134666000Y-148319065D01*
X134666000Y-148318517D01*
X135174000Y-148318517D01*
X135178064Y-148332359D01*
X135191478Y-148334393D01*
X135198184Y-148333534D01*
X135208262Y-148331392D01*
X135412255Y-148270191D01*
X135421842Y-148266433D01*
X135613095Y-148172739D01*
X135621945Y-148167464D01*
X135795328Y-148043792D01*
X135803200Y-148037139D01*
X135954052Y-147886812D01*
X135960730Y-147878965D01*
X136088022Y-147701819D01*
X136089147Y-147702627D01*
X136136669Y-147658876D01*
X136206607Y-147646661D01*
X136272046Y-147674197D01*
X136299870Y-147706028D01*
X136357690Y-147800383D01*
X136363777Y-147808699D01*
X136503213Y-147969667D01*
X136510580Y-147976883D01*
X136674434Y-148112916D01*
X136682881Y-148118831D01*
X136866756Y-148226279D01*
X136876042Y-148230729D01*
X137075001Y-148306703D01*
X137084899Y-148309579D01*
X137188250Y-148330606D01*
X137202299Y-148329410D01*
X137206000Y-148319065D01*
X137206000Y-148318517D01*
X137714000Y-148318517D01*
X137718064Y-148332359D01*
X137731478Y-148334393D01*
X137738184Y-148333534D01*
X137748262Y-148331392D01*
X137952255Y-148270191D01*
X137961842Y-148266433D01*
X138153095Y-148172739D01*
X138161945Y-148167464D01*
X138335328Y-148043792D01*
X138343200Y-148037139D01*
X138494052Y-147886812D01*
X138500730Y-147878965D01*
X138628022Y-147701819D01*
X138629279Y-147702722D01*
X138676373Y-147659362D01*
X138746311Y-147647145D01*
X138811751Y-147674678D01*
X138839579Y-147706511D01*
X138899987Y-147805088D01*
X139046250Y-147973938D01*
X139218126Y-148116632D01*
X139411000Y-148229338D01*
X139415825Y-148231180D01*
X139415826Y-148231181D01*
X139457875Y-148247238D01*
X139619692Y-148309030D01*
X139624760Y-148310061D01*
X139624763Y-148310062D01*
X139707707Y-148326937D01*
X139838597Y-148353567D01*
X139843772Y-148353757D01*
X139843774Y-148353757D01*
X140056673Y-148361564D01*
X140056677Y-148361564D01*
X140061837Y-148361753D01*
X140066957Y-148361097D01*
X140066959Y-148361097D01*
X140278288Y-148334025D01*
X140278289Y-148334025D01*
X140283416Y-148333368D01*
X140288366Y-148331883D01*
X140492429Y-148270661D01*
X140492434Y-148270659D01*
X140497384Y-148269174D01*
X140697994Y-148170896D01*
X140879860Y-148041173D01*
X140988091Y-147933319D01*
X141050462Y-147899404D01*
X141121268Y-147904592D01*
X141178030Y-147947238D01*
X141195012Y-147978341D01*
X141205573Y-148006511D01*
X141239385Y-148096705D01*
X141326739Y-148213261D01*
X141443295Y-148300615D01*
X141579684Y-148351745D01*
X141641866Y-148358500D01*
X143438134Y-148358500D01*
X143500316Y-148351745D01*
X143636705Y-148300615D01*
X143753261Y-148213261D01*
X143840615Y-148096705D01*
X143891745Y-147960316D01*
X143898500Y-147898134D01*
X143898500Y-147267966D01*
X145318257Y-147267966D01*
X145348565Y-147402446D01*
X145351645Y-147412275D01*
X145431770Y-147609603D01*
X145436413Y-147618794D01*
X145547694Y-147800388D01*
X145553777Y-147808699D01*
X145693213Y-147969667D01*
X145700580Y-147976883D01*
X145864434Y-148112916D01*
X145872881Y-148118831D01*
X146056756Y-148226279D01*
X146066042Y-148230729D01*
X146265001Y-148306703D01*
X146274899Y-148309579D01*
X146378250Y-148330606D01*
X146392299Y-148329410D01*
X146396000Y-148319065D01*
X146396000Y-148318517D01*
X146904000Y-148318517D01*
X146908064Y-148332359D01*
X146921478Y-148334393D01*
X146928184Y-148333534D01*
X146938262Y-148331392D01*
X147142255Y-148270191D01*
X147151842Y-148266433D01*
X147343095Y-148172739D01*
X147351945Y-148167464D01*
X147525328Y-148043792D01*
X147533200Y-148037139D01*
X147684052Y-147886812D01*
X147690730Y-147878965D01*
X147818022Y-147701819D01*
X147819279Y-147702722D01*
X147866373Y-147659362D01*
X147936311Y-147647145D01*
X148001751Y-147674678D01*
X148029579Y-147706511D01*
X148089987Y-147805088D01*
X148236250Y-147973938D01*
X148408126Y-148116632D01*
X148601000Y-148229338D01*
X148605825Y-148231180D01*
X148605826Y-148231181D01*
X148647875Y-148247238D01*
X148809692Y-148309030D01*
X148814760Y-148310061D01*
X148814763Y-148310062D01*
X148897707Y-148326937D01*
X149028597Y-148353567D01*
X149033772Y-148353757D01*
X149033774Y-148353757D01*
X149246673Y-148361564D01*
X149246677Y-148361564D01*
X149251837Y-148361753D01*
X149256957Y-148361097D01*
X149256959Y-148361097D01*
X149468288Y-148334025D01*
X149468289Y-148334025D01*
X149473416Y-148333368D01*
X149478366Y-148331883D01*
X149682429Y-148270661D01*
X149682434Y-148270659D01*
X149687384Y-148269174D01*
X149887994Y-148170896D01*
X150069860Y-148041173D01*
X150089459Y-148021643D01*
X150170701Y-147940684D01*
X150228096Y-147883489D01*
X150234767Y-147874206D01*
X150358453Y-147702077D01*
X150359776Y-147703028D01*
X150406645Y-147659857D01*
X150476580Y-147647625D01*
X150542026Y-147675144D01*
X150569875Y-147706994D01*
X150629987Y-147805088D01*
X150776250Y-147973938D01*
X150948126Y-148116632D01*
X151141000Y-148229338D01*
X151145825Y-148231180D01*
X151145826Y-148231181D01*
X151187875Y-148247238D01*
X151349692Y-148309030D01*
X151354760Y-148310061D01*
X151354763Y-148310062D01*
X151437707Y-148326937D01*
X151568597Y-148353567D01*
X151573772Y-148353757D01*
X151573774Y-148353757D01*
X151786673Y-148361564D01*
X151786677Y-148361564D01*
X151791837Y-148361753D01*
X151796957Y-148361097D01*
X151796959Y-148361097D01*
X152008288Y-148334025D01*
X152008289Y-148334025D01*
X152013416Y-148333368D01*
X152018366Y-148331883D01*
X152222429Y-148270661D01*
X152222434Y-148270659D01*
X152227384Y-148269174D01*
X152427994Y-148170896D01*
X152609860Y-148041173D01*
X152629459Y-148021643D01*
X152710701Y-147940684D01*
X152768096Y-147883489D01*
X152774767Y-147874206D01*
X152898453Y-147702077D01*
X152899776Y-147703028D01*
X152946645Y-147659857D01*
X153016580Y-147647625D01*
X153082026Y-147675144D01*
X153109875Y-147706994D01*
X153169987Y-147805088D01*
X153316250Y-147973938D01*
X153488126Y-148116632D01*
X153681000Y-148229338D01*
X153685825Y-148231180D01*
X153685826Y-148231181D01*
X153727875Y-148247238D01*
X153889692Y-148309030D01*
X153894760Y-148310061D01*
X153894763Y-148310062D01*
X153977707Y-148326937D01*
X154108597Y-148353567D01*
X154113772Y-148353757D01*
X154113774Y-148353757D01*
X154326673Y-148361564D01*
X154326677Y-148361564D01*
X154331837Y-148361753D01*
X154336957Y-148361097D01*
X154336959Y-148361097D01*
X154548288Y-148334025D01*
X154548289Y-148334025D01*
X154553416Y-148333368D01*
X154558366Y-148331883D01*
X154762429Y-148270661D01*
X154762434Y-148270659D01*
X154767384Y-148269174D01*
X154967994Y-148170896D01*
X155149860Y-148041173D01*
X155169459Y-148021643D01*
X155250701Y-147940684D01*
X155308096Y-147883489D01*
X155314767Y-147874206D01*
X155438453Y-147702077D01*
X155439776Y-147703028D01*
X155486645Y-147659857D01*
X155556580Y-147647625D01*
X155622026Y-147675144D01*
X155649875Y-147706994D01*
X155709987Y-147805088D01*
X155856250Y-147973938D01*
X156028126Y-148116632D01*
X156221000Y-148229338D01*
X156225825Y-148231180D01*
X156225826Y-148231181D01*
X156267875Y-148247238D01*
X156429692Y-148309030D01*
X156434760Y-148310061D01*
X156434763Y-148310062D01*
X156517707Y-148326937D01*
X156648597Y-148353567D01*
X156653772Y-148353757D01*
X156653774Y-148353757D01*
X156866673Y-148361564D01*
X156866677Y-148361564D01*
X156871837Y-148361753D01*
X156876957Y-148361097D01*
X156876959Y-148361097D01*
X157088288Y-148334025D01*
X157088289Y-148334025D01*
X157093416Y-148333368D01*
X157098366Y-148331883D01*
X157302429Y-148270661D01*
X157302434Y-148270659D01*
X157307384Y-148269174D01*
X157507994Y-148170896D01*
X157689860Y-148041173D01*
X157798091Y-147933319D01*
X157860462Y-147899404D01*
X157931268Y-147904592D01*
X157988030Y-147947238D01*
X158005012Y-147978341D01*
X158015573Y-148006511D01*
X158049385Y-148096705D01*
X158136739Y-148213261D01*
X158253295Y-148300615D01*
X158389684Y-148351745D01*
X158451866Y-148358500D01*
X160248134Y-148358500D01*
X160310316Y-148351745D01*
X160446705Y-148300615D01*
X160563261Y-148213261D01*
X160650615Y-148096705D01*
X160701745Y-147960316D01*
X160708500Y-147898134D01*
X160708500Y-147894669D01*
X162642001Y-147894669D01*
X162642371Y-147901490D01*
X162647895Y-147952352D01*
X162651521Y-147967604D01*
X162696676Y-148088054D01*
X162705214Y-148103649D01*
X162781715Y-148205724D01*
X162794276Y-148218285D01*
X162896351Y-148294786D01*
X162911946Y-148303324D01*
X163032394Y-148348478D01*
X163047649Y-148352105D01*
X163098514Y-148357631D01*
X163105328Y-148358000D01*
X163727885Y-148358000D01*
X163743124Y-148353525D01*
X163744329Y-148352135D01*
X163746000Y-148344452D01*
X163746000Y-147272115D01*
X163741525Y-147256876D01*
X163740135Y-147255671D01*
X163732452Y-147254000D01*
X162660116Y-147254000D01*
X162644877Y-147258475D01*
X162643672Y-147259865D01*
X162642001Y-147267548D01*
X162642001Y-147894669D01*
X160708500Y-147894669D01*
X160708500Y-146584500D01*
X160728502Y-146516379D01*
X160782158Y-146469886D01*
X160834500Y-146458500D01*
X162516000Y-146458500D01*
X162584121Y-146478502D01*
X162630614Y-146532158D01*
X162642000Y-146584500D01*
X162642000Y-146727885D01*
X162646475Y-146743124D01*
X162647865Y-146744329D01*
X162655548Y-146746000D01*
X164128000Y-146746000D01*
X164196121Y-146766002D01*
X164242614Y-146819658D01*
X164254000Y-146872000D01*
X164254000Y-148339884D01*
X164258475Y-148355123D01*
X164259865Y-148356328D01*
X164267548Y-148357999D01*
X164894669Y-148357999D01*
X164901490Y-148357629D01*
X164952352Y-148352105D01*
X164967604Y-148348479D01*
X165088054Y-148303324D01*
X165103649Y-148294786D01*
X165205724Y-148218285D01*
X165218285Y-148205724D01*
X165294786Y-148103649D01*
X165303324Y-148088054D01*
X165344225Y-147978952D01*
X165386867Y-147922188D01*
X165453428Y-147897488D01*
X165522777Y-147912696D01*
X165557444Y-147940684D01*
X165582865Y-147970031D01*
X165582869Y-147970035D01*
X165586250Y-147973938D01*
X165758126Y-148116632D01*
X165951000Y-148229338D01*
X165955825Y-148231180D01*
X165955826Y-148231181D01*
X165997875Y-148247238D01*
X166159692Y-148309030D01*
X166164760Y-148310061D01*
X166164763Y-148310062D01*
X166247707Y-148326937D01*
X166378597Y-148353567D01*
X166383772Y-148353757D01*
X166383774Y-148353757D01*
X166596673Y-148361564D01*
X166596677Y-148361564D01*
X166601837Y-148361753D01*
X166606957Y-148361097D01*
X166606959Y-148361097D01*
X166818288Y-148334025D01*
X166818289Y-148334025D01*
X166823416Y-148333368D01*
X166828366Y-148331883D01*
X167032429Y-148270661D01*
X167032434Y-148270659D01*
X167037384Y-148269174D01*
X167237994Y-148170896D01*
X167419860Y-148041173D01*
X167439459Y-148021643D01*
X167520701Y-147940684D01*
X167578096Y-147883489D01*
X167584767Y-147874206D01*
X167705435Y-147706277D01*
X167708453Y-147702077D01*
X167721995Y-147674678D01*
X167774735Y-147567966D01*
X182378257Y-147567966D01*
X182408565Y-147702446D01*
X182411645Y-147712275D01*
X182491770Y-147909603D01*
X182496413Y-147918794D01*
X182607694Y-148100388D01*
X182613777Y-148108699D01*
X182753213Y-148269667D01*
X182760580Y-148276883D01*
X182924434Y-148412916D01*
X182932881Y-148418831D01*
X183116756Y-148526279D01*
X183126042Y-148530729D01*
X183325001Y-148606703D01*
X183334899Y-148609579D01*
X183438250Y-148630606D01*
X183452299Y-148629410D01*
X183456000Y-148619065D01*
X183456000Y-147572115D01*
X183451525Y-147556876D01*
X183450135Y-147555671D01*
X183442452Y-147554000D01*
X182393225Y-147554000D01*
X182379694Y-147557973D01*
X182378257Y-147567966D01*
X167774735Y-147567966D01*
X167805136Y-147506453D01*
X167805137Y-147506451D01*
X167807430Y-147501811D01*
X167872370Y-147288069D01*
X167901529Y-147066590D01*
X167902115Y-147042607D01*
X167902321Y-147034183D01*
X182374389Y-147034183D01*
X182375912Y-147042607D01*
X182388292Y-147046000D01*
X183437885Y-147046000D01*
X183453124Y-147041525D01*
X183454329Y-147040135D01*
X183456000Y-147032452D01*
X183456000Y-145983102D01*
X183452082Y-145969758D01*
X183437806Y-145967771D01*
X183399324Y-145973660D01*
X183389288Y-145976051D01*
X183186868Y-146042212D01*
X183177359Y-146046209D01*
X182988463Y-146144542D01*
X182979738Y-146150036D01*
X182809433Y-146277905D01*
X182801726Y-146284748D01*
X182654590Y-146438717D01*
X182648104Y-146446727D01*
X182528098Y-146622649D01*
X182523000Y-146631623D01*
X182433338Y-146824783D01*
X182429775Y-146834470D01*
X182374389Y-147034183D01*
X167902321Y-147034183D01*
X167903074Y-147003365D01*
X167903074Y-147003361D01*
X167903156Y-147000000D01*
X167884852Y-146777361D01*
X167830431Y-146560702D01*
X167741354Y-146355840D01*
X167648251Y-146211925D01*
X167622822Y-146172617D01*
X167622820Y-146172614D01*
X167620014Y-146168277D01*
X167469670Y-146003051D01*
X167465619Y-145999852D01*
X167465615Y-145999848D01*
X167298414Y-145867800D01*
X167298410Y-145867798D01*
X167294359Y-145864598D01*
X167258028Y-145844542D01*
X167223404Y-145825429D01*
X167126576Y-145771977D01*
X167076606Y-145721545D01*
X167061834Y-145652102D01*
X167086950Y-145585697D01*
X167098375Y-145572574D01*
X169489997Y-143180952D01*
X169552309Y-143146926D01*
X169623124Y-143151991D01*
X169679960Y-143194538D01*
X169691154Y-143212445D01*
X169734587Y-143296956D01*
X169857435Y-143451953D01*
X169862128Y-143455947D01*
X169862129Y-143455948D01*
X169919526Y-143504796D01*
X170008050Y-143580136D01*
X170180694Y-143676624D01*
X170368792Y-143737740D01*
X170565177Y-143761158D01*
X170571312Y-143760686D01*
X170571314Y-143760686D01*
X170756230Y-143746457D01*
X170756234Y-143746456D01*
X170762372Y-143745984D01*
X170952863Y-143692798D01*
X170997929Y-143670033D01*
X171054738Y-143656500D01*
X183809497Y-143656500D01*
X183877618Y-143676502D01*
X183898592Y-143693405D01*
X185973671Y-145768484D01*
X186007697Y-145830796D01*
X186002632Y-145901611D01*
X185960085Y-145958447D01*
X185923722Y-145977344D01*
X185883295Y-145990558D01*
X185721756Y-146043357D01*
X185523607Y-146146507D01*
X185519474Y-146149610D01*
X185519471Y-146149612D01*
X185349100Y-146277530D01*
X185344965Y-146280635D01*
X185190629Y-146442138D01*
X185187715Y-146446410D01*
X185187714Y-146446411D01*
X185082898Y-146600066D01*
X185027987Y-146645069D01*
X184957462Y-146653240D01*
X184893715Y-146621986D01*
X184873018Y-146597502D01*
X184792426Y-146472926D01*
X184786136Y-146464757D01*
X184642806Y-146307240D01*
X184635273Y-146300215D01*
X184468139Y-146168222D01*
X184459552Y-146162517D01*
X184273117Y-146059599D01*
X184263705Y-146055369D01*
X184062959Y-145984280D01*
X184052988Y-145981646D01*
X183981837Y-145968972D01*
X183968540Y-145970432D01*
X183964000Y-145984989D01*
X183964000Y-148618517D01*
X183968064Y-148632359D01*
X183981478Y-148634393D01*
X183988184Y-148633534D01*
X183998262Y-148631392D01*
X184202255Y-148570191D01*
X184211842Y-148566433D01*
X184403095Y-148472739D01*
X184411945Y-148467464D01*
X184585328Y-148343792D01*
X184593200Y-148337139D01*
X184744052Y-148186812D01*
X184750730Y-148178965D01*
X184878022Y-148001819D01*
X184879279Y-148002722D01*
X184926373Y-147959362D01*
X184996311Y-147947145D01*
X185061751Y-147974678D01*
X185089579Y-148006511D01*
X185149987Y-148105088D01*
X185296250Y-148273938D01*
X185397661Y-148358131D01*
X185463530Y-148412816D01*
X185468126Y-148416632D01*
X185661000Y-148529338D01*
X185869692Y-148609030D01*
X185874760Y-148610061D01*
X185874763Y-148610062D01*
X185969862Y-148629410D01*
X186088597Y-148653567D01*
X186093772Y-148653757D01*
X186093774Y-148653757D01*
X186306673Y-148661564D01*
X186306677Y-148661564D01*
X186311837Y-148661753D01*
X186316957Y-148661097D01*
X186316959Y-148661097D01*
X186528288Y-148634025D01*
X186528289Y-148634025D01*
X186533416Y-148633368D01*
X186538366Y-148631883D01*
X186742429Y-148570661D01*
X186742434Y-148570659D01*
X186747384Y-148569174D01*
X186947994Y-148470896D01*
X187129860Y-148341173D01*
X187238091Y-148233319D01*
X187300462Y-148199404D01*
X187371268Y-148204592D01*
X187428030Y-148247238D01*
X187445012Y-148278341D01*
X187473213Y-148353567D01*
X187489385Y-148396705D01*
X187576739Y-148513261D01*
X187693295Y-148600615D01*
X187829684Y-148651745D01*
X187891866Y-148658500D01*
X189688134Y-148658500D01*
X189750316Y-148651745D01*
X189886705Y-148600615D01*
X190003261Y-148513261D01*
X190090615Y-148396705D01*
X190141745Y-148260316D01*
X190148500Y-148198134D01*
X190148500Y-147772095D01*
X193142001Y-147772095D01*
X193142338Y-147778614D01*
X193152257Y-147874206D01*
X193155149Y-147887600D01*
X193206588Y-148041784D01*
X193212761Y-148054962D01*
X193298063Y-148192807D01*
X193307099Y-148204208D01*
X193421829Y-148318739D01*
X193433240Y-148327751D01*
X193571243Y-148412816D01*
X193584424Y-148418963D01*
X193738710Y-148470138D01*
X193752086Y-148473005D01*
X193846438Y-148482672D01*
X193852854Y-148483000D01*
X194227885Y-148483000D01*
X194243124Y-148478525D01*
X194244329Y-148477135D01*
X194246000Y-148469452D01*
X194246000Y-147272115D01*
X194241525Y-147256876D01*
X194240135Y-147255671D01*
X194232452Y-147254000D01*
X193160116Y-147254000D01*
X193144877Y-147258475D01*
X193143672Y-147259865D01*
X193142001Y-147267548D01*
X193142001Y-147772095D01*
X190148500Y-147772095D01*
X190148500Y-147230503D01*
X190168502Y-147162382D01*
X190185405Y-147141408D01*
X191042608Y-146284205D01*
X191104920Y-146250179D01*
X191131703Y-146247300D01*
X193016000Y-146247300D01*
X193084121Y-146267302D01*
X193130614Y-146320958D01*
X193142000Y-146373300D01*
X193142000Y-146727885D01*
X193146475Y-146743124D01*
X193147865Y-146744329D01*
X193155548Y-146746000D01*
X194628000Y-146746000D01*
X194696121Y-146766002D01*
X194742614Y-146819658D01*
X194754000Y-146872000D01*
X194754000Y-148464884D01*
X194758475Y-148480123D01*
X194759865Y-148481328D01*
X194767548Y-148482999D01*
X195147095Y-148482999D01*
X195153614Y-148482662D01*
X195249206Y-148472743D01*
X195262600Y-148469851D01*
X195416784Y-148418412D01*
X195429962Y-148412239D01*
X195567807Y-148326937D01*
X195579208Y-148317901D01*
X195693739Y-148203171D01*
X195702753Y-148191757D01*
X195788723Y-148052287D01*
X195841495Y-148004793D01*
X195911566Y-147993369D01*
X195976690Y-148021643D01*
X195987149Y-148031426D01*
X196096576Y-148146135D01*
X196281542Y-148283754D01*
X196286293Y-148286170D01*
X196286297Y-148286172D01*
X196366477Y-148326937D01*
X196487051Y-148388240D01*
X196492145Y-148389822D01*
X196492148Y-148389823D01*
X196692020Y-148451885D01*
X196707227Y-148456607D01*
X196712516Y-148457308D01*
X196930489Y-148486198D01*
X196930494Y-148486198D01*
X196935774Y-148486898D01*
X196941103Y-148486698D01*
X196941105Y-148486698D01*
X197050966Y-148482573D01*
X197166158Y-148478249D01*
X197171468Y-148477135D01*
X197386572Y-148432002D01*
X197391791Y-148430907D01*
X197396750Y-148428949D01*
X197396752Y-148428948D01*
X197601256Y-148348185D01*
X197601258Y-148348184D01*
X197606221Y-148346224D01*
X197626325Y-148334025D01*
X197795806Y-148231181D01*
X197803317Y-148226623D01*
X197871492Y-148167464D01*
X197973412Y-148079023D01*
X197973414Y-148079021D01*
X197977445Y-148075523D01*
X198026710Y-148015440D01*
X198120240Y-147901373D01*
X198120244Y-147901367D01*
X198123624Y-147897245D01*
X198141552Y-147865750D01*
X198192632Y-147816445D01*
X198262262Y-147802583D01*
X198328333Y-147828566D01*
X198355573Y-147857716D01*
X198437441Y-147979319D01*
X198441120Y-147983176D01*
X198441122Y-147983178D01*
X198492599Y-148037139D01*
X198596576Y-148146135D01*
X198781542Y-148283754D01*
X198786293Y-148286170D01*
X198786297Y-148286172D01*
X198866477Y-148326937D01*
X198987051Y-148388240D01*
X198992145Y-148389822D01*
X198992148Y-148389823D01*
X199192020Y-148451885D01*
X199207227Y-148456607D01*
X199212516Y-148457308D01*
X199430489Y-148486198D01*
X199430494Y-148486198D01*
X199435774Y-148486898D01*
X199441103Y-148486698D01*
X199441105Y-148486698D01*
X199550966Y-148482573D01*
X199666158Y-148478249D01*
X199671468Y-148477135D01*
X199886572Y-148432002D01*
X199891791Y-148430907D01*
X199896750Y-148428949D01*
X199896752Y-148428948D01*
X200101256Y-148348185D01*
X200101258Y-148348184D01*
X200106221Y-148346224D01*
X200126325Y-148334025D01*
X200295806Y-148231181D01*
X200303317Y-148226623D01*
X200371492Y-148167464D01*
X200473412Y-148079023D01*
X200473414Y-148079021D01*
X200477445Y-148075523D01*
X200526710Y-148015440D01*
X200620240Y-147901373D01*
X200620244Y-147901367D01*
X200623624Y-147897245D01*
X200641552Y-147865750D01*
X200692632Y-147816445D01*
X200762262Y-147802583D01*
X200828333Y-147828566D01*
X200855573Y-147857716D01*
X200937441Y-147979319D01*
X200941120Y-147983176D01*
X200941122Y-147983178D01*
X200992599Y-148037139D01*
X201096576Y-148146135D01*
X201281542Y-148283754D01*
X201286293Y-148286170D01*
X201286297Y-148286172D01*
X201366477Y-148326937D01*
X201487051Y-148388240D01*
X201492145Y-148389822D01*
X201492148Y-148389823D01*
X201692020Y-148451885D01*
X201707227Y-148456607D01*
X201712516Y-148457308D01*
X201930489Y-148486198D01*
X201930494Y-148486198D01*
X201935774Y-148486898D01*
X201941103Y-148486698D01*
X201941105Y-148486698D01*
X202050966Y-148482573D01*
X202166158Y-148478249D01*
X202171468Y-148477135D01*
X202386572Y-148432002D01*
X202391791Y-148430907D01*
X202396750Y-148428949D01*
X202396752Y-148428948D01*
X202601256Y-148348185D01*
X202601258Y-148348184D01*
X202606221Y-148346224D01*
X202626325Y-148334025D01*
X202795806Y-148231181D01*
X202803317Y-148226623D01*
X202871492Y-148167464D01*
X202973412Y-148079023D01*
X202973414Y-148079021D01*
X202977445Y-148075523D01*
X203026710Y-148015440D01*
X203120240Y-147901373D01*
X203120244Y-147901367D01*
X203123624Y-147897245D01*
X203129115Y-147887600D01*
X203235032Y-147701529D01*
X203237675Y-147696886D01*
X203316337Y-147480175D01*
X203317287Y-147474923D01*
X203356623Y-147257392D01*
X203356624Y-147257385D01*
X203357361Y-147253308D01*
X203358500Y-147229156D01*
X203358500Y-146817110D01*
X203350929Y-146727885D01*
X203344371Y-146650591D01*
X203344370Y-146650587D01*
X203343920Y-146645280D01*
X203342582Y-146640125D01*
X203342581Y-146640119D01*
X203287343Y-146427297D01*
X203287342Y-146427293D01*
X203286001Y-146422128D01*
X203258281Y-146360590D01*
X203193507Y-146216798D01*
X203191312Y-146211925D01*
X203062559Y-146020681D01*
X203043036Y-146000215D01*
X202949430Y-145902092D01*
X202903424Y-145853865D01*
X202890894Y-145844542D01*
X202799945Y-145776874D01*
X202718458Y-145716246D01*
X202713707Y-145713830D01*
X202713703Y-145713828D01*
X202584729Y-145648255D01*
X202512949Y-145611760D01*
X202507855Y-145610178D01*
X202507852Y-145610177D01*
X202297871Y-145544976D01*
X202292773Y-145543393D01*
X202287484Y-145542692D01*
X202069511Y-145513802D01*
X202069506Y-145513802D01*
X202064226Y-145513102D01*
X202058897Y-145513302D01*
X202058895Y-145513302D01*
X201949034Y-145517426D01*
X201833842Y-145521751D01*
X201608209Y-145569093D01*
X201603250Y-145571051D01*
X201603248Y-145571052D01*
X201398744Y-145651815D01*
X201398742Y-145651816D01*
X201393779Y-145653776D01*
X201389220Y-145656543D01*
X201389217Y-145656544D01*
X201290832Y-145716246D01*
X201196683Y-145773377D01*
X201192653Y-145776874D01*
X201037276Y-145911703D01*
X201022555Y-145924477D01*
X201019168Y-145928608D01*
X200879760Y-146098627D01*
X200879756Y-146098633D01*
X200876376Y-146102755D01*
X200858448Y-146134250D01*
X200807368Y-146183555D01*
X200737738Y-146197417D01*
X200671667Y-146171434D01*
X200644427Y-146142284D01*
X200614929Y-146098469D01*
X200562559Y-146020681D01*
X200543036Y-146000215D01*
X200449430Y-145902092D01*
X200403424Y-145853865D01*
X200390894Y-145844542D01*
X200299945Y-145776874D01*
X200218458Y-145716246D01*
X200213707Y-145713830D01*
X200213703Y-145713828D01*
X200084729Y-145648255D01*
X200012949Y-145611760D01*
X200007855Y-145610178D01*
X200007852Y-145610177D01*
X199797871Y-145544976D01*
X199792773Y-145543393D01*
X199657139Y-145525416D01*
X199592237Y-145496638D01*
X199553197Y-145437339D01*
X199552414Y-145366347D01*
X199584599Y-145311414D01*
X203185008Y-141711005D01*
X203247320Y-141676979D01*
X203274103Y-141674100D01*
X215529216Y-141674100D01*
X215597337Y-141694102D01*
X215643830Y-141747758D01*
X215648156Y-141760353D01*
X215648255Y-141760316D01*
X215699385Y-141896705D01*
X215786739Y-142013261D01*
X215903295Y-142100615D01*
X216039684Y-142151745D01*
X216101866Y-142158500D01*
X217898134Y-142158500D01*
X217960316Y-142151745D01*
X218096705Y-142100615D01*
X218213261Y-142013261D01*
X218300615Y-141896705D01*
X218351745Y-141760316D01*
X218358500Y-141698134D01*
X218358500Y-139901866D01*
X218351745Y-139839684D01*
X218300615Y-139703295D01*
X218213261Y-139586739D01*
X218096705Y-139499385D01*
X217977687Y-139454767D01*
X217920923Y-139412125D01*
X217896223Y-139345564D01*
X217911430Y-139276215D01*
X217932977Y-139247535D01*
X218034052Y-139146812D01*
X218040730Y-139138965D01*
X218165003Y-138966020D01*
X218170313Y-138957183D01*
X218264670Y-138766267D01*
X218268469Y-138756672D01*
X218330377Y-138552910D01*
X218332555Y-138542837D01*
X218333986Y-138531962D01*
X218331775Y-138517778D01*
X218318617Y-138514000D01*
X215683225Y-138514000D01*
X215669694Y-138517973D01*
X215668257Y-138527966D01*
X215698565Y-138662446D01*
X215701645Y-138672275D01*
X215781770Y-138869603D01*
X215786413Y-138878794D01*
X215897694Y-139060388D01*
X215903777Y-139068699D01*
X216043213Y-139229667D01*
X216050577Y-139236879D01*
X216055522Y-139240985D01*
X216095156Y-139299889D01*
X216096653Y-139370870D01*
X216059537Y-139431392D01*
X216019264Y-139455910D01*
X215911705Y-139496232D01*
X215911704Y-139496233D01*
X215903295Y-139499385D01*
X215786739Y-139586739D01*
X215699385Y-139703295D01*
X215696233Y-139711703D01*
X215672380Y-139775330D01*
X215629738Y-139832094D01*
X215563177Y-139856794D01*
X215554398Y-139857100D01*
X202927017Y-139857100D01*
X202907308Y-139855549D01*
X202893410Y-139853348D01*
X202886823Y-139853693D01*
X202886818Y-139853693D01*
X202825119Y-139856927D01*
X202818525Y-139857100D01*
X202797990Y-139857100D01*
X202791822Y-139857748D01*
X202777560Y-139859247D01*
X202770985Y-139859764D01*
X202709296Y-139862997D01*
X202709295Y-139862997D01*
X202702696Y-139863343D01*
X202689108Y-139866984D01*
X202669661Y-139870588D01*
X202662244Y-139871367D01*
X202662240Y-139871368D01*
X202655672Y-139872058D01*
X202598876Y-139890512D01*
X202590609Y-139893198D01*
X202584285Y-139895071D01*
X202524610Y-139911061D01*
X202524606Y-139911062D01*
X202518230Y-139912771D01*
X202512348Y-139915768D01*
X202505693Y-139919159D01*
X202487426Y-139926725D01*
X202480328Y-139929031D01*
X202480326Y-139929032D01*
X202474044Y-139931073D01*
X202468322Y-139934376D01*
X202468321Y-139934377D01*
X202414818Y-139965267D01*
X202409023Y-139968414D01*
X202348070Y-139999471D01*
X202342942Y-140003624D01*
X202342940Y-140003625D01*
X202337134Y-140008327D01*
X202320837Y-140019527D01*
X202314376Y-140023257D01*
X202314372Y-140023260D01*
X202308656Y-140026560D01*
X202303750Y-140030977D01*
X202303745Y-140030981D01*
X202257831Y-140072322D01*
X202252816Y-140076606D01*
X202244318Y-140083488D01*
X202236859Y-140089528D01*
X202222344Y-140104043D01*
X202217559Y-140108584D01*
X202166734Y-140154347D01*
X202162855Y-140159686D01*
X202162854Y-140159687D01*
X202158460Y-140165735D01*
X202145619Y-140180768D01*
X197091495Y-145234892D01*
X197029183Y-145268918D01*
X196958368Y-145263853D01*
X196913305Y-145234892D01*
X196432381Y-144753968D01*
X196419540Y-144738935D01*
X196415146Y-144732887D01*
X196415145Y-144732886D01*
X196411266Y-144727547D01*
X196360441Y-144681784D01*
X196355656Y-144677243D01*
X196341141Y-144662728D01*
X196325195Y-144649815D01*
X196325184Y-144649806D01*
X196320169Y-144645522D01*
X196274255Y-144604181D01*
X196274250Y-144604177D01*
X196269344Y-144599760D01*
X196263628Y-144596460D01*
X196263624Y-144596457D01*
X196257163Y-144592727D01*
X196240866Y-144581527D01*
X196235060Y-144576825D01*
X196235058Y-144576824D01*
X196229930Y-144572671D01*
X196168973Y-144541612D01*
X196163182Y-144538467D01*
X196109679Y-144507577D01*
X196109678Y-144507576D01*
X196103956Y-144504273D01*
X196097674Y-144502232D01*
X196097672Y-144502231D01*
X196090574Y-144499925D01*
X196072307Y-144492359D01*
X196059770Y-144485971D01*
X196053389Y-144484261D01*
X196035252Y-144479401D01*
X195993699Y-144468267D01*
X195987397Y-144466400D01*
X195922328Y-144445258D01*
X195915763Y-144444568D01*
X195915754Y-144444566D01*
X195908325Y-144443785D01*
X195888891Y-144440183D01*
X195881686Y-144438253D01*
X195881684Y-144438253D01*
X195875303Y-144436543D01*
X195868712Y-144436198D01*
X195868708Y-144436197D01*
X195807016Y-144432964D01*
X195800442Y-144432447D01*
X195783284Y-144430644D01*
X195783282Y-144430644D01*
X195780010Y-144430300D01*
X195759474Y-144430300D01*
X195752880Y-144430127D01*
X195691182Y-144426893D01*
X195691177Y-144426893D01*
X195684590Y-144426548D01*
X195670692Y-144428749D01*
X195650983Y-144430300D01*
X190784616Y-144430300D01*
X190764907Y-144428749D01*
X190751009Y-144426548D01*
X190744422Y-144426893D01*
X190744417Y-144426893D01*
X190682719Y-144430127D01*
X190676125Y-144430300D01*
X190655590Y-144430300D01*
X190649422Y-144430948D01*
X190635160Y-144432447D01*
X190628585Y-144432964D01*
X190566896Y-144436197D01*
X190566895Y-144436197D01*
X190560296Y-144436543D01*
X190546708Y-144440184D01*
X190527261Y-144443788D01*
X190519844Y-144444567D01*
X190519840Y-144444568D01*
X190513272Y-144445258D01*
X190456476Y-144463712D01*
X190448209Y-144466398D01*
X190441885Y-144468271D01*
X190382210Y-144484261D01*
X190382206Y-144484262D01*
X190375830Y-144485971D01*
X190369948Y-144488968D01*
X190363293Y-144492359D01*
X190345026Y-144499925D01*
X190337928Y-144502231D01*
X190337926Y-144502232D01*
X190331644Y-144504273D01*
X190325922Y-144507577D01*
X190325921Y-144507577D01*
X190272423Y-144538464D01*
X190266626Y-144541612D01*
X190211552Y-144569673D01*
X190211549Y-144569675D01*
X190205669Y-144572671D01*
X190194726Y-144581533D01*
X190178437Y-144592727D01*
X190166256Y-144599760D01*
X190161350Y-144604177D01*
X190161345Y-144604181D01*
X190115421Y-144645531D01*
X190110420Y-144649803D01*
X190094459Y-144662728D01*
X190079944Y-144677243D01*
X190075159Y-144681784D01*
X190024334Y-144727547D01*
X190020455Y-144732886D01*
X190020454Y-144732887D01*
X190016060Y-144738935D01*
X190003219Y-144753968D01*
X188855095Y-145902092D01*
X188792783Y-145936118D01*
X188721968Y-145931053D01*
X188676905Y-145902092D01*
X184937981Y-142163168D01*
X184925140Y-142148135D01*
X184920746Y-142142087D01*
X184920745Y-142142086D01*
X184916866Y-142136747D01*
X184866041Y-142090984D01*
X184861256Y-142086443D01*
X184846741Y-142071928D01*
X184839282Y-142065888D01*
X184830784Y-142059006D01*
X184825769Y-142054722D01*
X184779855Y-142013381D01*
X184779850Y-142013377D01*
X184774944Y-142008960D01*
X184769228Y-142005660D01*
X184769224Y-142005657D01*
X184762763Y-142001927D01*
X184746466Y-141990727D01*
X184740660Y-141986025D01*
X184740658Y-141986024D01*
X184735530Y-141981871D01*
X184674577Y-141950814D01*
X184668782Y-141947667D01*
X184615279Y-141916777D01*
X184615278Y-141916776D01*
X184609556Y-141913473D01*
X184603274Y-141911432D01*
X184603272Y-141911431D01*
X184596174Y-141909125D01*
X184577907Y-141901559D01*
X184565370Y-141895171D01*
X184499299Y-141877467D01*
X184492997Y-141875600D01*
X184427928Y-141854458D01*
X184421363Y-141853768D01*
X184421354Y-141853766D01*
X184413925Y-141852985D01*
X184394491Y-141849383D01*
X184387286Y-141847453D01*
X184387284Y-141847453D01*
X184380903Y-141845743D01*
X184374312Y-141845398D01*
X184374308Y-141845397D01*
X184312616Y-141842164D01*
X184306042Y-141841647D01*
X184288884Y-141839844D01*
X184288882Y-141839844D01*
X184285610Y-141839500D01*
X184265074Y-141839500D01*
X184258480Y-141839327D01*
X184196782Y-141836093D01*
X184196777Y-141836093D01*
X184190190Y-141835748D01*
X184176292Y-141837949D01*
X184156583Y-141839500D01*
X171135639Y-141839500D01*
X171067518Y-141819498D01*
X171021025Y-141765842D01*
X171010921Y-141695568D01*
X171040415Y-141630988D01*
X171046544Y-141624405D01*
X177891434Y-134779515D01*
X177903825Y-134768648D01*
X177922637Y-134754213D01*
X177929187Y-134749187D01*
X177953674Y-134717275D01*
X177953678Y-134717271D01*
X178026724Y-134622076D01*
X178088038Y-134474051D01*
X178108951Y-134315200D01*
X178104778Y-134283501D01*
X178103700Y-134267056D01*
X178103700Y-128262526D01*
X180896335Y-128262526D01*
X180905090Y-128341830D01*
X180911746Y-128402112D01*
X180915153Y-128432975D01*
X180974085Y-128594015D01*
X180978322Y-128600321D01*
X180978324Y-128600324D01*
X180985226Y-128610595D01*
X181069730Y-128736349D01*
X181196565Y-128851760D01*
X181347268Y-128933585D01*
X181513139Y-128977101D01*
X181600586Y-128978474D01*
X181677003Y-128979675D01*
X181677006Y-128979675D01*
X181684602Y-128979794D01*
X181692006Y-128978098D01*
X181692008Y-128978098D01*
X181788824Y-128955924D01*
X181851759Y-128941510D01*
X181950329Y-128891935D01*
X182006942Y-128878500D01*
X182603123Y-128878500D01*
X182671244Y-128898502D01*
X182717737Y-128952158D01*
X182727841Y-129022432D01*
X182698347Y-129087012D01*
X182681747Y-129101774D01*
X182682039Y-129102109D01*
X182552815Y-129214839D01*
X182454210Y-129355139D01*
X182433584Y-129408041D01*
X182406915Y-129476445D01*
X182391918Y-129514909D01*
X182369535Y-129684926D01*
X182388353Y-129855375D01*
X182390962Y-129862506D01*
X182390963Y-129862508D01*
X182408183Y-129909564D01*
X182447285Y-130016415D01*
X182542930Y-130158749D01*
X182669765Y-130274160D01*
X182820468Y-130355985D01*
X182986339Y-130399501D01*
X183073786Y-130400874D01*
X183150203Y-130402075D01*
X183150206Y-130402075D01*
X183157802Y-130402194D01*
X183165206Y-130400498D01*
X183165208Y-130400498D01*
X183228954Y-130385898D01*
X183324959Y-130363910D01*
X183423529Y-130314335D01*
X183480142Y-130300900D01*
X186831233Y-130300900D01*
X186891355Y-130316169D01*
X187011468Y-130381385D01*
X187177339Y-130424901D01*
X187264786Y-130426274D01*
X187341203Y-130427475D01*
X187341206Y-130427475D01*
X187348802Y-130427594D01*
X187356206Y-130425898D01*
X187356208Y-130425898D01*
X187459704Y-130402194D01*
X187515959Y-130389310D01*
X187669158Y-130312259D01*
X187674929Y-130307330D01*
X187674932Y-130307328D01*
X187793778Y-130205823D01*
X187799555Y-130200889D01*
X187899624Y-130061630D01*
X187963585Y-129902520D01*
X187967326Y-129876233D01*
X187987166Y-129736831D01*
X187987166Y-129736827D01*
X187987747Y-129732747D01*
X187987904Y-129717800D01*
X187967302Y-129547558D01*
X187951404Y-129505483D01*
X187909371Y-129394247D01*
X187906687Y-129387144D01*
X187884691Y-129355139D01*
X187813859Y-129252078D01*
X187813858Y-129252076D01*
X187809557Y-129245819D01*
X187803886Y-129240766D01*
X187687193Y-129136796D01*
X187687190Y-129136794D01*
X187681521Y-129131743D01*
X187647299Y-129113623D01*
X187616015Y-129097059D01*
X187529969Y-129051500D01*
X187512396Y-129047086D01*
X187371022Y-129011575D01*
X187371018Y-129011575D01*
X187363651Y-129009724D01*
X187356052Y-129009684D01*
X187356050Y-129009684D01*
X187284594Y-129009310D01*
X187192169Y-129008826D01*
X187184789Y-129010598D01*
X187184787Y-129010598D01*
X187032802Y-129047086D01*
X187032798Y-129047087D01*
X187025423Y-129048858D01*
X186996284Y-129063898D01*
X186984721Y-129069866D01*
X186926931Y-129083900D01*
X184117153Y-129083900D01*
X184049032Y-129063898D01*
X184002539Y-129010242D01*
X183992435Y-128939968D01*
X184021929Y-128875388D01*
X184044448Y-128855572D01*
X184047258Y-128854159D01*
X184177655Y-128742789D01*
X184277724Y-128603530D01*
X184341685Y-128444420D01*
X184362891Y-128295419D01*
X184365266Y-128278731D01*
X184365266Y-128278727D01*
X184365847Y-128274647D01*
X184366004Y-128259700D01*
X184345402Y-128089458D01*
X184342538Y-128081877D01*
X184287471Y-127936147D01*
X184284787Y-127929044D01*
X184259345Y-127892025D01*
X184191959Y-127793978D01*
X184191958Y-127793976D01*
X184187657Y-127787719D01*
X184152655Y-127756533D01*
X184065293Y-127678696D01*
X184065290Y-127678694D01*
X184059621Y-127673643D01*
X184010182Y-127647466D01*
X183936259Y-127608326D01*
X183908069Y-127593400D01*
X183890496Y-127588986D01*
X183749122Y-127553475D01*
X183749118Y-127553475D01*
X183741751Y-127551624D01*
X183734152Y-127551584D01*
X183734150Y-127551584D01*
X183662694Y-127551210D01*
X183570269Y-127550726D01*
X183562889Y-127552498D01*
X183562887Y-127552498D01*
X183410902Y-127588986D01*
X183410898Y-127588987D01*
X183403523Y-127590758D01*
X183294837Y-127646855D01*
X183293653Y-127647466D01*
X183235863Y-127661500D01*
X182006232Y-127661500D01*
X181947276Y-127646856D01*
X181865769Y-127603700D01*
X181838912Y-127596954D01*
X181706822Y-127563775D01*
X181706818Y-127563775D01*
X181699451Y-127561924D01*
X181691852Y-127561884D01*
X181691850Y-127561884D01*
X181620394Y-127561510D01*
X181527969Y-127561026D01*
X181520589Y-127562798D01*
X181520587Y-127562798D01*
X181368602Y-127599286D01*
X181368598Y-127599287D01*
X181361223Y-127601058D01*
X181208839Y-127679709D01*
X181079615Y-127792439D01*
X180981010Y-127932739D01*
X180918718Y-128092509D01*
X180917726Y-128100042D01*
X180917726Y-128100043D01*
X180903506Y-128208059D01*
X180896335Y-128262526D01*
X178103700Y-128262526D01*
X178103700Y-127540222D01*
X178123702Y-127472101D01*
X178177358Y-127425608D01*
X178183893Y-127422945D01*
X178190159Y-127421510D01*
X178343358Y-127344459D01*
X178349129Y-127339530D01*
X178349132Y-127339528D01*
X178467978Y-127238023D01*
X178473755Y-127233089D01*
X178573824Y-127093830D01*
X178637785Y-126934720D01*
X178638446Y-126934986D01*
X178672403Y-126879270D01*
X178736262Y-126848245D01*
X178757162Y-126846500D01*
X195319675Y-126846500D01*
X195387796Y-126866502D01*
X195408770Y-126883405D01*
X204049599Y-135524234D01*
X204060466Y-135536625D01*
X204079927Y-135561987D01*
X204086477Y-135567013D01*
X204111835Y-135586471D01*
X204111851Y-135586485D01*
X204142708Y-135610162D01*
X204207038Y-135659524D01*
X204355063Y-135720838D01*
X204363251Y-135721916D01*
X204434488Y-135731294D01*
X204513914Y-135741751D01*
X204545613Y-135737578D01*
X204562058Y-135736500D01*
X215521179Y-135736500D01*
X215589300Y-135756502D01*
X215635793Y-135810158D01*
X215646969Y-135855246D01*
X215650110Y-135909715D01*
X215651247Y-135914761D01*
X215651248Y-135914767D01*
X215660918Y-135957674D01*
X215699222Y-136127639D01*
X215783266Y-136334616D01*
X215899987Y-136525088D01*
X216046250Y-136693938D01*
X216218126Y-136836632D01*
X216291955Y-136879774D01*
X216340679Y-136931412D01*
X216353750Y-137001195D01*
X216327019Y-137066967D01*
X216286562Y-137100327D01*
X216278457Y-137104546D01*
X216269738Y-137110036D01*
X216099433Y-137237905D01*
X216091726Y-137244748D01*
X215944590Y-137398717D01*
X215938104Y-137406727D01*
X215818098Y-137582649D01*
X215813000Y-137591623D01*
X215723338Y-137784783D01*
X215719775Y-137794470D01*
X215664389Y-137994183D01*
X215665912Y-138002607D01*
X215678292Y-138006000D01*
X218318344Y-138006000D01*
X218331875Y-138002027D01*
X218333180Y-137992947D01*
X218291214Y-137825875D01*
X218287894Y-137816124D01*
X218202972Y-137620814D01*
X218198105Y-137611739D01*
X218082426Y-137432926D01*
X218076136Y-137424757D01*
X217932806Y-137267240D01*
X217925273Y-137260215D01*
X217758139Y-137128222D01*
X217749556Y-137122520D01*
X217712602Y-137102120D01*
X217662631Y-137051687D01*
X217647859Y-136982245D01*
X217672975Y-136915839D01*
X217700327Y-136889232D01*
X217723797Y-136872491D01*
X217879860Y-136761173D01*
X218038096Y-136603489D01*
X218059931Y-136573103D01*
X218165435Y-136426277D01*
X218168453Y-136422077D01*
X218182758Y-136393134D01*
X218265136Y-136226453D01*
X218265137Y-136226451D01*
X218267430Y-136221811D01*
X218324374Y-136034387D01*
X218330865Y-136013023D01*
X218330865Y-136013021D01*
X218332370Y-136008069D01*
X218361529Y-135786590D01*
X218363156Y-135720000D01*
X218344852Y-135497361D01*
X218290431Y-135280702D01*
X218201354Y-135075840D01*
X218080014Y-134888277D01*
X217929670Y-134723051D01*
X217925619Y-134719852D01*
X217925615Y-134719848D01*
X217758414Y-134587800D01*
X217758410Y-134587798D01*
X217754359Y-134584598D01*
X217713053Y-134561796D01*
X217663084Y-134511364D01*
X217648312Y-134441921D01*
X217673428Y-134375516D01*
X217700780Y-134348909D01*
X217795623Y-134281258D01*
X217879860Y-134221173D01*
X218038096Y-134063489D01*
X218061190Y-134031351D01*
X218165435Y-133886277D01*
X218168453Y-133882077D01*
X218205460Y-133807200D01*
X218265136Y-133686453D01*
X218265137Y-133686451D01*
X218267430Y-133681811D01*
X218306932Y-133551794D01*
X218330865Y-133473023D01*
X218330865Y-133473021D01*
X218332370Y-133468069D01*
X218361529Y-133246590D01*
X218363156Y-133180000D01*
X218344852Y-132957361D01*
X218290431Y-132740702D01*
X218201354Y-132535840D01*
X218121553Y-132412487D01*
X218082822Y-132352617D01*
X218082820Y-132352614D01*
X218080014Y-132348277D01*
X217929670Y-132183051D01*
X217925619Y-132179852D01*
X217925615Y-132179848D01*
X217758414Y-132047800D01*
X217758410Y-132047798D01*
X217754359Y-132044598D01*
X217558789Y-131936638D01*
X217553920Y-131934914D01*
X217553916Y-131934912D01*
X217353087Y-131863795D01*
X217353083Y-131863794D01*
X217348212Y-131862069D01*
X217343119Y-131861162D01*
X217343116Y-131861161D01*
X217133373Y-131823800D01*
X217133367Y-131823799D01*
X217128284Y-131822894D01*
X217054452Y-131821992D01*
X216910081Y-131820228D01*
X216910079Y-131820228D01*
X216904911Y-131820165D01*
X216684091Y-131853955D01*
X216471756Y-131923357D01*
X216273607Y-132026507D01*
X216269474Y-132029610D01*
X216269471Y-132029612D01*
X216099100Y-132157530D01*
X216094965Y-132160635D01*
X215940629Y-132322138D01*
X215937715Y-132326410D01*
X215937714Y-132326411D01*
X215925404Y-132344457D01*
X215814743Y-132506680D01*
X215799003Y-132540590D01*
X215738117Y-132671758D01*
X215720688Y-132709305D01*
X215660989Y-132924570D01*
X215637251Y-133146695D01*
X215640859Y-133209258D01*
X215641354Y-133217846D01*
X215625307Y-133287006D01*
X215574417Y-133336510D01*
X215515563Y-133351100D01*
X204215439Y-133351100D01*
X204147318Y-133331098D01*
X204126344Y-133314195D01*
X198291066Y-127478918D01*
X202486917Y-127478918D01*
X202502682Y-127752320D01*
X202503507Y-127756525D01*
X202503508Y-127756533D01*
X202509627Y-127787719D01*
X202555405Y-128021053D01*
X202556792Y-128025103D01*
X202556793Y-128025108D01*
X202642230Y-128274647D01*
X202644112Y-128280144D01*
X202663333Y-128318360D01*
X202730277Y-128451464D01*
X202767160Y-128524799D01*
X202769586Y-128528328D01*
X202769589Y-128528334D01*
X202826126Y-128610595D01*
X202922274Y-128750490D01*
X202925161Y-128753663D01*
X202925162Y-128753664D01*
X203097630Y-128943205D01*
X203106582Y-128953043D01*
X203109877Y-128955798D01*
X203109878Y-128955799D01*
X203136548Y-128978098D01*
X203316675Y-129128707D01*
X203320316Y-129130991D01*
X203545024Y-129271951D01*
X203545028Y-129271953D01*
X203548664Y-129274234D01*
X203616544Y-129304883D01*
X203794345Y-129385164D01*
X203794349Y-129385166D01*
X203798257Y-129386930D01*
X203802377Y-129388150D01*
X203802376Y-129388150D01*
X204056723Y-129463491D01*
X204056727Y-129463492D01*
X204060836Y-129464709D01*
X204065070Y-129465357D01*
X204065075Y-129465358D01*
X204327298Y-129505483D01*
X204327300Y-129505483D01*
X204331540Y-129506132D01*
X204470912Y-129508322D01*
X204601071Y-129510367D01*
X204601077Y-129510367D01*
X204605362Y-129510434D01*
X204877235Y-129477534D01*
X205142127Y-129408041D01*
X205146087Y-129406401D01*
X205146092Y-129406399D01*
X205328668Y-129330773D01*
X205395136Y-129303241D01*
X205631582Y-129165073D01*
X205847089Y-128996094D01*
X205859366Y-128983426D01*
X205989414Y-128849226D01*
X206037669Y-128799431D01*
X206040202Y-128795983D01*
X206040206Y-128795978D01*
X206182910Y-128601710D01*
X206199795Y-128578723D01*
X206227169Y-128528306D01*
X206328418Y-128341830D01*
X206328419Y-128341828D01*
X206330468Y-128338054D01*
X206383903Y-128196643D01*
X206425751Y-128085895D01*
X206425752Y-128085891D01*
X206427269Y-128081877D01*
X206458185Y-127946892D01*
X206487449Y-127819117D01*
X206487450Y-127819113D01*
X206488407Y-127814933D01*
X206490278Y-127793978D01*
X206512531Y-127544627D01*
X206512531Y-127544625D01*
X206512751Y-127542161D01*
X206513193Y-127500000D01*
X206511756Y-127478918D01*
X206494859Y-127231055D01*
X206494858Y-127231049D01*
X206494567Y-127226778D01*
X206439032Y-126958612D01*
X206347617Y-126700465D01*
X206222013Y-126457112D01*
X206212040Y-126442921D01*
X206067008Y-126236562D01*
X206064545Y-126233057D01*
X205878125Y-126032445D01*
X205874810Y-126029731D01*
X205874806Y-126029728D01*
X205669523Y-125861706D01*
X205666205Y-125858990D01*
X205432704Y-125715901D01*
X205428768Y-125714173D01*
X205185873Y-125607549D01*
X205185869Y-125607548D01*
X205181945Y-125605825D01*
X204918566Y-125530800D01*
X204914324Y-125530196D01*
X204914318Y-125530195D01*
X204684197Y-125497444D01*
X204647443Y-125492213D01*
X204503589Y-125491460D01*
X204377877Y-125490802D01*
X204377871Y-125490802D01*
X204373591Y-125490780D01*
X204369347Y-125491339D01*
X204369343Y-125491339D01*
X204250302Y-125507011D01*
X204102078Y-125526525D01*
X204097938Y-125527658D01*
X204097936Y-125527658D01*
X204025008Y-125547609D01*
X203837928Y-125598788D01*
X203824185Y-125604650D01*
X203589982Y-125704546D01*
X203589978Y-125704548D01*
X203586030Y-125706232D01*
X203467414Y-125777222D01*
X203354725Y-125844664D01*
X203354721Y-125844667D01*
X203351043Y-125846868D01*
X203137318Y-126018094D01*
X202948808Y-126216742D01*
X202789002Y-126439136D01*
X202660857Y-126681161D01*
X202659385Y-126685184D01*
X202659383Y-126685188D01*
X202568214Y-126934317D01*
X202566743Y-126938337D01*
X202508404Y-127205907D01*
X202508068Y-127210177D01*
X202487454Y-127472101D01*
X202486917Y-127478918D01*
X198291066Y-127478918D01*
X196253921Y-125441774D01*
X196243053Y-125429383D01*
X196228613Y-125410564D01*
X196228612Y-125410563D01*
X196223586Y-125404013D01*
X196163815Y-125358149D01*
X196096475Y-125306476D01*
X196088849Y-125303317D01*
X196088847Y-125303316D01*
X196022038Y-125275643D01*
X195948450Y-125245162D01*
X195940263Y-125244084D01*
X195940262Y-125244084D01*
X195929057Y-125242609D01*
X195897861Y-125238502D01*
X195829484Y-125229500D01*
X195829481Y-125229500D01*
X195829473Y-125229499D01*
X195797788Y-125225328D01*
X195789599Y-125224250D01*
X195757906Y-125228422D01*
X195741463Y-125229500D01*
X178285735Y-125229500D01*
X178217614Y-125209498D01*
X178190055Y-125182780D01*
X178189050Y-125183666D01*
X178184024Y-125177965D01*
X178179723Y-125171707D01*
X178143704Y-125139615D01*
X178057359Y-125062684D01*
X178057356Y-125062682D01*
X178051687Y-125057631D01*
X178043691Y-125053397D01*
X177962561Y-125010441D01*
X177900135Y-124977388D01*
X177874803Y-124971025D01*
X177741188Y-124937463D01*
X177741184Y-124937463D01*
X177733817Y-124935612D01*
X177726218Y-124935572D01*
X177726216Y-124935572D01*
X177654760Y-124935198D01*
X177562335Y-124934714D01*
X177554955Y-124936486D01*
X177554953Y-124936486D01*
X177402968Y-124972974D01*
X177402964Y-124972975D01*
X177395589Y-124974746D01*
X177388847Y-124978226D01*
X177388841Y-124978228D01*
X177301461Y-125023328D01*
X177231754Y-125036797D01*
X177165831Y-125010441D01*
X177154577Y-125000457D01*
X176845941Y-124691821D01*
X176819225Y-124644405D01*
X176816702Y-124645358D01*
X176758771Y-124492047D01*
X176756087Y-124484944D01*
X176658957Y-124343619D01*
X176653286Y-124338566D01*
X176536593Y-124234596D01*
X176536590Y-124234594D01*
X176530921Y-124229543D01*
X176522925Y-124225309D01*
X176386081Y-124152854D01*
X176386082Y-124152854D01*
X176379369Y-124149300D01*
X176335871Y-124138374D01*
X176220422Y-124109375D01*
X176220418Y-124109375D01*
X176213051Y-124107524D01*
X176205452Y-124107484D01*
X176205450Y-124107484D01*
X176133994Y-124107110D01*
X176041569Y-124106626D01*
X176034189Y-124108398D01*
X176034187Y-124108398D01*
X175882202Y-124144886D01*
X175882198Y-124144887D01*
X175874823Y-124146658D01*
X175722439Y-124225309D01*
X175593215Y-124338039D01*
X175494610Y-124478339D01*
X175432318Y-124638109D01*
X175431326Y-124645642D01*
X175431326Y-124645643D01*
X175425247Y-124691821D01*
X175409935Y-124808126D01*
X175410769Y-124815676D01*
X175423911Y-124934714D01*
X175428753Y-124978575D01*
X175431362Y-124985706D01*
X175431363Y-124985708D01*
X175440414Y-125010441D01*
X175487685Y-125139615D01*
X175491922Y-125145921D01*
X175491924Y-125145924D01*
X175509250Y-125171707D01*
X175583330Y-125281949D01*
X175710165Y-125397360D01*
X175860868Y-125479185D01*
X175868210Y-125481111D01*
X175868212Y-125481112D01*
X175897468Y-125488787D01*
X175954590Y-125521568D01*
X177044307Y-126611285D01*
X177078333Y-126673597D01*
X177073268Y-126744412D01*
X177055179Y-126777076D01*
X177036726Y-126801125D01*
X177036723Y-126801128D01*
X176963676Y-126896324D01*
X176960516Y-126903954D01*
X176934764Y-126966124D01*
X176915965Y-127011510D01*
X176902362Y-127044350D01*
X176901284Y-127052538D01*
X176899293Y-127067658D01*
X176886700Y-127163315D01*
X176886700Y-127163320D01*
X176881450Y-127203200D01*
X176884573Y-127226919D01*
X176885622Y-127234890D01*
X176886700Y-127251336D01*
X176886700Y-134010961D01*
X176866698Y-134079082D01*
X176849795Y-134100056D01*
X175118395Y-135831456D01*
X175056083Y-135865482D01*
X174985268Y-135860417D01*
X174928432Y-135817870D01*
X174903621Y-135751350D01*
X174903300Y-135742361D01*
X174903300Y-134212272D01*
X174918358Y-134153627D01*
X174920224Y-134151030D01*
X174984185Y-133991920D01*
X175008347Y-133822147D01*
X175008504Y-133807200D01*
X174993330Y-133681811D01*
X174988815Y-133644499D01*
X174988814Y-133644496D01*
X174987902Y-133636958D01*
X174955722Y-133551794D01*
X174929971Y-133483647D01*
X174927287Y-133476544D01*
X174873539Y-133398340D01*
X174834459Y-133341478D01*
X174834458Y-133341476D01*
X174830157Y-133335219D01*
X174824486Y-133330166D01*
X174707793Y-133226196D01*
X174707790Y-133226194D01*
X174702121Y-133221143D01*
X174694125Y-133216909D01*
X174571250Y-133151850D01*
X174550569Y-133140900D01*
X174526670Y-133134897D01*
X174391622Y-133100975D01*
X174391618Y-133100975D01*
X174384251Y-133099124D01*
X174376652Y-133099084D01*
X174376650Y-133099084D01*
X174305194Y-133098710D01*
X174212769Y-133098226D01*
X174205389Y-133099998D01*
X174205387Y-133099998D01*
X174053402Y-133136486D01*
X174053398Y-133136487D01*
X174046023Y-133138258D01*
X173893639Y-133216909D01*
X173764415Y-133329639D01*
X173760048Y-133335852D01*
X173760043Y-133335858D01*
X173709963Y-133407114D01*
X173654429Y-133451346D01*
X173583797Y-133458531D01*
X173547921Y-133446018D01*
X173505769Y-133423700D01*
X173404804Y-133398340D01*
X173343609Y-133362346D01*
X173311588Y-133298980D01*
X173309500Y-133276136D01*
X173309500Y-127321136D01*
X173310578Y-127304690D01*
X173313672Y-127281188D01*
X173314750Y-127273000D01*
X173310578Y-127241307D01*
X173309500Y-127224864D01*
X173309500Y-125725308D01*
X173329502Y-125657187D01*
X173383158Y-125610694D01*
X173437478Y-125599324D01*
X173472433Y-125599873D01*
X173574403Y-125601475D01*
X173574406Y-125601475D01*
X173582002Y-125601594D01*
X173589406Y-125599898D01*
X173589408Y-125599898D01*
X173652246Y-125585506D01*
X173749159Y-125563310D01*
X173902358Y-125486259D01*
X173908129Y-125481330D01*
X173908132Y-125481328D01*
X174026978Y-125379823D01*
X174032755Y-125374889D01*
X174123704Y-125248322D01*
X174128392Y-125241798D01*
X174128393Y-125241797D01*
X174132824Y-125235630D01*
X174196785Y-125076520D01*
X174210388Y-124980942D01*
X174220366Y-124910831D01*
X174220366Y-124910827D01*
X174220947Y-124906747D01*
X174221104Y-124891800D01*
X174200502Y-124721558D01*
X174189266Y-124691821D01*
X174142571Y-124568247D01*
X174139887Y-124561144D01*
X174042757Y-124419819D01*
X174037086Y-124414766D01*
X173920393Y-124310796D01*
X173920390Y-124310794D01*
X173914721Y-124305743D01*
X173908007Y-124302188D01*
X173776541Y-124232580D01*
X173725697Y-124183027D01*
X173709500Y-124121226D01*
X173709500Y-122806285D01*
X173729502Y-122738164D01*
X173783158Y-122691671D01*
X173807370Y-122683465D01*
X173868756Y-122669406D01*
X173868760Y-122669405D01*
X173876159Y-122667710D01*
X174029358Y-122590659D01*
X174035129Y-122585730D01*
X174035132Y-122585728D01*
X174153978Y-122484223D01*
X174159755Y-122479289D01*
X174259824Y-122340030D01*
X174323294Y-122182140D01*
X174351107Y-122140042D01*
X179539144Y-116952005D01*
X179601456Y-116917979D01*
X179628239Y-116915100D01*
X188860264Y-116915100D01*
X188876707Y-116916178D01*
X188908400Y-116920350D01*
X188916589Y-116919272D01*
X188948274Y-116915101D01*
X188948284Y-116915100D01*
X188948285Y-116915100D01*
X189047857Y-116901991D01*
X189059064Y-116900516D01*
X189059066Y-116900515D01*
X189067251Y-116899438D01*
X189215276Y-116838124D01*
X189266566Y-116798768D01*
X189310472Y-116765077D01*
X189310475Y-116765074D01*
X189335837Y-116745613D01*
X189342387Y-116740587D01*
X189361858Y-116715213D01*
X189372716Y-116702833D01*
X189825171Y-116250378D01*
X189887483Y-116216352D01*
X189939385Y-116216002D01*
X190148597Y-116258567D01*
X190153772Y-116258757D01*
X190153774Y-116258757D01*
X190366673Y-116266564D01*
X190366677Y-116266564D01*
X190371837Y-116266753D01*
X190376957Y-116266097D01*
X190376959Y-116266097D01*
X190588288Y-116239025D01*
X190588289Y-116239025D01*
X190593416Y-116238368D01*
X190598366Y-116236883D01*
X190802429Y-116175661D01*
X190802434Y-116175659D01*
X190807384Y-116174174D01*
X191007994Y-116075896D01*
X191189860Y-115946173D01*
X191348096Y-115788489D01*
X191353907Y-115780403D01*
X191475435Y-115611277D01*
X191478453Y-115607077D01*
X191523714Y-115515499D01*
X191575136Y-115411453D01*
X191575137Y-115411451D01*
X191577430Y-115406811D01*
X191642370Y-115193069D01*
X191671529Y-114971590D01*
X191673044Y-114909580D01*
X191673074Y-114908365D01*
X191673074Y-114908361D01*
X191673156Y-114905000D01*
X191654852Y-114682361D01*
X191600431Y-114465702D01*
X191511354Y-114260840D01*
X191446702Y-114160903D01*
X191392822Y-114077617D01*
X191392820Y-114077614D01*
X191390014Y-114073277D01*
X191239670Y-113908051D01*
X191235619Y-113904852D01*
X191235615Y-113904848D01*
X191068414Y-113772800D01*
X191068410Y-113772798D01*
X191064359Y-113769598D01*
X191023053Y-113746796D01*
X190973084Y-113696364D01*
X190958312Y-113626921D01*
X190983428Y-113560516D01*
X191010780Y-113533909D01*
X191054603Y-113502650D01*
X191189860Y-113406173D01*
X191348096Y-113248489D01*
X191394238Y-113184276D01*
X191475435Y-113071277D01*
X191478453Y-113067077D01*
X191577430Y-112866811D01*
X191631905Y-112687513D01*
X191640865Y-112658023D01*
X191640865Y-112658021D01*
X191642370Y-112653069D01*
X191671529Y-112431590D01*
X191672277Y-112400989D01*
X191673074Y-112368365D01*
X191673074Y-112368361D01*
X191673156Y-112365000D01*
X191654852Y-112142361D01*
X191600431Y-111925702D01*
X191511354Y-111720840D01*
X191450324Y-111626502D01*
X191392822Y-111537617D01*
X191392820Y-111537614D01*
X191390014Y-111533277D01*
X191239670Y-111368051D01*
X191235619Y-111364852D01*
X191235615Y-111364848D01*
X191068414Y-111232800D01*
X191068410Y-111232798D01*
X191064359Y-111229598D01*
X191023053Y-111206796D01*
X190973084Y-111156364D01*
X190958312Y-111086921D01*
X190983428Y-111020516D01*
X191010780Y-110993909D01*
X191054603Y-110962650D01*
X191189860Y-110866173D01*
X191348096Y-110708489D01*
X191478453Y-110527077D01*
X191487247Y-110509285D01*
X191575136Y-110331453D01*
X191575137Y-110331451D01*
X191577430Y-110326811D01*
X191628419Y-110158986D01*
X191640865Y-110118023D01*
X191640865Y-110118021D01*
X191642370Y-110113069D01*
X191671529Y-109891590D01*
X191673156Y-109825000D01*
X191654852Y-109602361D01*
X191600431Y-109385702D01*
X191511354Y-109180840D01*
X191454240Y-109092555D01*
X191392822Y-108997617D01*
X191392820Y-108997614D01*
X191390014Y-108993277D01*
X191239670Y-108828051D01*
X191235619Y-108824852D01*
X191235615Y-108824848D01*
X191068414Y-108692800D01*
X191068410Y-108692798D01*
X191064359Y-108689598D01*
X191023053Y-108666796D01*
X190973084Y-108616364D01*
X190958312Y-108546921D01*
X190983428Y-108480516D01*
X191010780Y-108453909D01*
X191075648Y-108407639D01*
X191189860Y-108326173D01*
X191228098Y-108288069D01*
X191306576Y-108209864D01*
X191348096Y-108168489D01*
X191396010Y-108101810D01*
X191475435Y-107991277D01*
X191478453Y-107987077D01*
X191488527Y-107966695D01*
X191575136Y-107791453D01*
X191575137Y-107791451D01*
X191577430Y-107786811D01*
X191642370Y-107573069D01*
X191671529Y-107351590D01*
X191673156Y-107285000D01*
X191654852Y-107062361D01*
X191600431Y-106845702D01*
X191511354Y-106640840D01*
X191405280Y-106476874D01*
X191392822Y-106457617D01*
X191392820Y-106457614D01*
X191390014Y-106453277D01*
X191239670Y-106288051D01*
X191235619Y-106284852D01*
X191235615Y-106284848D01*
X191068414Y-106152800D01*
X191068410Y-106152798D01*
X191064359Y-106149598D01*
X190868789Y-106041638D01*
X190863920Y-106039914D01*
X190863916Y-106039912D01*
X190663087Y-105968795D01*
X190663083Y-105968794D01*
X190658212Y-105967069D01*
X190653119Y-105966162D01*
X190653116Y-105966161D01*
X190443373Y-105928800D01*
X190443367Y-105928799D01*
X190438284Y-105927894D01*
X190364452Y-105926992D01*
X190220081Y-105925228D01*
X190220079Y-105925228D01*
X190214911Y-105925165D01*
X189994091Y-105958955D01*
X189781756Y-106028357D01*
X189583607Y-106131507D01*
X189579474Y-106134610D01*
X189579471Y-106134612D01*
X189432480Y-106244976D01*
X189404965Y-106265635D01*
X189389720Y-106281588D01*
X189323898Y-106350466D01*
X189262374Y-106385895D01*
X189191462Y-106382438D01*
X189133676Y-106341192D01*
X189114823Y-106307644D01*
X189073324Y-106196946D01*
X189064786Y-106181351D01*
X188988285Y-106079276D01*
X188975724Y-106066715D01*
X188873649Y-105990214D01*
X188858054Y-105981676D01*
X188737606Y-105936522D01*
X188722351Y-105932895D01*
X188671486Y-105927369D01*
X188664672Y-105927000D01*
X188042115Y-105927000D01*
X188026876Y-105931475D01*
X188025671Y-105932865D01*
X188024000Y-105940548D01*
X188024000Y-107413000D01*
X188003998Y-107481121D01*
X187950342Y-107527614D01*
X187898000Y-107539000D01*
X186430116Y-107539000D01*
X186414877Y-107543475D01*
X186413672Y-107544865D01*
X186412001Y-107552548D01*
X186412001Y-108179669D01*
X186412371Y-108186490D01*
X186417895Y-108237352D01*
X186421521Y-108252604D01*
X186466676Y-108373054D01*
X186475214Y-108388649D01*
X186551715Y-108490724D01*
X186564276Y-108503285D01*
X186666351Y-108579786D01*
X186681946Y-108588324D01*
X186790827Y-108629142D01*
X186847591Y-108671784D01*
X186872291Y-108738345D01*
X186857083Y-108807694D01*
X186837691Y-108834175D01*
X186770766Y-108904208D01*
X186710629Y-108967138D01*
X186707720Y-108971403D01*
X186707714Y-108971411D01*
X186660126Y-109041173D01*
X186584743Y-109151680D01*
X186560920Y-109203002D01*
X186493393Y-109348478D01*
X186490688Y-109354305D01*
X186430989Y-109569570D01*
X186407251Y-109791695D01*
X186407548Y-109796848D01*
X186407548Y-109796851D01*
X186410973Y-109856247D01*
X186394925Y-109925406D01*
X186344035Y-109974911D01*
X186285182Y-109989500D01*
X177155936Y-109989500D01*
X177139493Y-109988422D01*
X177107800Y-109984250D01*
X177099611Y-109985328D01*
X177067926Y-109989499D01*
X177067917Y-109989500D01*
X177067915Y-109989500D01*
X177067909Y-109989501D01*
X177067907Y-109989501D01*
X176968343Y-110002609D01*
X176957136Y-110004084D01*
X176957134Y-110004085D01*
X176948949Y-110005162D01*
X176880728Y-110033420D01*
X176808552Y-110063316D01*
X176808550Y-110063317D01*
X176800924Y-110066476D01*
X176740204Y-110113069D01*
X176673813Y-110164013D01*
X176668787Y-110170563D01*
X176668784Y-110170566D01*
X176654348Y-110189380D01*
X176643481Y-110201771D01*
X173524595Y-113320656D01*
X173462283Y-113354682D01*
X173391467Y-113349617D01*
X173334632Y-113307070D01*
X173309821Y-113240550D01*
X173309500Y-113231561D01*
X173309500Y-110303239D01*
X173329502Y-110235118D01*
X173346405Y-110214144D01*
X174422003Y-109138546D01*
X174484315Y-109104520D01*
X174548463Y-109107309D01*
X174707227Y-109156607D01*
X174712516Y-109157308D01*
X174930489Y-109186198D01*
X174930494Y-109186198D01*
X174935774Y-109186898D01*
X174941103Y-109186698D01*
X174941105Y-109186698D01*
X175050966Y-109182574D01*
X175166158Y-109178249D01*
X175391791Y-109130907D01*
X175396750Y-109128949D01*
X175396752Y-109128948D01*
X175601256Y-109048185D01*
X175601258Y-109048184D01*
X175606221Y-109046224D01*
X175699782Y-108989450D01*
X175798757Y-108929390D01*
X175798756Y-108929390D01*
X175803317Y-108926623D01*
X175853025Y-108883489D01*
X175973412Y-108779023D01*
X175973414Y-108779021D01*
X175977445Y-108775523D01*
X176049944Y-108687104D01*
X176120240Y-108601373D01*
X176120244Y-108601367D01*
X176123624Y-108597245D01*
X176141552Y-108565750D01*
X176192632Y-108516445D01*
X176262262Y-108502583D01*
X176328333Y-108528566D01*
X176355573Y-108557716D01*
X176437441Y-108679319D01*
X176441120Y-108683176D01*
X176441122Y-108683178D01*
X176459151Y-108702077D01*
X176596576Y-108846135D01*
X176781542Y-108983754D01*
X176786293Y-108986170D01*
X176786297Y-108986172D01*
X176850352Y-109018739D01*
X176987051Y-109088240D01*
X176992145Y-109089822D01*
X176992148Y-109089823D01*
X177174800Y-109146538D01*
X177207227Y-109156607D01*
X177212516Y-109157308D01*
X177430489Y-109186198D01*
X177430494Y-109186198D01*
X177435774Y-109186898D01*
X177441103Y-109186698D01*
X177441105Y-109186698D01*
X177550966Y-109182574D01*
X177666158Y-109178249D01*
X177891791Y-109130907D01*
X177896750Y-109128949D01*
X177896752Y-109128948D01*
X178101256Y-109048185D01*
X178101258Y-109048184D01*
X178106221Y-109046224D01*
X178199782Y-108989450D01*
X178298757Y-108929390D01*
X178298756Y-108929390D01*
X178303317Y-108926623D01*
X178353025Y-108883489D01*
X178473412Y-108779023D01*
X178473414Y-108779021D01*
X178477445Y-108775523D01*
X178549944Y-108687104D01*
X178620240Y-108601373D01*
X178620244Y-108601367D01*
X178623624Y-108597245D01*
X178641552Y-108565750D01*
X178692632Y-108516445D01*
X178762262Y-108502583D01*
X178828333Y-108528566D01*
X178855573Y-108557716D01*
X178937441Y-108679319D01*
X178941120Y-108683176D01*
X178941122Y-108683178D01*
X178959151Y-108702077D01*
X179096576Y-108846135D01*
X179281542Y-108983754D01*
X179286293Y-108986170D01*
X179286297Y-108986172D01*
X179350352Y-109018739D01*
X179487051Y-109088240D01*
X179492145Y-109089822D01*
X179492148Y-109089823D01*
X179674800Y-109146538D01*
X179707227Y-109156607D01*
X179712516Y-109157308D01*
X179930489Y-109186198D01*
X179930494Y-109186198D01*
X179935774Y-109186898D01*
X179941103Y-109186698D01*
X179941105Y-109186698D01*
X180050966Y-109182574D01*
X180166158Y-109178249D01*
X180391791Y-109130907D01*
X180396750Y-109128949D01*
X180396752Y-109128948D01*
X180601256Y-109048185D01*
X180601258Y-109048184D01*
X180606221Y-109046224D01*
X180699782Y-108989450D01*
X180798757Y-108929390D01*
X180798756Y-108929390D01*
X180803317Y-108926623D01*
X180853025Y-108883489D01*
X180973412Y-108779023D01*
X180973414Y-108779021D01*
X180977445Y-108775523D01*
X181049944Y-108687104D01*
X181120240Y-108601373D01*
X181120244Y-108601367D01*
X181123624Y-108597245D01*
X181129115Y-108587600D01*
X181235032Y-108401529D01*
X181237675Y-108396886D01*
X181316337Y-108180175D01*
X181317287Y-108174923D01*
X181356623Y-107957392D01*
X181356624Y-107957385D01*
X181357361Y-107953308D01*
X181358500Y-107929156D01*
X181358500Y-107517110D01*
X181344737Y-107354908D01*
X181344371Y-107350591D01*
X181344370Y-107350587D01*
X181343920Y-107345280D01*
X181342582Y-107340125D01*
X181342581Y-107340119D01*
X181287343Y-107127297D01*
X181287342Y-107127293D01*
X181286001Y-107122128D01*
X181276437Y-107100895D01*
X181236791Y-107012885D01*
X186412000Y-107012885D01*
X186416475Y-107028124D01*
X186417865Y-107029329D01*
X186425548Y-107031000D01*
X187497885Y-107031000D01*
X187513124Y-107026525D01*
X187514329Y-107025135D01*
X187516000Y-107017452D01*
X187516000Y-105945116D01*
X187511525Y-105929877D01*
X187510135Y-105928672D01*
X187502452Y-105927001D01*
X186875331Y-105927001D01*
X186868510Y-105927371D01*
X186817648Y-105932895D01*
X186802396Y-105936521D01*
X186681946Y-105981676D01*
X186666351Y-105990214D01*
X186564276Y-106066715D01*
X186551715Y-106079276D01*
X186475214Y-106181351D01*
X186466676Y-106196946D01*
X186421522Y-106317394D01*
X186417895Y-106332649D01*
X186412369Y-106383514D01*
X186412000Y-106390328D01*
X186412000Y-107012885D01*
X181236791Y-107012885D01*
X181193507Y-106916798D01*
X181191312Y-106911925D01*
X181062559Y-106720681D01*
X181039660Y-106696676D01*
X180907103Y-106557722D01*
X180903424Y-106553865D01*
X180718458Y-106416246D01*
X180713707Y-106413830D01*
X180713703Y-106413828D01*
X180589078Y-106350466D01*
X180512949Y-106311760D01*
X180507855Y-106310178D01*
X180507852Y-106310177D01*
X180297871Y-106244976D01*
X180292773Y-106243393D01*
X180287484Y-106242692D01*
X180069511Y-106213802D01*
X180069506Y-106213802D01*
X180064226Y-106213102D01*
X180058897Y-106213302D01*
X180058895Y-106213302D01*
X179960368Y-106217001D01*
X179833842Y-106221751D01*
X179828623Y-106222846D01*
X179808849Y-106226995D01*
X179608209Y-106269093D01*
X179603250Y-106271051D01*
X179603248Y-106271052D01*
X179398744Y-106351815D01*
X179398742Y-106351816D01*
X179393779Y-106353776D01*
X179389220Y-106356543D01*
X179389217Y-106356544D01*
X179290832Y-106416246D01*
X179196683Y-106473377D01*
X179192653Y-106476874D01*
X179099484Y-106557722D01*
X179022555Y-106624477D01*
X178997078Y-106655548D01*
X178879760Y-106798627D01*
X178879756Y-106798633D01*
X178876376Y-106802755D01*
X178858448Y-106834250D01*
X178807368Y-106883555D01*
X178737738Y-106897417D01*
X178671667Y-106871434D01*
X178644427Y-106842284D01*
X178588449Y-106759137D01*
X178562559Y-106720681D01*
X178539660Y-106696676D01*
X178407103Y-106557722D01*
X178403424Y-106553865D01*
X178218458Y-106416246D01*
X178213707Y-106413830D01*
X178213703Y-106413828D01*
X178089078Y-106350466D01*
X178012949Y-106311760D01*
X178007855Y-106310178D01*
X178007852Y-106310177D01*
X177797871Y-106244976D01*
X177792773Y-106243393D01*
X177787484Y-106242692D01*
X177569511Y-106213802D01*
X177569506Y-106213802D01*
X177564226Y-106213102D01*
X177558897Y-106213302D01*
X177558895Y-106213302D01*
X177460368Y-106217001D01*
X177333842Y-106221751D01*
X177328623Y-106222846D01*
X177308849Y-106226995D01*
X177108209Y-106269093D01*
X177103250Y-106271051D01*
X177103248Y-106271052D01*
X176898744Y-106351815D01*
X176898742Y-106351816D01*
X176893779Y-106353776D01*
X176889220Y-106356543D01*
X176889217Y-106356544D01*
X176790832Y-106416246D01*
X176696683Y-106473377D01*
X176692653Y-106476874D01*
X176599484Y-106557722D01*
X176522555Y-106624477D01*
X176497078Y-106655548D01*
X176379760Y-106798627D01*
X176379756Y-106798633D01*
X176376376Y-106802755D01*
X176358448Y-106834250D01*
X176307368Y-106883555D01*
X176237738Y-106897417D01*
X176171667Y-106871434D01*
X176144427Y-106842284D01*
X176088449Y-106759137D01*
X176062559Y-106720681D01*
X176039660Y-106696676D01*
X175907103Y-106557722D01*
X175903424Y-106553865D01*
X175718458Y-106416246D01*
X175713707Y-106413830D01*
X175713703Y-106413828D01*
X175589078Y-106350466D01*
X175512949Y-106311760D01*
X175507855Y-106310178D01*
X175507852Y-106310177D01*
X175297871Y-106244976D01*
X175292773Y-106243393D01*
X175287484Y-106242692D01*
X175069511Y-106213802D01*
X175069506Y-106213802D01*
X175064226Y-106213102D01*
X175058897Y-106213302D01*
X175058895Y-106213302D01*
X174960368Y-106217001D01*
X174833842Y-106221751D01*
X174828623Y-106222846D01*
X174808849Y-106226995D01*
X174608209Y-106269093D01*
X174603250Y-106271051D01*
X174603248Y-106271052D01*
X174398744Y-106351815D01*
X174398742Y-106351816D01*
X174393779Y-106353776D01*
X174389220Y-106356543D01*
X174389217Y-106356544D01*
X174290832Y-106416246D01*
X174196683Y-106473377D01*
X174192653Y-106476874D01*
X174099484Y-106557722D01*
X174022555Y-106624477D01*
X173997078Y-106655548D01*
X173879760Y-106798627D01*
X173879756Y-106798633D01*
X173876376Y-106802755D01*
X173858448Y-106834250D01*
X173807368Y-106883555D01*
X173737738Y-106897417D01*
X173671667Y-106871434D01*
X173644427Y-106842284D01*
X173588449Y-106759137D01*
X173562559Y-106720681D01*
X173539660Y-106696676D01*
X173407103Y-106557722D01*
X173403424Y-106553865D01*
X173218458Y-106416246D01*
X173213707Y-106413830D01*
X173213703Y-106413828D01*
X173089078Y-106350466D01*
X173012949Y-106311760D01*
X173007855Y-106310178D01*
X173007852Y-106310177D01*
X172797871Y-106244976D01*
X172792773Y-106243393D01*
X172787484Y-106242692D01*
X172569511Y-106213802D01*
X172569506Y-106213802D01*
X172564226Y-106213102D01*
X172558897Y-106213302D01*
X172558895Y-106213302D01*
X172460368Y-106217001D01*
X172333842Y-106221751D01*
X172328623Y-106222846D01*
X172308849Y-106226995D01*
X172108209Y-106269093D01*
X172103250Y-106271051D01*
X172103248Y-106271052D01*
X171898744Y-106351815D01*
X171898742Y-106351816D01*
X171893779Y-106353776D01*
X171889220Y-106356543D01*
X171889217Y-106356544D01*
X171790832Y-106416246D01*
X171696683Y-106473377D01*
X171692653Y-106476874D01*
X171599484Y-106557722D01*
X171522555Y-106624477D01*
X171507883Y-106642371D01*
X171492994Y-106660529D01*
X171434334Y-106700524D01*
X171363364Y-106702455D01*
X171302616Y-106665710D01*
X171288416Y-106646941D01*
X171201937Y-106507193D01*
X171192901Y-106495792D01*
X171078171Y-106381261D01*
X171066760Y-106372249D01*
X170928757Y-106287184D01*
X170915576Y-106281037D01*
X170761290Y-106229862D01*
X170747914Y-106226995D01*
X170653562Y-106217328D01*
X170647145Y-106217000D01*
X170272115Y-106217000D01*
X170256876Y-106221475D01*
X170255671Y-106222865D01*
X170254000Y-106230548D01*
X170254000Y-107828000D01*
X170233998Y-107896121D01*
X170180342Y-107942614D01*
X170128000Y-107954000D01*
X168660116Y-107954000D01*
X168644877Y-107958475D01*
X168643672Y-107959865D01*
X168642001Y-107967548D01*
X168642001Y-108472095D01*
X168642338Y-108478614D01*
X168652257Y-108574206D01*
X168655149Y-108587600D01*
X168706588Y-108741784D01*
X168712761Y-108754962D01*
X168798063Y-108892807D01*
X168807099Y-108904208D01*
X168921829Y-109018739D01*
X168933240Y-109027751D01*
X169071243Y-109112816D01*
X169084424Y-109118963D01*
X169238710Y-109170138D01*
X169252086Y-109173005D01*
X169346438Y-109182672D01*
X169352854Y-109183000D01*
X169455079Y-109183000D01*
X169523200Y-109203002D01*
X169569693Y-109256658D01*
X169579797Y-109326932D01*
X169550303Y-109391512D01*
X169544174Y-109398095D01*
X169032152Y-109910117D01*
X169019761Y-109920984D01*
X169007540Y-109930361D01*
X169007536Y-109930365D01*
X169003089Y-109933777D01*
X168999314Y-109937926D01*
X168950498Y-109991574D01*
X168946399Y-109995870D01*
X168931158Y-110011111D01*
X168929357Y-110013264D01*
X168929356Y-110013266D01*
X168915140Y-110030268D01*
X168911679Y-110034235D01*
X168857903Y-110093335D01*
X168854920Y-110098090D01*
X168848929Y-110107639D01*
X168838859Y-110121499D01*
X168828030Y-110134451D01*
X168796699Y-110189380D01*
X168788438Y-110203863D01*
X168785742Y-110208368D01*
X168743266Y-110276081D01*
X168741172Y-110281291D01*
X168741171Y-110281292D01*
X168736969Y-110291745D01*
X168729510Y-110307174D01*
X168721147Y-110321837D01*
X168719276Y-110327120D01*
X168719273Y-110327127D01*
X168694470Y-110397170D01*
X168692615Y-110402078D01*
X168662803Y-110476239D01*
X168661664Y-110481737D01*
X168661664Y-110481738D01*
X168659378Y-110492776D01*
X168654773Y-110509272D01*
X168649136Y-110525190D01*
X168648230Y-110530724D01*
X168648229Y-110530727D01*
X168636226Y-110604029D01*
X168635264Y-110609220D01*
X168619056Y-110687483D01*
X168618790Y-110692094D01*
X168618790Y-110692095D01*
X168617532Y-110713912D01*
X168616085Y-110727017D01*
X168615228Y-110732251D01*
X168614274Y-110738080D01*
X168614362Y-110743694D01*
X168614362Y-110743696D01*
X168615884Y-110840581D01*
X168615900Y-110842560D01*
X168615900Y-127332300D01*
X168595898Y-127400421D01*
X168542242Y-127446914D01*
X168489900Y-127458300D01*
X162100144Y-127458300D01*
X162083698Y-127457222D01*
X162060188Y-127454127D01*
X162052000Y-127453049D01*
X161893149Y-127473962D01*
X161745124Y-127535276D01*
X161711566Y-127561026D01*
X161649937Y-127608315D01*
X161649921Y-127608329D01*
X161624566Y-127627784D01*
X161624563Y-127627787D01*
X161618013Y-127632813D01*
X161612983Y-127639368D01*
X161598548Y-127658179D01*
X161587681Y-127670570D01*
X161344783Y-127913468D01*
X161285102Y-127946892D01*
X161251802Y-127954886D01*
X161251798Y-127954887D01*
X161244423Y-127956658D01*
X161092039Y-128035309D01*
X160962815Y-128148039D01*
X160864210Y-128288339D01*
X160844827Y-128338054D01*
X160807819Y-128432975D01*
X160801918Y-128448109D01*
X160800926Y-128455642D01*
X160800926Y-128455643D01*
X160780645Y-128609698D01*
X160779535Y-128618126D01*
X160780369Y-128625676D01*
X160796241Y-128769442D01*
X160798353Y-128788575D01*
X160800962Y-128795706D01*
X160800963Y-128795708D01*
X160824002Y-128858664D01*
X160857285Y-128949615D01*
X160861522Y-128955921D01*
X160861524Y-128955924D01*
X160886445Y-128993010D01*
X160952930Y-129091949D01*
X161079765Y-129207360D01*
X161230468Y-129289185D01*
X161396339Y-129332701D01*
X161483786Y-129334074D01*
X161560203Y-129335275D01*
X161560206Y-129335275D01*
X161567802Y-129335394D01*
X161575206Y-129333698D01*
X161575208Y-129333698D01*
X161638046Y-129319306D01*
X161734959Y-129297110D01*
X161888158Y-129220059D01*
X161893929Y-129215130D01*
X161893932Y-129215128D01*
X162012778Y-129113623D01*
X162018555Y-129108689D01*
X162101680Y-128993010D01*
X162114192Y-128975598D01*
X162114193Y-128975597D01*
X162118624Y-128969430D01*
X162182094Y-128811540D01*
X162209907Y-128769442D01*
X162267144Y-128712205D01*
X162329456Y-128678179D01*
X162356239Y-128675300D01*
X168489900Y-128675300D01*
X168558021Y-128695302D01*
X168604514Y-128748958D01*
X168615900Y-128801300D01*
X168615900Y-129876233D01*
X168595898Y-129944354D01*
X168578995Y-129965328D01*
X164305817Y-134238506D01*
X164243505Y-134272532D01*
X164172690Y-134267467D01*
X164157763Y-134260765D01*
X164016281Y-134185854D01*
X164016282Y-134185854D01*
X164009569Y-134182300D01*
X163991996Y-134177886D01*
X163850622Y-134142375D01*
X163850618Y-134142375D01*
X163843251Y-134140524D01*
X163835652Y-134140484D01*
X163835650Y-134140484D01*
X163764194Y-134140110D01*
X163671769Y-134139626D01*
X163664389Y-134141398D01*
X163664387Y-134141398D01*
X163512402Y-134177886D01*
X163512398Y-134177887D01*
X163505023Y-134179658D01*
X163441834Y-134212272D01*
X163365897Y-134251466D01*
X163308107Y-134265500D01*
X159633897Y-134265500D01*
X159603204Y-134261704D01*
X159525251Y-134242124D01*
X159517652Y-134242084D01*
X159517650Y-134242084D01*
X159446194Y-134241710D01*
X159353769Y-134241226D01*
X159346389Y-134242998D01*
X159346387Y-134242998D01*
X159194402Y-134279486D01*
X159194398Y-134279487D01*
X159187023Y-134281258D01*
X159034639Y-134359909D01*
X158905415Y-134472639D01*
X158806810Y-134612939D01*
X158804050Y-134620019D01*
X158756243Y-134742637D01*
X158744518Y-134772709D01*
X158722135Y-134942726D01*
X158722969Y-134950276D01*
X158737356Y-135080590D01*
X158740953Y-135113175D01*
X158743562Y-135120306D01*
X158743563Y-135120308D01*
X158762600Y-135172328D01*
X158799885Y-135274215D01*
X158895530Y-135416549D01*
X158901146Y-135421659D01*
X159001144Y-135512650D01*
X159022365Y-135531960D01*
X159173068Y-135613785D01*
X159338939Y-135657301D01*
X159426386Y-135658674D01*
X159502803Y-135659875D01*
X159502806Y-135659875D01*
X159510402Y-135659994D01*
X159517806Y-135658298D01*
X159517808Y-135658298D01*
X159580646Y-135643906D01*
X159677559Y-135621710D01*
X159830758Y-135544659D01*
X159868191Y-135512688D01*
X159932979Y-135483658D01*
X159950020Y-135482500D01*
X162757633Y-135482500D01*
X162825754Y-135502502D01*
X162872247Y-135556158D01*
X162882351Y-135626432D01*
X162852857Y-135691012D01*
X162846728Y-135697595D01*
X157678958Y-140865365D01*
X157575830Y-140988705D01*
X157468947Y-141176091D01*
X157467078Y-141181368D01*
X157467076Y-141181373D01*
X157398809Y-141374154D01*
X157396936Y-141379444D01*
X157362074Y-141592334D01*
X157362162Y-141597948D01*
X157362162Y-141597950D01*
X157363736Y-141698134D01*
X157365462Y-141808033D01*
X157366542Y-141813535D01*
X157366542Y-141813540D01*
X157387908Y-141922444D01*
X157381395Y-141993141D01*
X157337693Y-142049094D01*
X157264265Y-142072701D01*
X156096935Y-142072701D01*
X156080492Y-142071623D01*
X156048799Y-142067451D01*
X156040610Y-142068529D01*
X156008925Y-142072700D01*
X156008916Y-142072701D01*
X156008914Y-142072701D01*
X156008908Y-142072702D01*
X156008906Y-142072702D01*
X155909342Y-142085810D01*
X155898135Y-142087285D01*
X155898133Y-142087286D01*
X155889948Y-142088363D01*
X155741923Y-142149677D01*
X155735372Y-142154704D01*
X155735370Y-142154705D01*
X155724341Y-142163168D01*
X155646727Y-142222724D01*
X155646724Y-142222727D01*
X155614812Y-142247214D01*
X155609782Y-142253769D01*
X155595347Y-142272580D01*
X155584480Y-142284971D01*
X152215048Y-145654403D01*
X152152736Y-145688429D01*
X152088287Y-145684358D01*
X152088087Y-145685116D01*
X152084256Y-145684104D01*
X152083895Y-145684081D01*
X152083089Y-145683796D01*
X152078212Y-145682069D01*
X152073123Y-145681162D01*
X152073121Y-145681162D01*
X151863373Y-145643800D01*
X151863367Y-145643799D01*
X151858284Y-145642894D01*
X151784452Y-145641992D01*
X151640081Y-145640228D01*
X151640079Y-145640228D01*
X151634911Y-145640165D01*
X151414091Y-145673955D01*
X151201756Y-145743357D01*
X151153488Y-145768484D01*
X151033788Y-145830796D01*
X151003607Y-145846507D01*
X150999474Y-145849610D01*
X150999471Y-145849612D01*
X150831070Y-145976051D01*
X150824965Y-145980635D01*
X150799541Y-146007240D01*
X150731280Y-146078671D01*
X150670629Y-146142138D01*
X150563201Y-146299621D01*
X150508293Y-146344621D01*
X150437768Y-146352792D01*
X150374021Y-146321538D01*
X150353324Y-146297054D01*
X150272822Y-146172617D01*
X150272820Y-146172614D01*
X150270014Y-146168277D01*
X150119670Y-146003051D01*
X150115619Y-145999852D01*
X150115615Y-145999848D01*
X149948414Y-145867800D01*
X149948410Y-145867798D01*
X149944359Y-145864598D01*
X149908028Y-145844542D01*
X149892136Y-145835769D01*
X149748789Y-145756638D01*
X149743920Y-145754914D01*
X149743916Y-145754912D01*
X149543087Y-145683795D01*
X149543083Y-145683794D01*
X149538212Y-145682069D01*
X149533119Y-145681162D01*
X149533116Y-145681161D01*
X149323373Y-145643800D01*
X149323367Y-145643799D01*
X149318284Y-145642894D01*
X149244452Y-145641992D01*
X149100081Y-145640228D01*
X149100079Y-145640228D01*
X149094911Y-145640165D01*
X148874091Y-145673955D01*
X148661756Y-145743357D01*
X148613488Y-145768484D01*
X148493788Y-145830796D01*
X148463607Y-145846507D01*
X148459474Y-145849610D01*
X148459471Y-145849612D01*
X148291070Y-145976051D01*
X148284965Y-145980635D01*
X148259541Y-146007240D01*
X148191280Y-146078671D01*
X148130629Y-146142138D01*
X148127720Y-146146403D01*
X148127714Y-146146411D01*
X148083024Y-146211925D01*
X148023204Y-146299618D01*
X148022898Y-146300066D01*
X147967987Y-146345069D01*
X147897462Y-146353240D01*
X147833715Y-146321986D01*
X147813018Y-146297502D01*
X147732426Y-146172926D01*
X147726136Y-146164757D01*
X147582806Y-146007240D01*
X147575273Y-146000215D01*
X147408139Y-145868222D01*
X147399552Y-145862517D01*
X147213117Y-145759599D01*
X147203705Y-145755369D01*
X147002959Y-145684280D01*
X146992988Y-145681646D01*
X146921837Y-145668972D01*
X146908540Y-145670432D01*
X146904000Y-145684989D01*
X146904000Y-148318517D01*
X146396000Y-148318517D01*
X146396000Y-147272115D01*
X146391525Y-147256876D01*
X146390135Y-147255671D01*
X146382452Y-147254000D01*
X145333225Y-147254000D01*
X145319694Y-147257973D01*
X145318257Y-147267966D01*
X143898500Y-147267966D01*
X143898500Y-146734183D01*
X145314389Y-146734183D01*
X145315912Y-146742607D01*
X145328292Y-146746000D01*
X146377885Y-146746000D01*
X146393124Y-146741525D01*
X146394329Y-146740135D01*
X146396000Y-146732452D01*
X146396000Y-145683102D01*
X146392082Y-145669758D01*
X146377806Y-145667771D01*
X146339324Y-145673660D01*
X146329288Y-145676051D01*
X146126868Y-145742212D01*
X146117359Y-145746209D01*
X145928463Y-145844542D01*
X145919738Y-145850036D01*
X145749433Y-145977905D01*
X145741726Y-145984748D01*
X145594590Y-146138717D01*
X145588104Y-146146727D01*
X145468098Y-146322649D01*
X145463000Y-146331623D01*
X145373338Y-146524783D01*
X145369775Y-146534470D01*
X145314389Y-146734183D01*
X143898500Y-146734183D01*
X143898500Y-146101866D01*
X143891745Y-146039684D01*
X143840615Y-145903295D01*
X143753261Y-145786739D01*
X143636705Y-145699385D01*
X143500316Y-145648255D01*
X143438134Y-145641500D01*
X141641866Y-145641500D01*
X141579684Y-145648255D01*
X141443295Y-145699385D01*
X141326739Y-145786739D01*
X141239385Y-145903295D01*
X141236233Y-145911703D01*
X141194919Y-146021907D01*
X141152277Y-146078671D01*
X141085716Y-146103371D01*
X141016367Y-146088163D01*
X140983743Y-146062476D01*
X140933151Y-146006875D01*
X140933142Y-146006866D01*
X140929670Y-146003051D01*
X140925619Y-145999852D01*
X140925615Y-145999848D01*
X140758414Y-145867800D01*
X140758410Y-145867798D01*
X140754359Y-145864598D01*
X140718028Y-145844542D01*
X140702136Y-145835769D01*
X140558789Y-145756638D01*
X140553920Y-145754914D01*
X140553916Y-145754912D01*
X140353087Y-145683795D01*
X140353083Y-145683794D01*
X140348212Y-145682069D01*
X140343119Y-145681162D01*
X140343116Y-145681161D01*
X140133373Y-145643800D01*
X140133367Y-145643799D01*
X140128284Y-145642894D01*
X140054452Y-145641992D01*
X139910081Y-145640228D01*
X139910079Y-145640228D01*
X139904911Y-145640165D01*
X139684091Y-145673955D01*
X139471756Y-145743357D01*
X139423488Y-145768484D01*
X139303788Y-145830796D01*
X139273607Y-145846507D01*
X139269474Y-145849610D01*
X139269471Y-145849612D01*
X139101070Y-145976051D01*
X139094965Y-145980635D01*
X139069541Y-146007240D01*
X139001280Y-146078671D01*
X138940629Y-146142138D01*
X138937720Y-146146403D01*
X138937714Y-146146411D01*
X138893024Y-146211925D01*
X138833204Y-146299618D01*
X138832898Y-146300066D01*
X138777987Y-146345069D01*
X138707462Y-146353240D01*
X138643715Y-146321986D01*
X138623018Y-146297502D01*
X138542426Y-146172926D01*
X138536136Y-146164757D01*
X138392806Y-146007240D01*
X138385273Y-146000215D01*
X138218139Y-145868222D01*
X138209552Y-145862517D01*
X138023117Y-145759599D01*
X138013705Y-145755369D01*
X137812959Y-145684280D01*
X137802988Y-145681646D01*
X137731837Y-145668972D01*
X137718540Y-145670432D01*
X137714000Y-145684989D01*
X137714000Y-148318517D01*
X137206000Y-148318517D01*
X137206000Y-147272115D01*
X137201525Y-147256876D01*
X137200135Y-147255671D01*
X137192452Y-147254000D01*
X135192115Y-147254000D01*
X135176876Y-147258475D01*
X135175671Y-147259865D01*
X135174000Y-147267548D01*
X135174000Y-148318517D01*
X134666000Y-148318517D01*
X134666000Y-147272115D01*
X134661525Y-147256876D01*
X134660135Y-147255671D01*
X134652452Y-147254000D01*
X133603225Y-147254000D01*
X133589694Y-147257973D01*
X133588257Y-147267966D01*
X131124400Y-147267966D01*
X131113201Y-147250387D01*
X131107705Y-147240867D01*
X131077524Y-147182890D01*
X130931858Y-146903067D01*
X130927216Y-146893114D01*
X130918471Y-146872000D01*
X130861385Y-146734183D01*
X133584389Y-146734183D01*
X133585912Y-146742607D01*
X133598292Y-146746000D01*
X134647885Y-146746000D01*
X134663124Y-146741525D01*
X134664329Y-146740135D01*
X134666000Y-146732452D01*
X134666000Y-146727885D01*
X135174000Y-146727885D01*
X135178475Y-146743124D01*
X135179865Y-146744329D01*
X135187548Y-146746000D01*
X137187885Y-146746000D01*
X137203124Y-146741525D01*
X137204329Y-146740135D01*
X137206000Y-146732452D01*
X137206000Y-145683102D01*
X137202082Y-145669758D01*
X137187806Y-145667771D01*
X137149324Y-145673660D01*
X137139288Y-145676051D01*
X136936868Y-145742212D01*
X136927359Y-145746209D01*
X136738463Y-145844542D01*
X136729738Y-145850036D01*
X136559433Y-145977905D01*
X136551726Y-145984748D01*
X136404590Y-146138717D01*
X136398104Y-146146727D01*
X136293193Y-146300521D01*
X136238282Y-146345524D01*
X136167757Y-146353695D01*
X136104010Y-146322441D01*
X136083313Y-146297957D01*
X136002427Y-146172926D01*
X135996136Y-146164757D01*
X135852806Y-146007240D01*
X135845273Y-146000215D01*
X135678139Y-145868222D01*
X135669552Y-145862517D01*
X135483117Y-145759599D01*
X135473705Y-145755369D01*
X135272959Y-145684280D01*
X135262988Y-145681646D01*
X135191837Y-145668972D01*
X135178540Y-145670432D01*
X135174000Y-145684989D01*
X135174000Y-146727885D01*
X134666000Y-146727885D01*
X134666000Y-145683102D01*
X134662082Y-145669758D01*
X134647806Y-145667771D01*
X134609324Y-145673660D01*
X134599288Y-145676051D01*
X134396868Y-145742212D01*
X134387359Y-145746209D01*
X134198463Y-145844542D01*
X134189738Y-145850036D01*
X134019433Y-145977905D01*
X134011726Y-145984748D01*
X133864590Y-146138717D01*
X133858104Y-146146727D01*
X133738098Y-146322649D01*
X133733000Y-146331623D01*
X133643338Y-146524783D01*
X133639775Y-146534470D01*
X133584389Y-146734183D01*
X130861385Y-146734183D01*
X130781471Y-146541254D01*
X130777715Y-146530932D01*
X130775777Y-146524783D01*
X130663198Y-146167731D01*
X130660353Y-146157114D01*
X130658050Y-146146727D01*
X130577926Y-145785307D01*
X130576018Y-145774490D01*
X130575872Y-145773377D01*
X130526310Y-145396913D01*
X130525352Y-145385964D01*
X130510561Y-145047206D01*
X130512188Y-145020805D01*
X130512769Y-145017352D01*
X130512770Y-145017345D01*
X130513576Y-145012552D01*
X130513729Y-145000000D01*
X130509773Y-144972376D01*
X130508500Y-144954514D01*
X130508500Y-135585189D01*
X140951480Y-135585189D01*
X140951744Y-135590788D01*
X140951744Y-135590790D01*
X140955160Y-135663223D01*
X140955300Y-135669158D01*
X140955300Y-135690735D01*
X140955549Y-135693521D01*
X140955549Y-135693529D01*
X140957519Y-135715601D01*
X140957878Y-135720865D01*
X140961642Y-135800675D01*
X140962892Y-135806134D01*
X140962893Y-135806139D01*
X140965411Y-135817132D01*
X140968092Y-135834063D01*
X140969592Y-135850872D01*
X140971073Y-135856284D01*
X140971074Y-135856292D01*
X140990675Y-135927941D01*
X140991961Y-135933059D01*
X141009802Y-136010957D01*
X141012002Y-136016114D01*
X141012004Y-136016121D01*
X141016424Y-136026483D01*
X141022061Y-136042670D01*
X141025034Y-136053537D01*
X141025037Y-136053544D01*
X141026516Y-136058952D01*
X141028928Y-136064010D01*
X141028930Y-136064014D01*
X141060919Y-136131080D01*
X141063086Y-136135879D01*
X141094440Y-136209386D01*
X141097519Y-136214074D01*
X141097521Y-136214077D01*
X141103707Y-136223494D01*
X141112122Y-136238428D01*
X141119389Y-136253663D01*
X141122662Y-136258218D01*
X141122668Y-136258228D01*
X141166010Y-136318544D01*
X141169000Y-136322894D01*
X141202227Y-136373477D01*
X141212878Y-136389692D01*
X141215945Y-136393134D01*
X141230491Y-136409460D01*
X141238738Y-136419755D01*
X141245274Y-136428851D01*
X141249304Y-136432756D01*
X141318950Y-136500248D01*
X141320360Y-136501637D01*
X142465565Y-137646842D01*
X142588905Y-137749970D01*
X142776291Y-137856853D01*
X142781568Y-137858722D01*
X142781573Y-137858724D01*
X142974354Y-137926991D01*
X142974357Y-137926992D01*
X142979644Y-137928864D01*
X142985183Y-137929771D01*
X143171845Y-137960338D01*
X143192534Y-137963726D01*
X143198148Y-137963638D01*
X143198150Y-137963638D01*
X143313241Y-137961830D01*
X143408233Y-137960338D01*
X143413738Y-137959258D01*
X143614415Y-137919887D01*
X143614419Y-137919886D01*
X143619923Y-137918806D01*
X143625149Y-137916768D01*
X143625154Y-137916767D01*
X143761565Y-137863582D01*
X143820914Y-137840443D01*
X144004850Y-137727727D01*
X144009042Y-137723992D01*
X144009046Y-137723989D01*
X144161727Y-137587954D01*
X144165919Y-137584219D01*
X144299031Y-137414457D01*
X144313639Y-137386868D01*
X144397347Y-137228767D01*
X144397348Y-137228765D01*
X144399974Y-137223805D01*
X144465563Y-137018292D01*
X144493720Y-136804411D01*
X144483558Y-136588925D01*
X144435398Y-136378643D01*
X144433197Y-136373482D01*
X144433195Y-136373477D01*
X144352964Y-136185381D01*
X144352964Y-136185380D01*
X144350760Y-136180214D01*
X144347681Y-136175527D01*
X144347678Y-136175521D01*
X144249778Y-136026483D01*
X144232322Y-135999908D01*
X144229259Y-135996470D01*
X144229255Y-135996465D01*
X144197057Y-135960328D01*
X144195848Y-135958971D01*
X143409205Y-135172328D01*
X143375179Y-135110016D01*
X143372300Y-135083233D01*
X143372300Y-133676500D01*
X143392302Y-133608379D01*
X143445958Y-133561886D01*
X143498300Y-133550500D01*
X156252053Y-133550500D01*
X156254032Y-133550516D01*
X156327803Y-133551675D01*
X156327806Y-133551675D01*
X156335402Y-133551794D01*
X156376361Y-133542413D01*
X156389340Y-133540149D01*
X156431042Y-133535102D01*
X156458032Y-133524904D01*
X156474430Y-133519953D01*
X156502559Y-133513510D01*
X156540094Y-133494632D01*
X156552155Y-133489338D01*
X156584352Y-133477172D01*
X156584356Y-133477170D01*
X156591456Y-133474487D01*
X156597716Y-133470185D01*
X156597719Y-133470183D01*
X156615230Y-133458148D01*
X156629983Y-133449423D01*
X156648967Y-133439875D01*
X156648971Y-133439873D01*
X156655758Y-133436459D01*
X156687711Y-133409168D01*
X156698149Y-133401158D01*
X156732781Y-133377357D01*
X156737833Y-133371686D01*
X156737836Y-133371684D01*
X156751976Y-133355814D01*
X156764219Y-133343825D01*
X156780377Y-133330024D01*
X156780377Y-133330023D01*
X156786155Y-133325089D01*
X156810671Y-133290972D01*
X156818916Y-133280681D01*
X156841805Y-133254992D01*
X156841807Y-133254988D01*
X156846857Y-133249321D01*
X156860355Y-133223828D01*
X156869389Y-133209258D01*
X156881789Y-133192002D01*
X156881789Y-133192001D01*
X156886224Y-133185830D01*
X156901891Y-133146856D01*
X156907442Y-133134897D01*
X156923548Y-133104478D01*
X156923549Y-133104476D01*
X156927100Y-133097769D01*
X156928949Y-133090407D01*
X156928952Y-133090400D01*
X156934130Y-133069786D01*
X156939425Y-133053489D01*
X156947350Y-133033773D01*
X156947350Y-133033772D01*
X156950185Y-133026720D01*
X156956104Y-132985133D01*
X156958643Y-132972193D01*
X156967024Y-132938824D01*
X156968876Y-132931451D01*
X156969027Y-132902603D01*
X156970282Y-132885509D01*
X156973766Y-132861030D01*
X156973766Y-132861029D01*
X156974347Y-132856947D01*
X156974504Y-132842000D01*
X156974007Y-132837891D01*
X156970511Y-132809002D01*
X156969600Y-132793205D01*
X156969734Y-132767564D01*
X156969774Y-132759969D01*
X156960990Y-132723379D01*
X156958422Y-132709105D01*
X156954815Y-132679300D01*
X156954815Y-132679298D01*
X156953902Y-132671758D01*
X156942155Y-132640670D01*
X156937501Y-132625543D01*
X156931515Y-132600606D01*
X156931513Y-132600602D01*
X156929742Y-132593223D01*
X156912482Y-132559781D01*
X156906586Y-132546539D01*
X156895973Y-132518451D01*
X156895971Y-132518448D01*
X156893287Y-132511344D01*
X156874455Y-132483944D01*
X156866341Y-132470387D01*
X156851091Y-132440839D01*
X156846100Y-132435118D01*
X156846096Y-132435112D01*
X156826358Y-132412487D01*
X156817464Y-132401021D01*
X156800461Y-132376280D01*
X156800456Y-132376275D01*
X156796157Y-132370019D01*
X156771337Y-132347905D01*
X156760212Y-132336662D01*
X156743357Y-132317341D01*
X156743353Y-132317338D01*
X156738361Y-132311615D01*
X156732147Y-132307247D01*
X156732144Y-132307245D01*
X156707578Y-132289979D01*
X156696214Y-132280972D01*
X156685494Y-132271422D01*
X156668121Y-132255943D01*
X156661412Y-132252391D01*
X156661408Y-132252388D01*
X156638746Y-132240389D01*
X156625259Y-132232124D01*
X156604281Y-132217381D01*
X156604278Y-132217379D01*
X156598061Y-132213010D01*
X156590980Y-132210249D01*
X156590976Y-132210247D01*
X156563010Y-132199343D01*
X156549823Y-132193306D01*
X156523282Y-132179254D01*
X156523280Y-132179253D01*
X156516569Y-132175700D01*
X156509209Y-132173851D01*
X156509203Y-132173849D01*
X156484334Y-132167603D01*
X156469257Y-132162791D01*
X156445373Y-132153479D01*
X156445372Y-132153479D01*
X156438291Y-132150718D01*
X156430761Y-132149727D01*
X156430758Y-132149726D01*
X156400993Y-132145808D01*
X156386741Y-132143090D01*
X156381969Y-132141891D01*
X156350251Y-132133924D01*
X156342653Y-132133884D01*
X156342652Y-132133884D01*
X156336039Y-132133849D01*
X156310124Y-132133713D01*
X156308765Y-132133665D01*
X156307506Y-132133500D01*
X156269562Y-132133500D01*
X156268902Y-132133498D01*
X156183172Y-132133049D01*
X156183171Y-132133049D01*
X156178769Y-132133026D01*
X156177252Y-132133390D01*
X156175350Y-132133500D01*
X143498300Y-132133500D01*
X143430179Y-132113498D01*
X143383686Y-132059842D01*
X143372300Y-132007500D01*
X143372300Y-127478918D01*
X144486917Y-127478918D01*
X144502682Y-127752320D01*
X144503507Y-127756525D01*
X144503508Y-127756533D01*
X144509627Y-127787719D01*
X144555405Y-128021053D01*
X144556792Y-128025103D01*
X144556793Y-128025108D01*
X144642230Y-128274647D01*
X144644112Y-128280144D01*
X144663333Y-128318360D01*
X144730277Y-128451464D01*
X144767160Y-128524799D01*
X144769586Y-128528328D01*
X144769589Y-128528334D01*
X144826126Y-128610595D01*
X144922274Y-128750490D01*
X144925161Y-128753663D01*
X144925162Y-128753664D01*
X145097630Y-128943205D01*
X145106582Y-128953043D01*
X145109877Y-128955798D01*
X145109878Y-128955799D01*
X145136548Y-128978098D01*
X145316675Y-129128707D01*
X145320316Y-129130991D01*
X145545024Y-129271951D01*
X145545028Y-129271953D01*
X145548664Y-129274234D01*
X145616544Y-129304883D01*
X145794345Y-129385164D01*
X145794349Y-129385166D01*
X145798257Y-129386930D01*
X145802377Y-129388150D01*
X145802376Y-129388150D01*
X146056723Y-129463491D01*
X146056727Y-129463492D01*
X146060836Y-129464709D01*
X146065070Y-129465357D01*
X146065075Y-129465358D01*
X146327298Y-129505483D01*
X146327300Y-129505483D01*
X146331540Y-129506132D01*
X146470912Y-129508322D01*
X146601071Y-129510367D01*
X146601077Y-129510367D01*
X146605362Y-129510434D01*
X146877235Y-129477534D01*
X147142127Y-129408041D01*
X147146087Y-129406401D01*
X147146092Y-129406399D01*
X147328668Y-129330773D01*
X147395136Y-129303241D01*
X147631582Y-129165073D01*
X147847089Y-128996094D01*
X147859366Y-128983426D01*
X147989414Y-128849226D01*
X148037669Y-128799431D01*
X148040202Y-128795983D01*
X148040206Y-128795978D01*
X148182910Y-128601710D01*
X148199795Y-128578723D01*
X148227169Y-128528306D01*
X148328418Y-128341830D01*
X148328419Y-128341828D01*
X148330468Y-128338054D01*
X148383903Y-128196643D01*
X148425751Y-128085895D01*
X148425752Y-128085891D01*
X148427269Y-128081877D01*
X148458185Y-127946892D01*
X148487449Y-127819117D01*
X148487450Y-127819113D01*
X148488407Y-127814933D01*
X148490278Y-127793978D01*
X148512531Y-127544627D01*
X148512531Y-127544625D01*
X148512751Y-127542161D01*
X148513193Y-127500000D01*
X148511756Y-127478918D01*
X148494859Y-127231055D01*
X148494858Y-127231049D01*
X148494567Y-127226778D01*
X148439032Y-126958612D01*
X148347617Y-126700465D01*
X148222013Y-126457112D01*
X148212040Y-126442921D01*
X148067008Y-126236562D01*
X148064545Y-126233057D01*
X147878125Y-126032445D01*
X147874810Y-126029731D01*
X147874806Y-126029728D01*
X147669523Y-125861706D01*
X147666205Y-125858990D01*
X147432704Y-125715901D01*
X147428768Y-125714173D01*
X147185873Y-125607549D01*
X147185869Y-125607548D01*
X147181945Y-125605825D01*
X146918566Y-125530800D01*
X146914324Y-125530196D01*
X146914318Y-125530195D01*
X146684197Y-125497444D01*
X146647443Y-125492213D01*
X146503589Y-125491460D01*
X146377877Y-125490802D01*
X146377871Y-125490802D01*
X146373591Y-125490780D01*
X146369347Y-125491339D01*
X146369343Y-125491339D01*
X146250302Y-125507011D01*
X146102078Y-125526525D01*
X146097938Y-125527658D01*
X146097936Y-125527658D01*
X146025008Y-125547609D01*
X145837928Y-125598788D01*
X145824185Y-125604650D01*
X145589982Y-125704546D01*
X145589978Y-125704548D01*
X145586030Y-125706232D01*
X145467414Y-125777222D01*
X145354725Y-125844664D01*
X145354721Y-125844667D01*
X145351043Y-125846868D01*
X145137318Y-126018094D01*
X144948808Y-126216742D01*
X144789002Y-126439136D01*
X144660857Y-126681161D01*
X144659385Y-126685184D01*
X144659383Y-126685188D01*
X144568214Y-126934317D01*
X144566743Y-126938337D01*
X144508404Y-127205907D01*
X144508068Y-127210177D01*
X144487454Y-127472101D01*
X144486917Y-127478918D01*
X143372300Y-127478918D01*
X143372300Y-123971367D01*
X143392302Y-123903246D01*
X143409205Y-123882272D01*
X145292242Y-121999235D01*
X145395370Y-121875895D01*
X145480633Y-121726413D01*
X145499477Y-121693376D01*
X145499477Y-121693375D01*
X145502253Y-121688509D01*
X145504122Y-121683232D01*
X145504124Y-121683227D01*
X145572391Y-121490447D01*
X145572392Y-121490444D01*
X145574264Y-121485157D01*
X145609126Y-121272266D01*
X145605738Y-121056567D01*
X145582678Y-120939029D01*
X145565287Y-120850385D01*
X145565286Y-120850381D01*
X145564206Y-120844877D01*
X145556869Y-120826057D01*
X145520288Y-120732233D01*
X145514507Y-120717406D01*
X145505900Y-120671636D01*
X145505900Y-115743865D01*
X145503496Y-115716922D01*
X145497594Y-115650804D01*
X145491608Y-115583728D01*
X145441854Y-115401857D01*
X145436166Y-115381064D01*
X145436165Y-115381060D01*
X145434684Y-115375648D01*
X145341811Y-115180937D01*
X145215926Y-115005749D01*
X145077593Y-114871695D01*
X145065036Y-114859526D01*
X145065033Y-114859524D01*
X145061008Y-114855623D01*
X144881953Y-114735303D01*
X144684420Y-114648592D01*
X144474655Y-114598232D01*
X144391612Y-114593444D01*
X144264894Y-114586137D01*
X144264891Y-114586137D01*
X144259287Y-114585814D01*
X144253709Y-114586489D01*
X144050692Y-114611056D01*
X144050691Y-114611056D01*
X144045123Y-114611730D01*
X144039769Y-114613377D01*
X144039765Y-114613378D01*
X143869644Y-114665715D01*
X143838934Y-114675163D01*
X143833953Y-114677734D01*
X143701575Y-114746059D01*
X143647236Y-114774105D01*
X143587498Y-114819944D01*
X143480540Y-114902015D01*
X143480536Y-114902019D01*
X143476089Y-114905431D01*
X143472314Y-114909580D01*
X143367445Y-115024830D01*
X143330903Y-115064989D01*
X143327922Y-115069741D01*
X143258169Y-115180937D01*
X143216266Y-115247735D01*
X143135803Y-115447893D01*
X143092056Y-115659137D01*
X143091790Y-115663748D01*
X143091790Y-115663749D01*
X143089810Y-115698100D01*
X143088900Y-115713875D01*
X143088900Y-120732233D01*
X143068898Y-120800354D01*
X143051995Y-120821328D01*
X141371552Y-122501771D01*
X141359161Y-122512638D01*
X141346940Y-122522015D01*
X141346936Y-122522019D01*
X141342489Y-122525431D01*
X141338714Y-122529580D01*
X141289898Y-122583228D01*
X141285799Y-122587524D01*
X141270558Y-122602765D01*
X141268757Y-122604918D01*
X141268756Y-122604920D01*
X141254540Y-122621922D01*
X141251079Y-122625889D01*
X141197303Y-122684989D01*
X141194320Y-122689744D01*
X141188329Y-122699293D01*
X141178259Y-122713153D01*
X141167430Y-122726105D01*
X141160552Y-122738164D01*
X141127838Y-122795517D01*
X141125142Y-122800022D01*
X141082666Y-122867735D01*
X141080572Y-122872945D01*
X141080571Y-122872946D01*
X141076369Y-122883399D01*
X141068910Y-122898828D01*
X141060547Y-122913491D01*
X141058676Y-122918774D01*
X141058673Y-122918781D01*
X141033870Y-122988824D01*
X141032015Y-122993732D01*
X141002203Y-123067893D01*
X141001064Y-123073391D01*
X141001064Y-123073392D01*
X140998778Y-123084430D01*
X140994173Y-123100926D01*
X140988536Y-123116844D01*
X140987630Y-123122378D01*
X140987629Y-123122381D01*
X140975626Y-123195683D01*
X140974664Y-123200874D01*
X140958456Y-123279137D01*
X140958190Y-123283748D01*
X140958190Y-123283749D01*
X140956932Y-123305566D01*
X140955485Y-123318671D01*
X140954628Y-123323905D01*
X140953674Y-123329734D01*
X140953762Y-123335348D01*
X140953762Y-123335350D01*
X140955284Y-123432235D01*
X140955300Y-123434214D01*
X140955300Y-135547915D01*
X140954222Y-135564360D01*
X140951480Y-135585189D01*
X130508500Y-135585189D01*
X130508500Y-122835895D01*
X131717351Y-122835895D01*
X131717648Y-122841048D01*
X131717648Y-122841051D01*
X131723111Y-122935790D01*
X131730210Y-123058915D01*
X131731347Y-123063961D01*
X131731348Y-123063967D01*
X131743265Y-123116844D01*
X131779322Y-123276839D01*
X131863366Y-123483816D01*
X131980087Y-123674288D01*
X132126350Y-123843138D01*
X132298226Y-123985832D01*
X132491100Y-124098538D01*
X132495925Y-124100380D01*
X132495926Y-124100381D01*
X132519479Y-124109375D01*
X132699792Y-124178230D01*
X132704860Y-124179261D01*
X132704863Y-124179262D01*
X132812117Y-124201083D01*
X132918697Y-124222767D01*
X132923872Y-124222957D01*
X132923874Y-124222957D01*
X133136773Y-124230764D01*
X133136777Y-124230764D01*
X133141937Y-124230953D01*
X133147057Y-124230297D01*
X133147059Y-124230297D01*
X133358388Y-124203225D01*
X133358389Y-124203225D01*
X133363516Y-124202568D01*
X133368466Y-124201083D01*
X133572529Y-124139861D01*
X133572534Y-124139859D01*
X133577484Y-124138374D01*
X133778094Y-124040096D01*
X133959960Y-123910373D01*
X133988160Y-123882272D01*
X134114535Y-123756337D01*
X134118196Y-123752689D01*
X134177694Y-123669889D01*
X134245535Y-123575477D01*
X134248553Y-123571277D01*
X134316294Y-123434214D01*
X134345236Y-123375653D01*
X134345237Y-123375651D01*
X134347530Y-123371011D01*
X134412470Y-123157269D01*
X134441629Y-122935790D01*
X134442532Y-122898829D01*
X134443174Y-122872565D01*
X134443174Y-122872561D01*
X134443256Y-122869200D01*
X134424952Y-122646561D01*
X134370531Y-122429902D01*
X134281454Y-122225040D01*
X134160114Y-122037477D01*
X134009770Y-121872251D01*
X134005719Y-121869052D01*
X134005715Y-121869048D01*
X133838514Y-121737000D01*
X133838510Y-121736998D01*
X133834459Y-121733798D01*
X133793153Y-121710996D01*
X133743184Y-121660564D01*
X133728412Y-121591121D01*
X133753528Y-121524716D01*
X133780880Y-121498109D01*
X133824703Y-121466850D01*
X133959960Y-121370373D01*
X134118196Y-121212689D01*
X134177694Y-121129889D01*
X134245535Y-121035477D01*
X134248553Y-121031277D01*
X134323575Y-120879482D01*
X134345236Y-120835653D01*
X134345237Y-120835651D01*
X134347530Y-120831011D01*
X134412470Y-120617269D01*
X134441629Y-120395790D01*
X134443256Y-120329200D01*
X134424952Y-120106561D01*
X134370531Y-119889902D01*
X134281454Y-119685040D01*
X134160114Y-119497477D01*
X134009770Y-119332251D01*
X134005719Y-119329052D01*
X134005715Y-119329048D01*
X133838514Y-119197000D01*
X133838510Y-119196998D01*
X133834459Y-119193798D01*
X133793153Y-119170996D01*
X133743184Y-119120564D01*
X133728412Y-119051121D01*
X133753528Y-118984716D01*
X133780880Y-118958109D01*
X133824703Y-118926850D01*
X133959960Y-118830373D01*
X134118196Y-118672689D01*
X134177694Y-118589889D01*
X134245535Y-118495477D01*
X134248553Y-118491277D01*
X134347530Y-118291011D01*
X134412470Y-118077269D01*
X134441629Y-117855790D01*
X134443256Y-117789200D01*
X134424952Y-117566561D01*
X134370531Y-117349902D01*
X134281454Y-117145040D01*
X134160114Y-116957477D01*
X134155135Y-116952005D01*
X134012898Y-116795688D01*
X133981846Y-116731842D01*
X133990241Y-116661343D01*
X134035417Y-116606575D01*
X134061861Y-116592906D01*
X134168397Y-116552967D01*
X134176805Y-116549815D01*
X134293361Y-116462461D01*
X134380715Y-116345905D01*
X134431845Y-116209516D01*
X134438600Y-116147334D01*
X134438600Y-114351066D01*
X134431845Y-114288884D01*
X134380715Y-114152495D01*
X134293361Y-114035939D01*
X134176805Y-113948585D01*
X134040416Y-113897455D01*
X133978234Y-113890700D01*
X132181966Y-113890700D01*
X132119784Y-113897455D01*
X131983395Y-113948585D01*
X131866839Y-114035939D01*
X131779485Y-114152495D01*
X131728355Y-114288884D01*
X131721600Y-114351066D01*
X131721600Y-116147334D01*
X131728355Y-116209516D01*
X131779485Y-116345905D01*
X131866839Y-116462461D01*
X131983395Y-116549815D01*
X131991804Y-116552967D01*
X131991805Y-116552968D01*
X132100551Y-116593735D01*
X132157316Y-116636376D01*
X132182016Y-116702938D01*
X132166809Y-116772287D01*
X132147416Y-116798768D01*
X132032260Y-116919272D01*
X132020729Y-116931338D01*
X131894843Y-117115880D01*
X131800788Y-117318505D01*
X131741089Y-117533770D01*
X131717351Y-117755895D01*
X131717648Y-117761048D01*
X131717648Y-117761051D01*
X131723111Y-117855790D01*
X131730210Y-117978915D01*
X131731347Y-117983961D01*
X131731348Y-117983967D01*
X131751219Y-118072139D01*
X131779322Y-118196839D01*
X131863366Y-118403816D01*
X131980087Y-118594288D01*
X132126350Y-118763138D01*
X132298226Y-118905832D01*
X132368695Y-118947011D01*
X132371545Y-118948676D01*
X132420269Y-119000314D01*
X132433340Y-119070097D01*
X132406609Y-119135869D01*
X132366155Y-119169227D01*
X132353707Y-119175707D01*
X132349574Y-119178810D01*
X132349571Y-119178812D01*
X132325347Y-119197000D01*
X132175065Y-119309835D01*
X132020729Y-119471338D01*
X131894843Y-119655880D01*
X131800788Y-119858505D01*
X131741089Y-120073770D01*
X131717351Y-120295895D01*
X131717648Y-120301048D01*
X131717648Y-120301051D01*
X131723111Y-120395790D01*
X131730210Y-120518915D01*
X131731347Y-120523961D01*
X131731348Y-120523967D01*
X131751219Y-120612139D01*
X131779322Y-120736839D01*
X131863366Y-120943816D01*
X131980087Y-121134288D01*
X132126350Y-121303138D01*
X132298226Y-121445832D01*
X132356044Y-121479618D01*
X132371545Y-121488676D01*
X132420269Y-121540314D01*
X132433340Y-121610097D01*
X132406609Y-121675869D01*
X132366155Y-121709227D01*
X132353707Y-121715707D01*
X132349574Y-121718810D01*
X132349571Y-121718812D01*
X132325347Y-121737000D01*
X132175065Y-121849835D01*
X132149994Y-121876070D01*
X132034347Y-121997088D01*
X132020729Y-122011338D01*
X131894843Y-122195880D01*
X131800788Y-122398505D01*
X131741089Y-122613770D01*
X131717351Y-122835895D01*
X130508500Y-122835895D01*
X130508500Y-110053250D01*
X130510246Y-110032345D01*
X130512770Y-110017344D01*
X130512770Y-110017341D01*
X130513576Y-110012552D01*
X130513729Y-110000000D01*
X130513039Y-109995184D01*
X130513039Y-109995178D01*
X130511387Y-109983644D01*
X130510234Y-109960284D01*
X130511211Y-109937926D01*
X130525352Y-109614035D01*
X130526310Y-109603086D01*
X130558082Y-109361753D01*
X130576019Y-109225502D01*
X130577927Y-109214685D01*
X130584088Y-109186898D01*
X130648873Y-108894669D01*
X150642001Y-108894669D01*
X150642371Y-108901490D01*
X150647895Y-108952352D01*
X150651521Y-108967604D01*
X150696676Y-109088054D01*
X150705214Y-109103649D01*
X150781715Y-109205724D01*
X150794276Y-109218285D01*
X150896351Y-109294786D01*
X150911946Y-109303324D01*
X151032394Y-109348478D01*
X151047649Y-109352105D01*
X151098514Y-109357631D01*
X151105328Y-109358000D01*
X151727885Y-109358000D01*
X151743124Y-109353525D01*
X151744329Y-109352135D01*
X151746000Y-109344452D01*
X151746000Y-109339884D01*
X152254000Y-109339884D01*
X152258475Y-109355123D01*
X152259865Y-109356328D01*
X152267548Y-109357999D01*
X152894669Y-109357999D01*
X152901490Y-109357629D01*
X152952352Y-109352105D01*
X152967604Y-109348479D01*
X153088054Y-109303324D01*
X153103649Y-109294786D01*
X153205724Y-109218285D01*
X153218285Y-109205724D01*
X153294786Y-109103649D01*
X153303324Y-109088054D01*
X153344225Y-108978952D01*
X153386867Y-108922188D01*
X153453428Y-108897488D01*
X153522777Y-108912696D01*
X153557444Y-108940684D01*
X153582865Y-108970031D01*
X153582869Y-108970035D01*
X153586250Y-108973938D01*
X153721015Y-109085822D01*
X153753530Y-109112816D01*
X153758126Y-109116632D01*
X153951000Y-109229338D01*
X154159692Y-109309030D01*
X154164760Y-109310061D01*
X154164763Y-109310062D01*
X154272017Y-109331883D01*
X154378597Y-109353567D01*
X154383772Y-109353757D01*
X154383774Y-109353757D01*
X154596673Y-109361564D01*
X154596677Y-109361564D01*
X154601837Y-109361753D01*
X154606957Y-109361097D01*
X154606959Y-109361097D01*
X154818288Y-109334025D01*
X154818289Y-109334025D01*
X154823416Y-109333368D01*
X154844868Y-109326932D01*
X155032429Y-109270661D01*
X155032434Y-109270659D01*
X155037384Y-109269174D01*
X155237994Y-109170896D01*
X155419860Y-109041173D01*
X155463569Y-108997617D01*
X155538320Y-108923126D01*
X155566877Y-108894669D01*
X158642001Y-108894669D01*
X158642371Y-108901490D01*
X158647895Y-108952352D01*
X158651521Y-108967604D01*
X158696676Y-109088054D01*
X158705214Y-109103649D01*
X158781715Y-109205724D01*
X158794276Y-109218285D01*
X158896351Y-109294786D01*
X158911946Y-109303324D01*
X159032394Y-109348478D01*
X159047649Y-109352105D01*
X159098514Y-109357631D01*
X159105328Y-109358000D01*
X159727885Y-109358000D01*
X159743124Y-109353525D01*
X159744329Y-109352135D01*
X159746000Y-109344452D01*
X159746000Y-109339884D01*
X160254000Y-109339884D01*
X160258475Y-109355123D01*
X160259865Y-109356328D01*
X160267548Y-109357999D01*
X160894669Y-109357999D01*
X160901490Y-109357629D01*
X160952352Y-109352105D01*
X160967604Y-109348479D01*
X161088054Y-109303324D01*
X161103649Y-109294786D01*
X161205724Y-109218285D01*
X161218285Y-109205724D01*
X161294786Y-109103649D01*
X161303324Y-109088054D01*
X161344225Y-108978952D01*
X161386867Y-108922188D01*
X161453428Y-108897488D01*
X161522777Y-108912696D01*
X161557444Y-108940684D01*
X161582865Y-108970031D01*
X161582869Y-108970035D01*
X161586250Y-108973938D01*
X161721015Y-109085822D01*
X161753530Y-109112816D01*
X161758126Y-109116632D01*
X161951000Y-109229338D01*
X162159692Y-109309030D01*
X162164760Y-109310061D01*
X162164763Y-109310062D01*
X162272017Y-109331883D01*
X162378597Y-109353567D01*
X162383772Y-109353757D01*
X162383774Y-109353757D01*
X162596673Y-109361564D01*
X162596677Y-109361564D01*
X162601837Y-109361753D01*
X162606957Y-109361097D01*
X162606959Y-109361097D01*
X162818288Y-109334025D01*
X162818289Y-109334025D01*
X162823416Y-109333368D01*
X162844868Y-109326932D01*
X163032429Y-109270661D01*
X163032434Y-109270659D01*
X163037384Y-109269174D01*
X163237994Y-109170896D01*
X163419860Y-109041173D01*
X163463569Y-108997617D01*
X163538320Y-108923126D01*
X163578096Y-108883489D01*
X163604938Y-108846135D01*
X163705435Y-108706277D01*
X163708453Y-108702077D01*
X163714621Y-108689598D01*
X163805136Y-108506453D01*
X163805137Y-108506451D01*
X163807430Y-108501811D01*
X163841811Y-108388649D01*
X163870865Y-108293023D01*
X163870865Y-108293021D01*
X163872370Y-108288069D01*
X163901529Y-108066590D01*
X163903156Y-108000000D01*
X163884852Y-107777361D01*
X163830431Y-107560702D01*
X163772680Y-107427885D01*
X168642000Y-107427885D01*
X168646475Y-107443124D01*
X168647865Y-107444329D01*
X168655548Y-107446000D01*
X169727885Y-107446000D01*
X169743124Y-107441525D01*
X169744329Y-107440135D01*
X169746000Y-107432452D01*
X169746000Y-106235116D01*
X169741525Y-106219877D01*
X169740135Y-106218672D01*
X169732452Y-106217001D01*
X169352905Y-106217001D01*
X169346386Y-106217338D01*
X169250794Y-106227257D01*
X169237400Y-106230149D01*
X169083216Y-106281588D01*
X169070038Y-106287761D01*
X168932193Y-106373063D01*
X168920792Y-106382099D01*
X168806261Y-106496829D01*
X168797249Y-106508240D01*
X168712184Y-106646243D01*
X168706037Y-106659424D01*
X168654862Y-106813710D01*
X168651995Y-106827086D01*
X168642328Y-106921438D01*
X168642000Y-106927855D01*
X168642000Y-107427885D01*
X163772680Y-107427885D01*
X163741354Y-107355840D01*
X163620014Y-107168277D01*
X163469670Y-107003051D01*
X163465619Y-106999852D01*
X163465615Y-106999848D01*
X163298414Y-106867800D01*
X163298410Y-106867798D01*
X163294359Y-106864598D01*
X163098789Y-106756638D01*
X163093920Y-106754914D01*
X163093916Y-106754912D01*
X162893087Y-106683795D01*
X162893083Y-106683794D01*
X162888212Y-106682069D01*
X162883119Y-106681162D01*
X162883116Y-106681161D01*
X162673373Y-106643800D01*
X162673367Y-106643799D01*
X162668284Y-106642894D01*
X162594452Y-106641992D01*
X162450081Y-106640228D01*
X162450079Y-106640228D01*
X162444911Y-106640165D01*
X162224091Y-106673955D01*
X162011756Y-106743357D01*
X161813607Y-106846507D01*
X161809474Y-106849610D01*
X161809471Y-106849612D01*
X161745801Y-106897417D01*
X161634965Y-106980635D01*
X161631393Y-106984373D01*
X161553898Y-107065466D01*
X161492374Y-107100895D01*
X161421462Y-107097438D01*
X161363676Y-107056192D01*
X161344823Y-107022644D01*
X161303324Y-106911946D01*
X161294786Y-106896351D01*
X161218285Y-106794276D01*
X161205724Y-106781715D01*
X161103649Y-106705214D01*
X161088054Y-106696676D01*
X160967606Y-106651522D01*
X160952351Y-106647895D01*
X160901486Y-106642369D01*
X160894672Y-106642000D01*
X160272115Y-106642000D01*
X160256876Y-106646475D01*
X160255671Y-106647865D01*
X160254000Y-106655548D01*
X160254000Y-109339884D01*
X159746000Y-109339884D01*
X159746000Y-108272115D01*
X159741525Y-108256876D01*
X159740135Y-108255671D01*
X159732452Y-108254000D01*
X158660116Y-108254000D01*
X158644877Y-108258475D01*
X158643672Y-108259865D01*
X158642001Y-108267548D01*
X158642001Y-108894669D01*
X155566877Y-108894669D01*
X155578096Y-108883489D01*
X155604938Y-108846135D01*
X155705435Y-108706277D01*
X155708453Y-108702077D01*
X155714621Y-108689598D01*
X155805136Y-108506453D01*
X155805137Y-108506451D01*
X155807430Y-108501811D01*
X155841811Y-108388649D01*
X155870865Y-108293023D01*
X155870865Y-108293021D01*
X155872370Y-108288069D01*
X155901529Y-108066590D01*
X155903156Y-108000000D01*
X155884852Y-107777361D01*
X155872424Y-107727885D01*
X158642000Y-107727885D01*
X158646475Y-107743124D01*
X158647865Y-107744329D01*
X158655548Y-107746000D01*
X159727885Y-107746000D01*
X159743124Y-107741525D01*
X159744329Y-107740135D01*
X159746000Y-107732452D01*
X159746000Y-106660116D01*
X159741525Y-106644877D01*
X159740135Y-106643672D01*
X159732452Y-106642001D01*
X159105331Y-106642001D01*
X159098510Y-106642371D01*
X159047648Y-106647895D01*
X159032396Y-106651521D01*
X158911946Y-106696676D01*
X158896351Y-106705214D01*
X158794276Y-106781715D01*
X158781715Y-106794276D01*
X158705214Y-106896351D01*
X158696676Y-106911946D01*
X158651522Y-107032394D01*
X158647895Y-107047649D01*
X158642369Y-107098514D01*
X158642000Y-107105328D01*
X158642000Y-107727885D01*
X155872424Y-107727885D01*
X155830431Y-107560702D01*
X155741354Y-107355840D01*
X155620014Y-107168277D01*
X155469670Y-107003051D01*
X155465619Y-106999852D01*
X155465615Y-106999848D01*
X155298414Y-106867800D01*
X155298410Y-106867798D01*
X155294359Y-106864598D01*
X155098789Y-106756638D01*
X155093920Y-106754914D01*
X155093916Y-106754912D01*
X154893087Y-106683795D01*
X154893083Y-106683794D01*
X154888212Y-106682069D01*
X154883119Y-106681162D01*
X154883116Y-106681161D01*
X154673373Y-106643800D01*
X154673367Y-106643799D01*
X154668284Y-106642894D01*
X154594452Y-106641992D01*
X154450081Y-106640228D01*
X154450079Y-106640228D01*
X154444911Y-106640165D01*
X154224091Y-106673955D01*
X154011756Y-106743357D01*
X153813607Y-106846507D01*
X153809474Y-106849610D01*
X153809471Y-106849612D01*
X153745801Y-106897417D01*
X153634965Y-106980635D01*
X153631393Y-106984373D01*
X153553898Y-107065466D01*
X153492374Y-107100895D01*
X153421462Y-107097438D01*
X153363676Y-107056192D01*
X153344823Y-107022644D01*
X153303324Y-106911946D01*
X153294786Y-106896351D01*
X153218285Y-106794276D01*
X153205724Y-106781715D01*
X153103649Y-106705214D01*
X153088054Y-106696676D01*
X152967606Y-106651522D01*
X152952351Y-106647895D01*
X152901486Y-106642369D01*
X152894672Y-106642000D01*
X152272115Y-106642000D01*
X152256876Y-106646475D01*
X152255671Y-106647865D01*
X152254000Y-106655548D01*
X152254000Y-109339884D01*
X151746000Y-109339884D01*
X151746000Y-108272115D01*
X151741525Y-108256876D01*
X151740135Y-108255671D01*
X151732452Y-108254000D01*
X150660116Y-108254000D01*
X150644877Y-108258475D01*
X150643672Y-108259865D01*
X150642001Y-108267548D01*
X150642001Y-108894669D01*
X130648873Y-108894669D01*
X130660353Y-108842885D01*
X130663198Y-108832268D01*
X130777718Y-108469061D01*
X130781474Y-108458739D01*
X130787382Y-108444476D01*
X130927220Y-108106877D01*
X130931862Y-108096924D01*
X130982318Y-108000000D01*
X131107706Y-107759132D01*
X131113201Y-107749613D01*
X131127043Y-107727885D01*
X150642000Y-107727885D01*
X150646475Y-107743124D01*
X150647865Y-107744329D01*
X150655548Y-107746000D01*
X151727885Y-107746000D01*
X151743124Y-107741525D01*
X151744329Y-107740135D01*
X151746000Y-107732452D01*
X151746000Y-106660116D01*
X151741525Y-106644877D01*
X151740135Y-106643672D01*
X151732452Y-106642001D01*
X151105331Y-106642001D01*
X151098510Y-106642371D01*
X151047648Y-106647895D01*
X151032396Y-106651521D01*
X150911946Y-106696676D01*
X150896351Y-106705214D01*
X150794276Y-106781715D01*
X150781715Y-106794276D01*
X150705214Y-106896351D01*
X150696676Y-106911946D01*
X150651522Y-107032394D01*
X150647895Y-107047649D01*
X150642369Y-107098514D01*
X150642000Y-107105328D01*
X150642000Y-107727885D01*
X131127043Y-107727885D01*
X131149498Y-107692639D01*
X131261322Y-107517110D01*
X131317820Y-107428426D01*
X131324124Y-107419422D01*
X131555962Y-107117284D01*
X131563028Y-107108863D01*
X131820314Y-106828086D01*
X131828086Y-106820314D01*
X132108863Y-106563028D01*
X132117284Y-106555962D01*
X132419422Y-106324124D01*
X132428426Y-106317820D01*
X132749613Y-106113201D01*
X132759133Y-106107705D01*
X132881246Y-106044137D01*
X133096933Y-105931858D01*
X133106877Y-105927220D01*
X133458746Y-105781471D01*
X133469061Y-105777718D01*
X133832269Y-105663198D01*
X133842886Y-105660353D01*
X134214693Y-105577926D01*
X134225502Y-105576019D01*
X134603087Y-105526310D01*
X134614035Y-105525352D01*
X134956554Y-105510397D01*
X134981429Y-105511777D01*
X134993724Y-105513691D01*
X135002626Y-105512527D01*
X135002628Y-105512527D01*
X135018914Y-105510397D01*
X135025286Y-105509564D01*
X135041621Y-105508500D01*
X206674000Y-105508500D01*
X206742121Y-105528502D01*
G37*
%TD.AperFunction*%
%TA.AperFunction,Conductor*%
G36*
X166624081Y-144109703D02*
G01*
X166670574Y-144163359D01*
X166680678Y-144233633D01*
X166651184Y-144298213D01*
X166645055Y-144304796D01*
X165745256Y-145204595D01*
X165682944Y-145238621D01*
X165656161Y-145241500D01*
X160548144Y-145241500D01*
X160531698Y-145240422D01*
X160508188Y-145237327D01*
X160500000Y-145236249D01*
X160341149Y-145257162D01*
X160333520Y-145260322D01*
X160323413Y-145264509D01*
X160193124Y-145318476D01*
X160147305Y-145353634D01*
X160097937Y-145391515D01*
X160097921Y-145391529D01*
X160072566Y-145410984D01*
X160072563Y-145410987D01*
X160066013Y-145416013D01*
X160060983Y-145422568D01*
X160046548Y-145441379D01*
X160035681Y-145453770D01*
X159884856Y-145604595D01*
X159822544Y-145638621D01*
X159795761Y-145641500D01*
X159333239Y-145641500D01*
X159265118Y-145621498D01*
X159218625Y-145567842D01*
X159208521Y-145497568D01*
X159238015Y-145432988D01*
X159244144Y-145426405D01*
X160543943Y-144126606D01*
X160606255Y-144092580D01*
X160633038Y-144089701D01*
X166555960Y-144089701D01*
X166624081Y-144109703D01*
G37*
%TD.AperFunction*%
%TA.AperFunction,Conductor*%
G36*
X172010532Y-110454057D02*
G01*
X172067368Y-110496604D01*
X172092179Y-110563124D01*
X172092500Y-110572113D01*
X172092500Y-126943389D01*
X172072498Y-127011510D01*
X172018842Y-127058003D01*
X171996367Y-127065751D01*
X171996004Y-127065886D01*
X171988623Y-127067658D01*
X171836239Y-127146309D01*
X171707015Y-127259039D01*
X171608410Y-127399339D01*
X171605650Y-127406419D01*
X171549371Y-127550766D01*
X171546118Y-127559109D01*
X171545126Y-127566642D01*
X171545126Y-127566643D01*
X171530241Y-127679709D01*
X171523735Y-127729126D01*
X171542553Y-127899575D01*
X171545162Y-127906706D01*
X171545163Y-127906708D01*
X171553337Y-127929044D01*
X171601485Y-128060615D01*
X171605722Y-128066921D01*
X171605724Y-128066924D01*
X171650021Y-128132844D01*
X171697130Y-128202949D01*
X171823965Y-128318360D01*
X171974668Y-128400185D01*
X171982013Y-128402112D01*
X171998472Y-128406430D01*
X172059288Y-128443062D01*
X172090644Y-128506759D01*
X172092500Y-128528306D01*
X172092500Y-133979161D01*
X172072498Y-134047282D01*
X172055595Y-134068256D01*
X168151983Y-137971868D01*
X168092302Y-138005292D01*
X168059002Y-138013286D01*
X168058998Y-138013287D01*
X168051623Y-138015058D01*
X167899239Y-138093709D01*
X167770015Y-138206439D01*
X167671410Y-138346739D01*
X167609118Y-138506509D01*
X167608126Y-138514042D01*
X167608126Y-138514043D01*
X167588589Y-138662446D01*
X167586735Y-138676526D01*
X167587569Y-138684076D01*
X167603441Y-138827842D01*
X167605553Y-138846975D01*
X167608162Y-138854106D01*
X167608163Y-138854108D01*
X167613957Y-138869941D01*
X167664485Y-139008015D01*
X167760130Y-139150349D01*
X167886965Y-139265760D01*
X168037668Y-139347585D01*
X168203539Y-139391101D01*
X168290986Y-139392474D01*
X168367403Y-139393675D01*
X168367406Y-139393675D01*
X168375002Y-139393794D01*
X168382406Y-139392098D01*
X168382408Y-139392098D01*
X168445246Y-139377706D01*
X168542159Y-139355510D01*
X168695358Y-139278459D01*
X168701129Y-139273530D01*
X168701132Y-139273528D01*
X168819978Y-139172023D01*
X168825755Y-139167089D01*
X168925824Y-139027830D01*
X168989294Y-138869940D01*
X169017107Y-138827842D01*
X172412405Y-135432544D01*
X172474717Y-135398518D01*
X172545532Y-135403583D01*
X172602368Y-135446130D01*
X172627179Y-135512650D01*
X172627500Y-135521639D01*
X172627500Y-136573103D01*
X172607498Y-136641224D01*
X172590595Y-136662198D01*
X168579272Y-140673521D01*
X168516960Y-140707547D01*
X168446145Y-140702482D01*
X168392534Y-140664062D01*
X168312160Y-140565513D01*
X168312157Y-140565510D01*
X168308265Y-140560738D01*
X168303516Y-140556809D01*
X168160625Y-140438599D01*
X168160621Y-140438597D01*
X168155875Y-140434670D01*
X167981901Y-140340602D01*
X167950733Y-140330954D01*
X167898898Y-140299685D01*
X165152281Y-137553068D01*
X165139440Y-137538035D01*
X165135046Y-137531987D01*
X165135045Y-137531986D01*
X165131166Y-137526647D01*
X165080341Y-137480884D01*
X165075556Y-137476343D01*
X165061041Y-137461828D01*
X165053582Y-137455788D01*
X165045084Y-137448906D01*
X165040069Y-137444622D01*
X164994155Y-137403281D01*
X164994150Y-137403277D01*
X164989244Y-137398860D01*
X164983528Y-137395560D01*
X164983524Y-137395557D01*
X164977063Y-137391827D01*
X164960766Y-137380627D01*
X164954960Y-137375925D01*
X164954958Y-137375924D01*
X164949830Y-137371771D01*
X164888877Y-137340714D01*
X164883080Y-137337566D01*
X164861612Y-137325171D01*
X164812620Y-137273788D01*
X164799185Y-137204074D01*
X164825573Y-137138163D01*
X164835519Y-137126958D01*
X170616648Y-131345829D01*
X170629039Y-131334962D01*
X170641260Y-131325585D01*
X170641264Y-131325581D01*
X170645711Y-131322169D01*
X170698302Y-131264372D01*
X170702401Y-131260076D01*
X170717642Y-131244835D01*
X170733660Y-131225678D01*
X170737131Y-131221699D01*
X170787121Y-131166761D01*
X170787122Y-131166760D01*
X170790897Y-131162611D01*
X170793880Y-131157856D01*
X170799871Y-131148307D01*
X170809941Y-131134447D01*
X170811167Y-131132981D01*
X170820770Y-131121495D01*
X170860387Y-131052039D01*
X170863069Y-131047559D01*
X170902554Y-130984616D01*
X170902555Y-130984613D01*
X170905534Y-130979865D01*
X170911830Y-130964205D01*
X170919288Y-130948777D01*
X170924874Y-130938984D01*
X170924877Y-130938978D01*
X170927654Y-130934109D01*
X170954334Y-130858764D01*
X170956184Y-130853870D01*
X170985997Y-130779707D01*
X170989422Y-130763170D01*
X170994030Y-130746667D01*
X170997793Y-130736041D01*
X170997794Y-130736037D01*
X170999664Y-130730756D01*
X171012574Y-130651917D01*
X171013536Y-130646726D01*
X171028807Y-130572986D01*
X171029744Y-130568463D01*
X171031268Y-130542034D01*
X171032715Y-130528929D01*
X171033618Y-130523411D01*
X171034526Y-130517866D01*
X171032916Y-130415364D01*
X171032900Y-130413386D01*
X171032900Y-111379713D01*
X171052902Y-111311592D01*
X171069805Y-111290618D01*
X171877405Y-110483018D01*
X171939717Y-110448992D01*
X172010532Y-110454057D01*
G37*
%TD.AperFunction*%
%TA.AperFunction,Conductor*%
G36*
X174492227Y-114178287D02*
G01*
X174549063Y-114220834D01*
X174573434Y-114282516D01*
X174588216Y-114416406D01*
X174590553Y-114437575D01*
X174649485Y-114598615D01*
X174745130Y-114740949D01*
X174871965Y-114856360D01*
X175022668Y-114938185D01*
X175188539Y-114981701D01*
X175275986Y-114983074D01*
X175352403Y-114984275D01*
X175352406Y-114984275D01*
X175360002Y-114984394D01*
X175418261Y-114971051D01*
X175489126Y-114975340D01*
X175546424Y-115017262D01*
X175550970Y-115023595D01*
X175634130Y-115147349D01*
X175760965Y-115262760D01*
X175911668Y-115344585D01*
X176077539Y-115388101D01*
X176164986Y-115389474D01*
X176241403Y-115390675D01*
X176241406Y-115390675D01*
X176249002Y-115390794D01*
X176256406Y-115389098D01*
X176256408Y-115389098D01*
X176337248Y-115370583D01*
X176416159Y-115352510D01*
X176569358Y-115275459D01*
X176575129Y-115270530D01*
X176575132Y-115270528D01*
X176693978Y-115169023D01*
X176699755Y-115164089D01*
X176799824Y-115024830D01*
X176863294Y-114866940D01*
X176891107Y-114824842D01*
X176915544Y-114800405D01*
X176977856Y-114766379D01*
X177004639Y-114763500D01*
X186282068Y-114763500D01*
X186350189Y-114783502D01*
X186396682Y-114837158D01*
X186407859Y-114882247D01*
X186416436Y-115030998D01*
X186420110Y-115094715D01*
X186421247Y-115099761D01*
X186421248Y-115099767D01*
X186441119Y-115187939D01*
X186469222Y-115312639D01*
X186499081Y-115386173D01*
X186551320Y-115514825D01*
X186551323Y-115514831D01*
X186551594Y-115515498D01*
X186551594Y-115515499D01*
X186553266Y-115519616D01*
X186552416Y-115519961D01*
X186564415Y-115585113D01*
X186537485Y-115650804D01*
X186479314Y-115691507D01*
X186439089Y-115698100D01*
X179372136Y-115698100D01*
X179355690Y-115697022D01*
X179332188Y-115693928D01*
X179324000Y-115692850D01*
X179315812Y-115693928D01*
X179284129Y-115698099D01*
X179284120Y-115698100D01*
X179284115Y-115698100D01*
X179165150Y-115713762D01*
X179017125Y-115775076D01*
X179017123Y-115775077D01*
X179017124Y-115775077D01*
X178921928Y-115848123D01*
X178921925Y-115848126D01*
X178890013Y-115872613D01*
X178884983Y-115879168D01*
X178870548Y-115897979D01*
X178859681Y-115910370D01*
X173924595Y-120845456D01*
X173862283Y-120879482D01*
X173791468Y-120874417D01*
X173734632Y-120831870D01*
X173709821Y-120765350D01*
X173709500Y-120756361D01*
X173709500Y-114909039D01*
X173729502Y-114840918D01*
X173746400Y-114819949D01*
X174359102Y-114207246D01*
X174421412Y-114173223D01*
X174492227Y-114178287D01*
G37*
%TD.AperFunction*%
%TA.AperFunction,Conductor*%
G36*
X186495003Y-111626502D02*
G01*
X186541496Y-111680158D01*
X186551600Y-111750432D01*
X186541170Y-111785550D01*
X186525671Y-111818941D01*
X186490688Y-111894305D01*
X186430989Y-112109570D01*
X186407251Y-112331695D01*
X186407548Y-112336848D01*
X186407548Y-112336851D01*
X186413011Y-112431590D01*
X186420110Y-112554715D01*
X186421248Y-112559763D01*
X186421810Y-112563764D01*
X186411483Y-112634005D01*
X186364820Y-112687513D01*
X186297036Y-112707300D01*
X177420882Y-112707300D01*
X177352761Y-112687298D01*
X177316388Y-112647512D01*
X177314887Y-112648544D01*
X177314178Y-112647512D01*
X177238338Y-112537164D01*
X177216238Y-112469696D01*
X177234123Y-112400989D01*
X177286315Y-112352859D01*
X177316129Y-112344222D01*
X177315802Y-112342794D01*
X177482959Y-112304510D01*
X177636158Y-112227459D01*
X177641929Y-112222530D01*
X177641932Y-112222528D01*
X177760778Y-112121023D01*
X177766555Y-112116089D01*
X177866624Y-111976830D01*
X177930094Y-111818940D01*
X177957907Y-111776842D01*
X178091344Y-111643405D01*
X178153656Y-111609379D01*
X178180439Y-111606500D01*
X186426882Y-111606500D01*
X186495003Y-111626502D01*
G37*
%TD.AperFunction*%
%TD*%
M02*
