%TF.GenerationSoftware,KiCad,Pcbnew,(6.0.11)*%
%TF.CreationDate,2023-08-09T22:56:22+02:00*%
%TF.ProjectId,Voiture_RC,566f6974-7572-4655-9f52-432e6b696361,rev?*%
%TF.SameCoordinates,Original*%
%TF.FileFunction,Drillmap*%
%TF.FilePolarity,Positive*%
%FSLAX45Y45*%
G04 Gerber Fmt 4.5, Leading zero omitted, Abs format (unit mm)*
G04 Created by KiCad (PCBNEW (6.0.11)) date 2023-08-09 22:56:22*
%MOMM*%
%LPD*%
G01*
G04 APERTURE LIST*
%ADD10C,0.100000*%
%ADD11C,0.200000*%
%ADD12C,0.020000*%
%ADD13C,0.060000*%
%ADD14C,0.095000*%
%ADD15C,0.300000*%
G04 APERTURE END LIST*
D10*
X13000000Y-11000000D02*
X13000000Y-14500000D01*
X21500000Y-10500000D02*
X13500000Y-10500000D01*
X13000000Y-14500000D02*
G75*
G03*
X13500000Y-15000000I500000J0D01*
G01*
X13500000Y-15000000D02*
X21500000Y-15000000D01*
X22000000Y-11000000D02*
G75*
G03*
X21500000Y-10500000I-500000J0D01*
G01*
X13500000Y-10500000D02*
G75*
G03*
X13000000Y-11000000I0J-500000D01*
G01*
X22000000Y-14500000D02*
X22000000Y-11000000D01*
X21500000Y-15000000D02*
G75*
G03*
X22000000Y-14500000I0J500000D01*
G01*
D11*
D12*
X13110000Y-11710000D02*
X13130000Y-11730000D01*
X13130000Y-11710000D02*
X13110000Y-11730000D01*
X13190000Y-14430000D02*
X13210000Y-14450000D01*
X13210000Y-14430000D02*
X13190000Y-14450000D01*
X13210000Y-12650000D02*
X13230000Y-12670000D01*
X13230000Y-12650000D02*
X13210000Y-12670000D01*
X13210000Y-13230000D02*
X13230000Y-13250000D01*
X13230000Y-13230000D02*
X13210000Y-13250000D01*
X13210000Y-13750000D02*
X13230000Y-13770000D01*
X13230000Y-13750000D02*
X13210000Y-13770000D01*
X13210000Y-14110000D02*
X13230000Y-14130000D01*
X13230000Y-14110000D02*
X13210000Y-14130000D01*
X13250000Y-10790000D02*
X13270000Y-10810000D01*
X13270000Y-10790000D02*
X13250000Y-10810000D01*
X13310000Y-10990000D02*
X13330000Y-11010000D01*
X13330000Y-10990000D02*
X13310000Y-11010000D01*
X13590000Y-10710000D02*
X13610000Y-10730000D01*
X13610000Y-10710000D02*
X13590000Y-10730000D01*
X13590000Y-11570000D02*
X13610000Y-11590000D01*
X13610000Y-11570000D02*
X13590000Y-11590000D01*
X13610000Y-13630000D02*
X13630000Y-13650000D01*
X13630000Y-13630000D02*
X13610000Y-13650000D01*
X13630000Y-14150000D02*
X13650000Y-14170000D01*
X13650000Y-14150000D02*
X13630000Y-14170000D01*
X13710000Y-13030000D02*
X13730000Y-13050000D01*
X13730000Y-13030000D02*
X13710000Y-13050000D01*
X13730000Y-12270000D02*
X13750000Y-12290000D01*
X13750000Y-12270000D02*
X13730000Y-12290000D01*
X13750000Y-11230000D02*
X13770000Y-11250000D01*
X13770000Y-11230000D02*
X13750000Y-11250000D01*
X13830000Y-14910000D02*
X13850000Y-14930000D01*
X13850000Y-14910000D02*
X13830000Y-14930000D01*
X13990000Y-12970000D02*
X14010000Y-12990000D01*
X14010000Y-12970000D02*
X13990000Y-12990000D01*
X14010000Y-10730000D02*
X14030000Y-10750000D01*
X14030000Y-10730000D02*
X14010000Y-10750000D01*
X14070000Y-14350000D02*
X14090000Y-14370000D01*
X14090000Y-14350000D02*
X14070000Y-14370000D01*
X14390000Y-13010000D02*
X14410000Y-13030000D01*
X14410000Y-13010000D02*
X14390000Y-13030000D01*
X14470000Y-10710000D02*
X14490000Y-10730000D01*
X14490000Y-10710000D02*
X14470000Y-10730000D01*
X14470000Y-14870000D02*
X14490000Y-14890000D01*
X14490000Y-14870000D02*
X14470000Y-14890000D01*
X14490000Y-13910000D02*
X14510000Y-13930000D01*
X14510000Y-13910000D02*
X14490000Y-13930000D01*
X14510000Y-10950000D02*
X14530000Y-10970000D01*
X14530000Y-10950000D02*
X14510000Y-10970000D01*
X14590000Y-14430000D02*
X14610000Y-14450000D01*
X14610000Y-14430000D02*
X14590000Y-14450000D01*
X14630000Y-11170000D02*
X14650000Y-11190000D01*
X14650000Y-11170000D02*
X14630000Y-11190000D01*
X14750000Y-11870000D02*
X14770000Y-11890000D01*
X14770000Y-11870000D02*
X14750000Y-11890000D01*
X14810000Y-13470000D02*
X14830000Y-13490000D01*
X14830000Y-13470000D02*
X14810000Y-13490000D01*
X14810000Y-13710000D02*
X14830000Y-13730000D01*
X14830000Y-13710000D02*
X14810000Y-13730000D01*
X14850000Y-11190000D02*
X14870000Y-11210000D01*
X14870000Y-11190000D02*
X14850000Y-11210000D01*
X14890000Y-11010000D02*
X14910000Y-11030000D01*
X14910000Y-11010000D02*
X14890000Y-11030000D01*
X14970000Y-10690000D02*
X14990000Y-10710000D01*
X14990000Y-10690000D02*
X14970000Y-10710000D01*
X15010000Y-13510000D02*
X15030000Y-13530000D01*
X15030000Y-13510000D02*
X15010000Y-13530000D01*
X15110000Y-14350000D02*
X15130000Y-14370000D01*
X15130000Y-14350000D02*
X15110000Y-14370000D01*
X15130000Y-12610000D02*
X15150000Y-12630000D01*
X15150000Y-12610000D02*
X15130000Y-12630000D01*
X15150000Y-14010000D02*
X15170000Y-14030000D01*
X15170000Y-14010000D02*
X15150000Y-14030000D01*
X15170000Y-11530000D02*
X15190000Y-11550000D01*
X15190000Y-11530000D02*
X15170000Y-11550000D01*
X15190000Y-12150000D02*
X15210000Y-12170000D01*
X15210000Y-12150000D02*
X15190000Y-12170000D01*
X15250000Y-14910000D02*
X15270000Y-14930000D01*
X15270000Y-14910000D02*
X15250000Y-14930000D01*
X15290000Y-14390000D02*
X15310000Y-14410000D01*
X15310000Y-14390000D02*
X15290000Y-14410000D01*
X15310000Y-10610000D02*
X15330000Y-10630000D01*
X15330000Y-10610000D02*
X15310000Y-10630000D01*
X15430000Y-13650000D02*
X15450000Y-13670000D01*
X15450000Y-13650000D02*
X15430000Y-13670000D01*
X15490000Y-13050000D02*
X15510000Y-13070000D01*
X15510000Y-13050000D02*
X15490000Y-13070000D01*
X15550000Y-11290000D02*
X15570000Y-11310000D01*
X15570000Y-11290000D02*
X15550000Y-11310000D01*
X15610000Y-13910000D02*
X15630000Y-13930000D01*
X15630000Y-13910000D02*
X15610000Y-13930000D01*
X15616080Y-13274200D02*
X15636080Y-13294200D01*
X15636080Y-13274200D02*
X15616080Y-13294200D01*
X15650000Y-12450000D02*
X15670000Y-12470000D01*
X15670000Y-12450000D02*
X15650000Y-12470000D01*
X15690000Y-11530000D02*
X15710000Y-11550000D01*
X15710000Y-11530000D02*
X15690000Y-11550000D01*
X15690000Y-11810000D02*
X15710000Y-11830000D01*
X15710000Y-11810000D02*
X15690000Y-11830000D01*
X15730000Y-10770000D02*
X15750000Y-10790000D01*
X15750000Y-10770000D02*
X15730000Y-10790000D01*
X15790000Y-11130000D02*
X15810000Y-11150000D01*
X15810000Y-11130000D02*
X15790000Y-11150000D01*
X15830000Y-12910000D02*
X15850000Y-12930000D01*
X15850000Y-12910000D02*
X15830000Y-12930000D01*
X15910000Y-11850000D02*
X15930000Y-11870000D01*
X15930000Y-11850000D02*
X15910000Y-11870000D01*
X15933580Y-13485020D02*
X15953580Y-13505020D01*
X15953580Y-13485020D02*
X15933580Y-13505020D01*
X15950000Y-13350000D02*
X15970000Y-13370000D01*
X15970000Y-13350000D02*
X15950000Y-13370000D01*
X15970000Y-13690000D02*
X15990000Y-13710000D01*
X15990000Y-13690000D02*
X15970000Y-13710000D01*
X16050000Y-11370000D02*
X16070000Y-11390000D01*
X16070000Y-11370000D02*
X16050000Y-11390000D01*
X16070000Y-12550000D02*
X16090000Y-12570000D01*
X16090000Y-12550000D02*
X16070000Y-12570000D01*
X16110000Y-10570000D02*
X16130000Y-10590000D01*
X16130000Y-10570000D02*
X16110000Y-10590000D01*
X16110000Y-14890000D02*
X16130000Y-14910000D01*
X16130000Y-14890000D02*
X16110000Y-14910000D01*
X16139320Y-12852560D02*
X16159320Y-12872560D01*
X16159320Y-12852560D02*
X16139320Y-12872560D01*
X16150000Y-12250000D02*
X16170000Y-12270000D01*
X16170000Y-12250000D02*
X16150000Y-12270000D01*
X16170000Y-14430000D02*
X16190000Y-14450000D01*
X16190000Y-14430000D02*
X16170000Y-14450000D01*
X16270000Y-13190000D02*
X16290000Y-13210000D01*
X16290000Y-13190000D02*
X16270000Y-13210000D01*
X16330000Y-11630000D02*
X16350000Y-11650000D01*
X16350000Y-11630000D02*
X16330000Y-11650000D01*
X16365380Y-13474860D02*
X16385380Y-13494860D01*
X16385380Y-13474860D02*
X16365380Y-13494860D01*
X16390000Y-13290000D02*
X16410000Y-13310000D01*
X16410000Y-13290000D02*
X16390000Y-13310000D01*
X16450000Y-11190000D02*
X16470000Y-11210000D01*
X16470000Y-11190000D02*
X16450000Y-11210000D01*
X16470000Y-14890000D02*
X16490000Y-14910000D01*
X16490000Y-14890000D02*
X16470000Y-14910000D01*
X16510000Y-10690000D02*
X16530000Y-10710000D01*
X16530000Y-10690000D02*
X16510000Y-10710000D01*
X16530000Y-12550000D02*
X16550000Y-12570000D01*
X16550000Y-12550000D02*
X16530000Y-12570000D01*
X16630000Y-13610000D02*
X16650000Y-13630000D01*
X16650000Y-13610000D02*
X16630000Y-13630000D01*
X16670000Y-13130000D02*
X16690000Y-13150000D01*
X16690000Y-13130000D02*
X16670000Y-13150000D01*
X16690000Y-11550000D02*
X16710000Y-11570000D01*
X16710000Y-11550000D02*
X16690000Y-11570000D01*
X16730000Y-11190000D02*
X16750000Y-11210000D01*
X16750000Y-11190000D02*
X16730000Y-11210000D01*
X16730000Y-12610000D02*
X16750000Y-12630000D01*
X16750000Y-12610000D02*
X16730000Y-12630000D01*
X16770000Y-10690000D02*
X16790000Y-10710000D01*
X16790000Y-10690000D02*
X16770000Y-10710000D01*
X16790000Y-12050000D02*
X16810000Y-12070000D01*
X16810000Y-12050000D02*
X16790000Y-12070000D01*
X16820040Y-13858400D02*
X16840040Y-13878400D01*
X16840040Y-13858400D02*
X16820040Y-13878400D01*
X16870000Y-13610000D02*
X16890000Y-13630000D01*
X16890000Y-13610000D02*
X16870000Y-13630000D01*
X16890000Y-14890000D02*
X16910000Y-14910000D01*
X16910000Y-14890000D02*
X16890000Y-14910000D01*
X16970000Y-13890000D02*
X16990000Y-13910000D01*
X16990000Y-13890000D02*
X16970000Y-13910000D01*
X16970000Y-14450000D02*
X16990000Y-14470000D01*
X16990000Y-14450000D02*
X16970000Y-14470000D01*
X17050000Y-13230000D02*
X17070000Y-13250000D01*
X17070000Y-13230000D02*
X17050000Y-13250000D01*
X17130000Y-11190000D02*
X17150000Y-11210000D01*
X17150000Y-11190000D02*
X17130000Y-11210000D01*
X17130000Y-11850000D02*
X17150000Y-11870000D01*
X17150000Y-11850000D02*
X17130000Y-11870000D01*
X17130000Y-12270000D02*
X17150000Y-12290000D01*
X17150000Y-12270000D02*
X17130000Y-12290000D01*
X17190000Y-13590000D02*
X17210000Y-13610000D01*
X17210000Y-13590000D02*
X17190000Y-13610000D01*
X17210000Y-14430000D02*
X17230000Y-14450000D01*
X17230000Y-14430000D02*
X17210000Y-14450000D01*
X17213740Y-12763660D02*
X17233740Y-12783660D01*
X17233740Y-12763660D02*
X17213740Y-12783660D01*
X17315000Y-13399000D02*
X17335000Y-13419000D01*
X17335000Y-13399000D02*
X17315000Y-13419000D01*
X17330000Y-14030000D02*
X17350000Y-14050000D01*
X17350000Y-14030000D02*
X17330000Y-14050000D01*
X17340740Y-12479180D02*
X17360740Y-12499180D01*
X17360740Y-12479180D02*
X17340740Y-12499180D01*
X17353440Y-12189620D02*
X17373440Y-12209620D01*
X17373440Y-12189620D02*
X17353440Y-12209620D01*
X17363600Y-13436760D02*
X17383600Y-13456760D01*
X17383600Y-13436760D02*
X17363600Y-13456760D01*
X17370000Y-11210000D02*
X17390000Y-11230000D01*
X17390000Y-11210000D02*
X17370000Y-11230000D01*
X17410000Y-11530000D02*
X17430000Y-11550000D01*
X17430000Y-11530000D02*
X17410000Y-11550000D01*
X17410000Y-12990000D02*
X17430000Y-13010000D01*
X17430000Y-12990000D02*
X17410000Y-13010000D01*
X17419480Y-13370720D02*
X17439480Y-13390720D01*
X17439480Y-13370720D02*
X17419480Y-13390720D01*
X17450000Y-11090000D02*
X17470000Y-11110000D01*
X17470000Y-11090000D02*
X17450000Y-11110000D01*
X17470000Y-12590000D02*
X17490000Y-12610000D01*
X17490000Y-12590000D02*
X17470000Y-12610000D01*
X17490000Y-12750000D02*
X17510000Y-12770000D01*
X17510000Y-12750000D02*
X17490000Y-12770000D01*
X17510000Y-13550000D02*
X17530000Y-13570000D01*
X17530000Y-13550000D02*
X17510000Y-13570000D01*
X17518540Y-11417460D02*
X17538540Y-11437460D01*
X17538540Y-11417460D02*
X17518540Y-11437460D01*
X17530000Y-14870000D02*
X17550000Y-14890000D01*
X17550000Y-14870000D02*
X17530000Y-14890000D01*
X17602360Y-12471560D02*
X17622360Y-12491560D01*
X17622360Y-12471560D02*
X17602360Y-12491560D01*
X17607440Y-11458100D02*
X17627440Y-11478100D01*
X17627440Y-11458100D02*
X17607440Y-11478100D01*
X17630000Y-10950000D02*
X17650000Y-10970000D01*
X17650000Y-10950000D02*
X17630000Y-10970000D01*
X17650000Y-12990000D02*
X17670000Y-13010000D01*
X17670000Y-12990000D02*
X17650000Y-13010000D01*
X17658240Y-11287920D02*
X17678240Y-11307920D01*
X17678240Y-11287920D02*
X17658240Y-11307920D01*
X17670000Y-14070000D02*
X17690000Y-14090000D01*
X17690000Y-14070000D02*
X17670000Y-14090000D01*
X17690000Y-13710000D02*
X17710000Y-13730000D01*
X17710000Y-13710000D02*
X17690000Y-13730000D01*
X17714120Y-11153300D02*
X17734120Y-11173300D01*
X17734120Y-11153300D02*
X17714120Y-11173300D01*
X17754437Y-12554369D02*
X17774437Y-12574369D01*
X17774437Y-12554369D02*
X17754437Y-12574369D01*
X17784840Y-12665000D02*
X17804840Y-12685000D01*
X17804840Y-12665000D02*
X17784840Y-12685000D01*
X17870000Y-10910000D02*
X17890000Y-10930000D01*
X17890000Y-10910000D02*
X17870000Y-10930000D01*
X17870000Y-11510000D02*
X17890000Y-11530000D01*
X17890000Y-11510000D02*
X17870000Y-11530000D01*
X17870000Y-11910000D02*
X17890000Y-11930000D01*
X17890000Y-11910000D02*
X17870000Y-11930000D01*
X17870000Y-12230000D02*
X17890000Y-12250000D01*
X17890000Y-12230000D02*
X17870000Y-12250000D01*
X17890000Y-11210000D02*
X17910000Y-11230000D01*
X17910000Y-11210000D02*
X17890000Y-11230000D01*
X17930000Y-13310000D02*
X17950000Y-13330000D01*
X17950000Y-13310000D02*
X17930000Y-13330000D01*
X18030000Y-13790000D02*
X18050000Y-13810000D01*
X18050000Y-13790000D02*
X18030000Y-13810000D01*
X18030000Y-14870000D02*
X18050000Y-14890000D01*
X18050000Y-14870000D02*
X18030000Y-14890000D01*
X18070000Y-12350000D02*
X18090000Y-12370000D01*
X18090000Y-12350000D02*
X18070000Y-12370000D01*
X18095200Y-14264800D02*
X18115200Y-14284800D01*
X18115200Y-14264800D02*
X18095200Y-14284800D01*
X18110000Y-13110000D02*
X18130000Y-13130000D01*
X18130000Y-13110000D02*
X18110000Y-13130000D01*
X18151000Y-12817000D02*
X18171000Y-12837000D01*
X18171000Y-12817000D02*
X18151000Y-12837000D01*
X18170000Y-11190000D02*
X18190000Y-11210000D01*
X18190000Y-11190000D02*
X18170000Y-11210000D01*
X18170000Y-11510000D02*
X18190000Y-11530000D01*
X18190000Y-11510000D02*
X18170000Y-11530000D01*
X18170000Y-11990000D02*
X18190000Y-12010000D01*
X18190000Y-11990000D02*
X18170000Y-12010000D01*
X18190000Y-14050000D02*
X18210000Y-14070000D01*
X18210000Y-14050000D02*
X18190000Y-14070000D01*
X18210000Y-10690000D02*
X18230000Y-10710000D01*
X18230000Y-10690000D02*
X18210000Y-10710000D01*
X18270000Y-14470000D02*
X18290000Y-14490000D01*
X18290000Y-14470000D02*
X18270000Y-14490000D01*
X18298320Y-12959240D02*
X18318320Y-12979240D01*
X18318320Y-12959240D02*
X18298320Y-12979240D01*
X18350000Y-10810000D02*
X18370000Y-10830000D01*
X18370000Y-10810000D02*
X18350000Y-10830000D01*
X18350000Y-13830000D02*
X18370000Y-13850000D01*
X18370000Y-13830000D02*
X18350000Y-13850000D01*
X18355230Y-12815970D02*
X18375230Y-12835970D01*
X18375230Y-12815970D02*
X18355230Y-12835970D01*
X18370000Y-13110000D02*
X18390000Y-13130000D01*
X18390000Y-13110000D02*
X18370000Y-13130000D01*
X18490000Y-11530000D02*
X18510000Y-11550000D01*
X18510000Y-11530000D02*
X18490000Y-11550000D01*
X18510000Y-14870000D02*
X18530000Y-14890000D01*
X18530000Y-14870000D02*
X18510000Y-14890000D01*
X18550000Y-11230000D02*
X18570000Y-11250000D01*
X18570000Y-11230000D02*
X18550000Y-11250000D01*
X18550000Y-11890000D02*
X18570000Y-11910000D01*
X18570000Y-11890000D02*
X18550000Y-11910000D01*
X18570000Y-10690000D02*
X18590000Y-10710000D01*
X18590000Y-10690000D02*
X18570000Y-10710000D01*
X18670000Y-13610000D02*
X18690000Y-13630000D01*
X18690000Y-13610000D02*
X18670000Y-13630000D01*
X18690000Y-12790000D02*
X18710000Y-12810000D01*
X18710000Y-12790000D02*
X18690000Y-12810000D01*
X18690000Y-13110000D02*
X18710000Y-13130000D01*
X18710000Y-13110000D02*
X18690000Y-13130000D01*
X18717420Y-12961780D02*
X18737420Y-12981780D01*
X18737420Y-12961780D02*
X18717420Y-12981780D01*
X18730000Y-14270000D02*
X18750000Y-14290000D01*
X18750000Y-14270000D02*
X18730000Y-14290000D01*
X18750000Y-13950000D02*
X18770000Y-13970000D01*
X18770000Y-13950000D02*
X18750000Y-13970000D01*
X18770000Y-12370000D02*
X18790000Y-12390000D01*
X18790000Y-12370000D02*
X18770000Y-12390000D01*
X18890000Y-11950000D02*
X18910000Y-11970000D01*
X18910000Y-11950000D02*
X18890000Y-11970000D01*
X18910000Y-14470000D02*
X18930000Y-14490000D01*
X18930000Y-14470000D02*
X18910000Y-14490000D01*
X19030000Y-14870000D02*
X19050000Y-14890000D01*
X19050000Y-14870000D02*
X19030000Y-14890000D01*
X19090000Y-12890000D02*
X19110000Y-12910000D01*
X19110000Y-12890000D02*
X19090000Y-12910000D01*
X19110000Y-14170000D02*
X19130000Y-14190000D01*
X19130000Y-14170000D02*
X19110000Y-14190000D01*
X19150000Y-13210000D02*
X19170000Y-13230000D01*
X19170000Y-13210000D02*
X19150000Y-13230000D01*
X19190000Y-14730000D02*
X19210000Y-14750000D01*
X19210000Y-14730000D02*
X19190000Y-14750000D01*
X19210000Y-12330000D02*
X19230000Y-12350000D01*
X19230000Y-12330000D02*
X19210000Y-12350000D01*
X19250000Y-11090000D02*
X19270000Y-11110000D01*
X19270000Y-11090000D02*
X19250000Y-11110000D01*
X19270000Y-11830000D02*
X19290000Y-11850000D01*
X19290000Y-11830000D02*
X19270000Y-11850000D01*
X19410000Y-13470000D02*
X19430000Y-13490000D01*
X19430000Y-13470000D02*
X19410000Y-13490000D01*
X19490000Y-12830000D02*
X19510000Y-12850000D01*
X19510000Y-12830000D02*
X19490000Y-12850000D01*
X19590000Y-14370000D02*
X19610000Y-14390000D01*
X19610000Y-14370000D02*
X19590000Y-14390000D01*
X19630000Y-10710000D02*
X19650000Y-10730000D01*
X19650000Y-10710000D02*
X19630000Y-10730000D01*
X19630000Y-12110000D02*
X19650000Y-12130000D01*
X19650000Y-12110000D02*
X19630000Y-12130000D01*
X19670000Y-13410000D02*
X19690000Y-13430000D01*
X19690000Y-13410000D02*
X19670000Y-13430000D01*
X19690000Y-11370000D02*
X19710000Y-11390000D01*
X19710000Y-11370000D02*
X19690000Y-11390000D01*
X19730000Y-13810000D02*
X19750000Y-13830000D01*
X19750000Y-13810000D02*
X19730000Y-13830000D01*
X19730000Y-14910000D02*
X19750000Y-14930000D01*
X19750000Y-14910000D02*
X19730000Y-14930000D01*
X19850000Y-14270000D02*
X19870000Y-14290000D01*
X19870000Y-14270000D02*
X19850000Y-14290000D01*
X19890000Y-12610000D02*
X19910000Y-12630000D01*
X19910000Y-12610000D02*
X19890000Y-12630000D01*
X19930000Y-13210000D02*
X19950000Y-13230000D01*
X19950000Y-13210000D02*
X19930000Y-13230000D01*
X20010000Y-14070000D02*
X20030000Y-14090000D01*
X20030000Y-14070000D02*
X20010000Y-14090000D01*
X20030000Y-13670000D02*
X20050000Y-13690000D01*
X20050000Y-13670000D02*
X20030000Y-13690000D01*
X20050000Y-14510000D02*
X20070000Y-14530000D01*
X20070000Y-14510000D02*
X20050000Y-14530000D01*
X20090000Y-10690000D02*
X20110000Y-10710000D01*
X20110000Y-10690000D02*
X20090000Y-10710000D01*
X20090000Y-11750000D02*
X20110000Y-11770000D01*
X20110000Y-11750000D02*
X20090000Y-11770000D01*
X20130000Y-12210000D02*
X20150000Y-12230000D01*
X20150000Y-12210000D02*
X20130000Y-12230000D01*
X20350000Y-14250000D02*
X20370000Y-14270000D01*
X20370000Y-14250000D02*
X20350000Y-14270000D01*
X20370000Y-14890000D02*
X20390000Y-14910000D01*
X20390000Y-14890000D02*
X20370000Y-14910000D01*
X20430000Y-14430000D02*
X20450000Y-14450000D01*
X20450000Y-14430000D02*
X20430000Y-14450000D01*
X20510000Y-11750000D02*
X20530000Y-11770000D01*
X20530000Y-11750000D02*
X20510000Y-11770000D01*
X20530000Y-11130000D02*
X20550000Y-11150000D01*
X20550000Y-11130000D02*
X20530000Y-11150000D01*
X20530000Y-13210000D02*
X20550000Y-13230000D01*
X20550000Y-13210000D02*
X20530000Y-13230000D01*
X20550000Y-12410000D02*
X20570000Y-12430000D01*
X20570000Y-12410000D02*
X20550000Y-12430000D01*
X20570000Y-10670000D02*
X20590000Y-10690000D01*
X20590000Y-10670000D02*
X20570000Y-10690000D01*
X20690000Y-13770000D02*
X20710000Y-13790000D01*
X20710000Y-13770000D02*
X20690000Y-13790000D01*
X20850000Y-14470000D02*
X20870000Y-14490000D01*
X20870000Y-14470000D02*
X20850000Y-14490000D01*
X21030000Y-12750000D02*
X21050000Y-12770000D01*
X21050000Y-12750000D02*
X21030000Y-12770000D01*
X21070000Y-13210000D02*
X21090000Y-13230000D01*
X21090000Y-13210000D02*
X21070000Y-13230000D01*
X21070000Y-13650000D02*
X21090000Y-13670000D01*
X21090000Y-13650000D02*
X21070000Y-13670000D01*
X21150000Y-13910000D02*
X21170000Y-13930000D01*
X21170000Y-13910000D02*
X21150000Y-13930000D01*
X21250000Y-14270000D02*
X21270000Y-14290000D01*
X21270000Y-14270000D02*
X21250000Y-14290000D01*
X21470000Y-12770000D02*
X21490000Y-12790000D01*
X21490000Y-12770000D02*
X21470000Y-12790000D01*
X21490000Y-13630000D02*
X21510000Y-13650000D01*
X21510000Y-13630000D02*
X21490000Y-13650000D01*
X21610000Y-14430000D02*
X21630000Y-14450000D01*
X21630000Y-14430000D02*
X21610000Y-14450000D01*
X21690000Y-14810000D02*
X21710000Y-14830000D01*
X21710000Y-14810000D02*
X21690000Y-14830000D01*
X21830000Y-14590000D02*
X21850000Y-14610000D01*
X21850000Y-14590000D02*
X21830000Y-14610000D01*
X21870000Y-12850000D02*
X21890000Y-12870000D01*
X21890000Y-12850000D02*
X21870000Y-12870000D01*
X21870000Y-13370000D02*
X21890000Y-13390000D01*
X21890000Y-13370000D02*
X21870000Y-13390000D01*
X21890000Y-14210000D02*
X21910000Y-14230000D01*
X21910000Y-14210000D02*
X21890000Y-14230000D01*
X21910000Y-13770000D02*
X21930000Y-13790000D01*
X21930000Y-13770000D02*
X21910000Y-13790000D01*
D13*
X14246380Y-12438380D02*
G75*
G03*
X14246380Y-12438380I-30000J0D01*
G01*
X14358140Y-13675360D02*
G75*
G03*
X14358140Y-13675360I-30000J0D01*
G01*
X14459740Y-11579860D02*
G75*
G03*
X14459740Y-11579860I-30000J0D01*
G01*
X14469900Y-12118340D02*
G75*
G03*
X14469900Y-12118340I-30000J0D01*
G01*
X15887220Y-14168120D02*
G75*
G03*
X15887220Y-14168120I-30000J0D01*
G01*
X16788920Y-14127480D02*
G75*
G03*
X16788920Y-14127480I-30000J0D01*
G01*
X17088640Y-14274800D02*
G75*
G03*
X17088640Y-14274800I-30000J0D01*
G01*
D14*
X17000000Y-10722500D02*
X17000000Y-10817500D01*
X16952500Y-10770000D02*
X17047500Y-10770000D01*
X17250000Y-10722500D02*
X17250000Y-10817500D01*
X17202500Y-10770000D02*
X17297500Y-10770000D01*
X17500000Y-10722500D02*
X17500000Y-10817500D01*
X17452500Y-10770000D02*
X17547500Y-10770000D01*
X17750000Y-10722500D02*
X17750000Y-10817500D01*
X17702500Y-10770000D02*
X17797500Y-10770000D01*
X18000000Y-10722500D02*
X18000000Y-10817500D01*
X17952500Y-10770000D02*
X18047500Y-10770000D01*
X19450000Y-14652500D02*
X19450000Y-14747500D01*
X19402500Y-14700000D02*
X19497500Y-14700000D01*
X19700000Y-14652500D02*
X19700000Y-14747500D01*
X19652500Y-14700000D02*
X19747500Y-14700000D01*
X19950000Y-14652500D02*
X19950000Y-14747500D01*
X19902500Y-14700000D02*
X19997500Y-14700000D01*
X20200000Y-14652500D02*
X20200000Y-14747500D01*
X20152500Y-14700000D02*
X20247500Y-14700000D01*
D10*
X13343366Y-11560276D02*
X13343366Y-11489564D01*
X13272654Y-11489564D01*
X13272654Y-11560276D01*
X13343366Y-11560276D01*
X13343366Y-11814276D02*
X13343366Y-11743564D01*
X13272654Y-11743564D01*
X13272654Y-11814276D01*
X13343366Y-11814276D01*
X13343366Y-12068276D02*
X13343366Y-11997564D01*
X13272654Y-11997564D01*
X13272654Y-12068276D01*
X13343366Y-12068276D01*
X13343366Y-12322276D02*
X13343366Y-12251564D01*
X13272654Y-12251564D01*
X13272654Y-12322276D01*
X13343366Y-12322276D01*
X13527356Y-14735356D02*
X13527356Y-14664644D01*
X13456644Y-14664644D01*
X13456644Y-14735356D01*
X13527356Y-14735356D01*
X13781356Y-14735356D02*
X13781356Y-14664644D01*
X13710644Y-14664644D01*
X13710644Y-14735356D01*
X13781356Y-14735356D01*
X14035356Y-14735356D02*
X14035356Y-14664644D01*
X13964644Y-14664644D01*
X13964644Y-14735356D01*
X14035356Y-14735356D01*
X14289356Y-14735356D02*
X14289356Y-14664644D01*
X14218644Y-14664644D01*
X14218644Y-14735356D01*
X14289356Y-14735356D01*
X14700356Y-14735356D02*
X14700356Y-14664644D01*
X14629644Y-14664644D01*
X14629644Y-14735356D01*
X14700356Y-14735356D01*
X14954356Y-14735356D02*
X14954356Y-14664644D01*
X14883644Y-14664644D01*
X14883644Y-14735356D01*
X14954356Y-14735356D01*
X15208356Y-14735356D02*
X15208356Y-14664644D01*
X15137644Y-14664644D01*
X15137644Y-14735356D01*
X15208356Y-14735356D01*
X15235356Y-10835356D02*
X15235356Y-10764644D01*
X15164644Y-10764644D01*
X15164644Y-10835356D01*
X15235356Y-10835356D01*
X15462356Y-14735356D02*
X15462356Y-14664644D01*
X15391644Y-14664644D01*
X15391644Y-14735356D01*
X15462356Y-14735356D01*
X15489356Y-10835356D02*
X15489356Y-10764644D01*
X15418644Y-10764644D01*
X15418644Y-10835356D01*
X15489356Y-10835356D01*
X15716356Y-14735356D02*
X15716356Y-14664644D01*
X15645644Y-14664644D01*
X15645644Y-14735356D01*
X15716356Y-14735356D01*
X15970356Y-14735356D02*
X15970356Y-14664644D01*
X15899644Y-14664644D01*
X15899644Y-14735356D01*
X15970356Y-14735356D01*
X16035356Y-10835356D02*
X16035356Y-10764644D01*
X15964644Y-10764644D01*
X15964644Y-10835356D01*
X16035356Y-10835356D01*
X16289356Y-10835356D02*
X16289356Y-10764644D01*
X16218644Y-10764644D01*
X16218644Y-10835356D01*
X16289356Y-10835356D01*
X16435356Y-14735356D02*
X16435356Y-14664644D01*
X16364644Y-14664644D01*
X16364644Y-14735356D01*
X16435356Y-14735356D01*
X16689356Y-14735356D02*
X16689356Y-14664644D01*
X16618644Y-14664644D01*
X16618644Y-14735356D01*
X16689356Y-14735356D01*
X18406356Y-14765356D02*
X18406356Y-14694644D01*
X18335644Y-14694644D01*
X18335644Y-14765356D01*
X18406356Y-14765356D01*
X18660356Y-14765356D02*
X18660356Y-14694644D01*
X18589644Y-14694644D01*
X18589644Y-14765356D01*
X18660356Y-14765356D01*
X18812356Y-10763856D02*
X18812356Y-10693144D01*
X18741644Y-10693144D01*
X18741644Y-10763856D01*
X18812356Y-10763856D01*
X18812356Y-11017856D02*
X18812356Y-10947144D01*
X18741644Y-10947144D01*
X18741644Y-11017856D01*
X18812356Y-11017856D01*
X18812356Y-11271856D02*
X18812356Y-11201144D01*
X18741644Y-11201144D01*
X18741644Y-11271856D01*
X18812356Y-11271856D01*
X18812356Y-11525856D02*
X18812356Y-11455144D01*
X18741644Y-11455144D01*
X18741644Y-11525856D01*
X18812356Y-11525856D01*
X18914356Y-14765356D02*
X18914356Y-14694644D01*
X18843644Y-14694644D01*
X18843644Y-14765356D01*
X18914356Y-14765356D01*
X19066356Y-10763856D02*
X19066356Y-10693144D01*
X18995644Y-10693144D01*
X18995644Y-10763856D01*
X19066356Y-10763856D01*
X19066356Y-11017856D02*
X19066356Y-10947144D01*
X18995644Y-10947144D01*
X18995644Y-11017856D01*
X19066356Y-11017856D01*
X19066356Y-11271856D02*
X19066356Y-11201144D01*
X18995644Y-11201144D01*
X18995644Y-11271856D01*
X19066356Y-11271856D01*
X19066356Y-11525856D02*
X19066356Y-11455144D01*
X18995644Y-11455144D01*
X18995644Y-11525856D01*
X19066356Y-11525856D01*
X21735356Y-13353356D02*
X21735356Y-13282644D01*
X21664644Y-13282644D01*
X21664644Y-13353356D01*
X21735356Y-13353356D01*
X21735356Y-13607356D02*
X21735356Y-13536644D01*
X21664644Y-13536644D01*
X21664644Y-13607356D01*
X21735356Y-13607356D01*
X21735356Y-13861356D02*
X21735356Y-13790644D01*
X21664644Y-13790644D01*
X21664644Y-13861356D01*
X21735356Y-13861356D01*
X21735356Y-14115356D02*
X21735356Y-14044644D01*
X21664644Y-14044644D01*
X21664644Y-14115356D01*
X21735356Y-14115356D01*
D15*
X14650000Y-12900000D02*
X14800000Y-12750000D01*
X14650000Y-12600000D01*
X14500000Y-12750000D01*
X14650000Y-12900000D01*
X20450000Y-12900000D02*
X20600000Y-12750000D01*
X20450000Y-12600000D01*
X20300000Y-12750000D01*
X20450000Y-12900000D01*
D11*
X13252619Y-15315476D02*
X13252619Y-15115476D01*
X13300238Y-15115476D01*
X13328809Y-15125000D01*
X13347857Y-15144048D01*
X13357381Y-15163095D01*
X13366905Y-15201190D01*
X13366905Y-15229762D01*
X13357381Y-15267857D01*
X13347857Y-15286905D01*
X13328809Y-15305952D01*
X13300238Y-15315476D01*
X13252619Y-15315476D01*
X13452619Y-15315476D02*
X13452619Y-15182143D01*
X13452619Y-15220238D02*
X13462143Y-15201190D01*
X13471667Y-15191667D01*
X13490714Y-15182143D01*
X13509762Y-15182143D01*
X13576428Y-15315476D02*
X13576428Y-15182143D01*
X13576428Y-15115476D02*
X13566905Y-15125000D01*
X13576428Y-15134524D01*
X13585952Y-15125000D01*
X13576428Y-15115476D01*
X13576428Y-15134524D01*
X13700238Y-15315476D02*
X13681190Y-15305952D01*
X13671667Y-15286905D01*
X13671667Y-15115476D01*
X13805000Y-15315476D02*
X13785952Y-15305952D01*
X13776428Y-15286905D01*
X13776428Y-15115476D01*
X14033571Y-15315476D02*
X14033571Y-15115476D01*
X14100238Y-15258333D01*
X14166905Y-15115476D01*
X14166905Y-15315476D01*
X14347857Y-15315476D02*
X14347857Y-15210714D01*
X14338333Y-15191667D01*
X14319286Y-15182143D01*
X14281190Y-15182143D01*
X14262143Y-15191667D01*
X14347857Y-15305952D02*
X14328809Y-15315476D01*
X14281190Y-15315476D01*
X14262143Y-15305952D01*
X14252619Y-15286905D01*
X14252619Y-15267857D01*
X14262143Y-15248809D01*
X14281190Y-15239286D01*
X14328809Y-15239286D01*
X14347857Y-15229762D01*
X14443095Y-15182143D02*
X14443095Y-15382143D01*
X14443095Y-15191667D02*
X14462143Y-15182143D01*
X14500238Y-15182143D01*
X14519286Y-15191667D01*
X14528809Y-15201190D01*
X14538333Y-15220238D01*
X14538333Y-15277381D01*
X14528809Y-15296428D01*
X14519286Y-15305952D01*
X14500238Y-15315476D01*
X14462143Y-15315476D01*
X14443095Y-15305952D01*
X14624048Y-15296428D02*
X14633571Y-15305952D01*
X14624048Y-15315476D01*
X14614524Y-15305952D01*
X14624048Y-15296428D01*
X14624048Y-15315476D01*
X14624048Y-15191667D02*
X14633571Y-15201190D01*
X14624048Y-15210714D01*
X14614524Y-15201190D01*
X14624048Y-15191667D01*
X14624048Y-15210714D01*
D12*
X12975000Y-15635000D02*
X12995000Y-15655000D01*
X12995000Y-15635000D02*
X12975000Y-15655000D01*
D11*
X13290714Y-15535476D02*
X13309762Y-15535476D01*
X13328809Y-15545000D01*
X13338333Y-15554524D01*
X13347857Y-15573571D01*
X13357381Y-15611667D01*
X13357381Y-15659286D01*
X13347857Y-15697381D01*
X13338333Y-15716428D01*
X13328809Y-15725952D01*
X13309762Y-15735476D01*
X13290714Y-15735476D01*
X13271667Y-15725952D01*
X13262143Y-15716428D01*
X13252619Y-15697381D01*
X13243095Y-15659286D01*
X13243095Y-15611667D01*
X13252619Y-15573571D01*
X13262143Y-15554524D01*
X13271667Y-15545000D01*
X13290714Y-15535476D01*
X13443095Y-15716428D02*
X13452619Y-15725952D01*
X13443095Y-15735476D01*
X13433571Y-15725952D01*
X13443095Y-15716428D01*
X13443095Y-15735476D01*
X13528809Y-15554524D02*
X13538333Y-15545000D01*
X13557381Y-15535476D01*
X13605000Y-15535476D01*
X13624048Y-15545000D01*
X13633571Y-15554524D01*
X13643095Y-15573571D01*
X13643095Y-15592619D01*
X13633571Y-15621190D01*
X13519286Y-15735476D01*
X13643095Y-15735476D01*
X13766905Y-15535476D02*
X13785952Y-15535476D01*
X13805000Y-15545000D01*
X13814524Y-15554524D01*
X13824048Y-15573571D01*
X13833571Y-15611667D01*
X13833571Y-15659286D01*
X13824048Y-15697381D01*
X13814524Y-15716428D01*
X13805000Y-15725952D01*
X13785952Y-15735476D01*
X13766905Y-15735476D01*
X13747857Y-15725952D01*
X13738333Y-15716428D01*
X13728809Y-15697381D01*
X13719286Y-15659286D01*
X13719286Y-15611667D01*
X13728809Y-15573571D01*
X13738333Y-15554524D01*
X13747857Y-15545000D01*
X13766905Y-15535476D01*
X13957381Y-15535476D02*
X13976428Y-15535476D01*
X13995476Y-15545000D01*
X14005000Y-15554524D01*
X14014524Y-15573571D01*
X14024048Y-15611667D01*
X14024048Y-15659286D01*
X14014524Y-15697381D01*
X14005000Y-15716428D01*
X13995476Y-15725952D01*
X13976428Y-15735476D01*
X13957381Y-15735476D01*
X13938333Y-15725952D01*
X13928809Y-15716428D01*
X13919286Y-15697381D01*
X13909762Y-15659286D01*
X13909762Y-15611667D01*
X13919286Y-15573571D01*
X13928809Y-15554524D01*
X13938333Y-15545000D01*
X13957381Y-15535476D01*
X14109762Y-15735476D02*
X14109762Y-15602143D01*
X14109762Y-15621190D02*
X14119286Y-15611667D01*
X14138333Y-15602143D01*
X14166905Y-15602143D01*
X14185952Y-15611667D01*
X14195476Y-15630714D01*
X14195476Y-15735476D01*
X14195476Y-15630714D02*
X14205000Y-15611667D01*
X14224048Y-15602143D01*
X14252619Y-15602143D01*
X14271667Y-15611667D01*
X14281190Y-15630714D01*
X14281190Y-15735476D01*
X14376428Y-15735476D02*
X14376428Y-15602143D01*
X14376428Y-15621190D02*
X14385952Y-15611667D01*
X14405000Y-15602143D01*
X14433571Y-15602143D01*
X14452619Y-15611667D01*
X14462143Y-15630714D01*
X14462143Y-15735476D01*
X14462143Y-15630714D02*
X14471667Y-15611667D01*
X14490714Y-15602143D01*
X14519286Y-15602143D01*
X14538333Y-15611667D01*
X14547857Y-15630714D01*
X14547857Y-15735476D01*
X14938333Y-15525952D02*
X14766905Y-15783095D01*
X15195476Y-15535476D02*
X15214524Y-15535476D01*
X15233571Y-15545000D01*
X15243095Y-15554524D01*
X15252619Y-15573571D01*
X15262143Y-15611667D01*
X15262143Y-15659286D01*
X15252619Y-15697381D01*
X15243095Y-15716428D01*
X15233571Y-15725952D01*
X15214524Y-15735476D01*
X15195476Y-15735476D01*
X15176428Y-15725952D01*
X15166905Y-15716428D01*
X15157381Y-15697381D01*
X15147857Y-15659286D01*
X15147857Y-15611667D01*
X15157381Y-15573571D01*
X15166905Y-15554524D01*
X15176428Y-15545000D01*
X15195476Y-15535476D01*
X15347857Y-15716428D02*
X15357381Y-15725952D01*
X15347857Y-15735476D01*
X15338333Y-15725952D01*
X15347857Y-15716428D01*
X15347857Y-15735476D01*
X15481190Y-15535476D02*
X15500238Y-15535476D01*
X15519286Y-15545000D01*
X15528809Y-15554524D01*
X15538333Y-15573571D01*
X15547857Y-15611667D01*
X15547857Y-15659286D01*
X15538333Y-15697381D01*
X15528809Y-15716428D01*
X15519286Y-15725952D01*
X15500238Y-15735476D01*
X15481190Y-15735476D01*
X15462143Y-15725952D01*
X15452619Y-15716428D01*
X15443095Y-15697381D01*
X15433571Y-15659286D01*
X15433571Y-15611667D01*
X15443095Y-15573571D01*
X15452619Y-15554524D01*
X15462143Y-15545000D01*
X15481190Y-15535476D01*
X15671667Y-15535476D02*
X15690714Y-15535476D01*
X15709762Y-15545000D01*
X15719286Y-15554524D01*
X15728809Y-15573571D01*
X15738333Y-15611667D01*
X15738333Y-15659286D01*
X15728809Y-15697381D01*
X15719286Y-15716428D01*
X15709762Y-15725952D01*
X15690714Y-15735476D01*
X15671667Y-15735476D01*
X15652619Y-15725952D01*
X15643095Y-15716428D01*
X15633571Y-15697381D01*
X15624048Y-15659286D01*
X15624048Y-15611667D01*
X15633571Y-15573571D01*
X15643095Y-15554524D01*
X15652619Y-15545000D01*
X15671667Y-15535476D01*
X15805000Y-15535476D02*
X15938333Y-15535476D01*
X15852619Y-15735476D01*
X16024048Y-15735476D02*
X16062143Y-15735476D01*
X16081190Y-15725952D01*
X16090714Y-15716428D01*
X16109762Y-15687857D01*
X16119286Y-15649762D01*
X16119286Y-15573571D01*
X16109762Y-15554524D01*
X16100238Y-15545000D01*
X16081190Y-15535476D01*
X16043095Y-15535476D01*
X16024048Y-15545000D01*
X16014524Y-15554524D01*
X16005000Y-15573571D01*
X16005000Y-15621190D01*
X16014524Y-15640238D01*
X16024048Y-15649762D01*
X16043095Y-15659286D01*
X16081190Y-15659286D01*
X16100238Y-15649762D01*
X16109762Y-15640238D01*
X16119286Y-15621190D01*
X16195476Y-15535476D02*
X16195476Y-15573571D01*
X16271667Y-15535476D02*
X16271667Y-15573571D01*
X16566905Y-15811667D02*
X16557381Y-15802143D01*
X16538333Y-15773571D01*
X16528809Y-15754524D01*
X16519286Y-15725952D01*
X16509762Y-15678333D01*
X16509762Y-15640238D01*
X16519286Y-15592619D01*
X16528809Y-15564048D01*
X16538333Y-15545000D01*
X16557381Y-15516428D01*
X16566905Y-15506905D01*
X16633571Y-15554524D02*
X16643095Y-15545000D01*
X16662143Y-15535476D01*
X16709762Y-15535476D01*
X16728809Y-15545000D01*
X16738333Y-15554524D01*
X16747857Y-15573571D01*
X16747857Y-15592619D01*
X16738333Y-15621190D01*
X16624048Y-15735476D01*
X16747857Y-15735476D01*
X16871667Y-15535476D02*
X16890714Y-15535476D01*
X16909762Y-15545000D01*
X16919286Y-15554524D01*
X16928810Y-15573571D01*
X16938333Y-15611667D01*
X16938333Y-15659286D01*
X16928810Y-15697381D01*
X16919286Y-15716428D01*
X16909762Y-15725952D01*
X16890714Y-15735476D01*
X16871667Y-15735476D01*
X16852619Y-15725952D01*
X16843095Y-15716428D01*
X16833571Y-15697381D01*
X16824048Y-15659286D01*
X16824048Y-15611667D01*
X16833571Y-15573571D01*
X16843095Y-15554524D01*
X16852619Y-15545000D01*
X16871667Y-15535476D01*
X17014524Y-15554524D02*
X17024048Y-15545000D01*
X17043095Y-15535476D01*
X17090714Y-15535476D01*
X17109762Y-15545000D01*
X17119286Y-15554524D01*
X17128810Y-15573571D01*
X17128810Y-15592619D01*
X17119286Y-15621190D01*
X17005000Y-15735476D01*
X17128810Y-15735476D01*
X17366905Y-15735476D02*
X17366905Y-15535476D01*
X17452619Y-15735476D02*
X17452619Y-15630714D01*
X17443095Y-15611667D01*
X17424048Y-15602143D01*
X17395476Y-15602143D01*
X17376429Y-15611667D01*
X17366905Y-15621190D01*
X17576429Y-15735476D02*
X17557381Y-15725952D01*
X17547857Y-15716428D01*
X17538333Y-15697381D01*
X17538333Y-15640238D01*
X17547857Y-15621190D01*
X17557381Y-15611667D01*
X17576429Y-15602143D01*
X17605000Y-15602143D01*
X17624048Y-15611667D01*
X17633571Y-15621190D01*
X17643095Y-15640238D01*
X17643095Y-15697381D01*
X17633571Y-15716428D01*
X17624048Y-15725952D01*
X17605000Y-15735476D01*
X17576429Y-15735476D01*
X17757381Y-15735476D02*
X17738333Y-15725952D01*
X17728810Y-15706905D01*
X17728810Y-15535476D01*
X17909762Y-15725952D02*
X17890714Y-15735476D01*
X17852619Y-15735476D01*
X17833571Y-15725952D01*
X17824048Y-15706905D01*
X17824048Y-15630714D01*
X17833571Y-15611667D01*
X17852619Y-15602143D01*
X17890714Y-15602143D01*
X17909762Y-15611667D01*
X17919286Y-15630714D01*
X17919286Y-15649762D01*
X17824048Y-15668809D01*
X17995476Y-15725952D02*
X18014524Y-15735476D01*
X18052619Y-15735476D01*
X18071667Y-15725952D01*
X18081190Y-15706905D01*
X18081190Y-15697381D01*
X18071667Y-15678333D01*
X18052619Y-15668809D01*
X18024048Y-15668809D01*
X18005000Y-15659286D01*
X17995476Y-15640238D01*
X17995476Y-15630714D01*
X18005000Y-15611667D01*
X18024048Y-15602143D01*
X18052619Y-15602143D01*
X18071667Y-15611667D01*
X18147857Y-15811667D02*
X18157381Y-15802143D01*
X18176429Y-15773571D01*
X18185952Y-15754524D01*
X18195476Y-15725952D01*
X18205000Y-15678333D01*
X18205000Y-15640238D01*
X18195476Y-15592619D01*
X18185952Y-15564048D01*
X18176429Y-15545000D01*
X18157381Y-15516428D01*
X18147857Y-15506905D01*
D13*
X12995000Y-15909000D02*
G75*
G03*
X12995000Y-15909000I-30000J0D01*
G01*
D11*
X13290714Y-15799476D02*
X13309762Y-15799476D01*
X13328809Y-15809000D01*
X13338333Y-15818524D01*
X13347857Y-15837571D01*
X13357381Y-15875667D01*
X13357381Y-15923286D01*
X13347857Y-15961381D01*
X13338333Y-15980428D01*
X13328809Y-15989952D01*
X13309762Y-15999476D01*
X13290714Y-15999476D01*
X13271667Y-15989952D01*
X13262143Y-15980428D01*
X13252619Y-15961381D01*
X13243095Y-15923286D01*
X13243095Y-15875667D01*
X13252619Y-15837571D01*
X13262143Y-15818524D01*
X13271667Y-15809000D01*
X13290714Y-15799476D01*
X13443095Y-15980428D02*
X13452619Y-15989952D01*
X13443095Y-15999476D01*
X13433571Y-15989952D01*
X13443095Y-15980428D01*
X13443095Y-15999476D01*
X13624048Y-15799476D02*
X13585952Y-15799476D01*
X13566905Y-15809000D01*
X13557381Y-15818524D01*
X13538333Y-15847095D01*
X13528809Y-15885190D01*
X13528809Y-15961381D01*
X13538333Y-15980428D01*
X13547857Y-15989952D01*
X13566905Y-15999476D01*
X13605000Y-15999476D01*
X13624048Y-15989952D01*
X13633571Y-15980428D01*
X13643095Y-15961381D01*
X13643095Y-15913762D01*
X13633571Y-15894714D01*
X13624048Y-15885190D01*
X13605000Y-15875667D01*
X13566905Y-15875667D01*
X13547857Y-15885190D01*
X13538333Y-15894714D01*
X13528809Y-15913762D01*
X13766905Y-15799476D02*
X13785952Y-15799476D01*
X13805000Y-15809000D01*
X13814524Y-15818524D01*
X13824048Y-15837571D01*
X13833571Y-15875667D01*
X13833571Y-15923286D01*
X13824048Y-15961381D01*
X13814524Y-15980428D01*
X13805000Y-15989952D01*
X13785952Y-15999476D01*
X13766905Y-15999476D01*
X13747857Y-15989952D01*
X13738333Y-15980428D01*
X13728809Y-15961381D01*
X13719286Y-15923286D01*
X13719286Y-15875667D01*
X13728809Y-15837571D01*
X13738333Y-15818524D01*
X13747857Y-15809000D01*
X13766905Y-15799476D01*
X13957381Y-15799476D02*
X13976428Y-15799476D01*
X13995476Y-15809000D01*
X14005000Y-15818524D01*
X14014524Y-15837571D01*
X14024048Y-15875667D01*
X14024048Y-15923286D01*
X14014524Y-15961381D01*
X14005000Y-15980428D01*
X13995476Y-15989952D01*
X13976428Y-15999476D01*
X13957381Y-15999476D01*
X13938333Y-15989952D01*
X13928809Y-15980428D01*
X13919286Y-15961381D01*
X13909762Y-15923286D01*
X13909762Y-15875667D01*
X13919286Y-15837571D01*
X13928809Y-15818524D01*
X13938333Y-15809000D01*
X13957381Y-15799476D01*
X14109762Y-15999476D02*
X14109762Y-15866143D01*
X14109762Y-15885190D02*
X14119286Y-15875667D01*
X14138333Y-15866143D01*
X14166905Y-15866143D01*
X14185952Y-15875667D01*
X14195476Y-15894714D01*
X14195476Y-15999476D01*
X14195476Y-15894714D02*
X14205000Y-15875667D01*
X14224048Y-15866143D01*
X14252619Y-15866143D01*
X14271667Y-15875667D01*
X14281190Y-15894714D01*
X14281190Y-15999476D01*
X14376428Y-15999476D02*
X14376428Y-15866143D01*
X14376428Y-15885190D02*
X14385952Y-15875667D01*
X14405000Y-15866143D01*
X14433571Y-15866143D01*
X14452619Y-15875667D01*
X14462143Y-15894714D01*
X14462143Y-15999476D01*
X14462143Y-15894714D02*
X14471667Y-15875667D01*
X14490714Y-15866143D01*
X14519286Y-15866143D01*
X14538333Y-15875667D01*
X14547857Y-15894714D01*
X14547857Y-15999476D01*
X14938333Y-15789952D02*
X14766905Y-16047095D01*
X15195476Y-15799476D02*
X15214524Y-15799476D01*
X15233571Y-15809000D01*
X15243095Y-15818524D01*
X15252619Y-15837571D01*
X15262143Y-15875667D01*
X15262143Y-15923286D01*
X15252619Y-15961381D01*
X15243095Y-15980428D01*
X15233571Y-15989952D01*
X15214524Y-15999476D01*
X15195476Y-15999476D01*
X15176428Y-15989952D01*
X15166905Y-15980428D01*
X15157381Y-15961381D01*
X15147857Y-15923286D01*
X15147857Y-15875667D01*
X15157381Y-15837571D01*
X15166905Y-15818524D01*
X15176428Y-15809000D01*
X15195476Y-15799476D01*
X15347857Y-15980428D02*
X15357381Y-15989952D01*
X15347857Y-15999476D01*
X15338333Y-15989952D01*
X15347857Y-15980428D01*
X15347857Y-15999476D01*
X15481190Y-15799476D02*
X15500238Y-15799476D01*
X15519286Y-15809000D01*
X15528809Y-15818524D01*
X15538333Y-15837571D01*
X15547857Y-15875667D01*
X15547857Y-15923286D01*
X15538333Y-15961381D01*
X15528809Y-15980428D01*
X15519286Y-15989952D01*
X15500238Y-15999476D01*
X15481190Y-15999476D01*
X15462143Y-15989952D01*
X15452619Y-15980428D01*
X15443095Y-15961381D01*
X15433571Y-15923286D01*
X15433571Y-15875667D01*
X15443095Y-15837571D01*
X15452619Y-15818524D01*
X15462143Y-15809000D01*
X15481190Y-15799476D01*
X15624048Y-15818524D02*
X15633571Y-15809000D01*
X15652619Y-15799476D01*
X15700238Y-15799476D01*
X15719286Y-15809000D01*
X15728809Y-15818524D01*
X15738333Y-15837571D01*
X15738333Y-15856619D01*
X15728809Y-15885190D01*
X15614524Y-15999476D01*
X15738333Y-15999476D01*
X15805000Y-15799476D02*
X15928809Y-15799476D01*
X15862143Y-15875667D01*
X15890714Y-15875667D01*
X15909762Y-15885190D01*
X15919286Y-15894714D01*
X15928809Y-15913762D01*
X15928809Y-15961381D01*
X15919286Y-15980428D01*
X15909762Y-15989952D01*
X15890714Y-15999476D01*
X15833571Y-15999476D01*
X15814524Y-15989952D01*
X15805000Y-15980428D01*
X16100238Y-15799476D02*
X16062143Y-15799476D01*
X16043095Y-15809000D01*
X16033571Y-15818524D01*
X16014524Y-15847095D01*
X16005000Y-15885190D01*
X16005000Y-15961381D01*
X16014524Y-15980428D01*
X16024048Y-15989952D01*
X16043095Y-15999476D01*
X16081190Y-15999476D01*
X16100238Y-15989952D01*
X16109762Y-15980428D01*
X16119286Y-15961381D01*
X16119286Y-15913762D01*
X16109762Y-15894714D01*
X16100238Y-15885190D01*
X16081190Y-15875667D01*
X16043095Y-15875667D01*
X16024048Y-15885190D01*
X16014524Y-15894714D01*
X16005000Y-15913762D01*
X16195476Y-15799476D02*
X16195476Y-15837571D01*
X16271667Y-15799476D02*
X16271667Y-15837571D01*
X16566905Y-16075667D02*
X16557381Y-16066143D01*
X16538333Y-16037571D01*
X16528809Y-16018524D01*
X16519286Y-15989952D01*
X16509762Y-15942333D01*
X16509762Y-15904238D01*
X16519286Y-15856619D01*
X16528809Y-15828048D01*
X16538333Y-15809000D01*
X16557381Y-15780428D01*
X16566905Y-15770905D01*
X16624048Y-15799476D02*
X16757381Y-15799476D01*
X16671667Y-15999476D01*
X16985952Y-15999476D02*
X16985952Y-15799476D01*
X17071667Y-15999476D02*
X17071667Y-15894714D01*
X17062143Y-15875667D01*
X17043095Y-15866143D01*
X17014524Y-15866143D01*
X16995476Y-15875667D01*
X16985952Y-15885190D01*
X17195476Y-15999476D02*
X17176429Y-15989952D01*
X17166905Y-15980428D01*
X17157381Y-15961381D01*
X17157381Y-15904238D01*
X17166905Y-15885190D01*
X17176429Y-15875667D01*
X17195476Y-15866143D01*
X17224048Y-15866143D01*
X17243095Y-15875667D01*
X17252619Y-15885190D01*
X17262143Y-15904238D01*
X17262143Y-15961381D01*
X17252619Y-15980428D01*
X17243095Y-15989952D01*
X17224048Y-15999476D01*
X17195476Y-15999476D01*
X17376429Y-15999476D02*
X17357381Y-15989952D01*
X17347857Y-15970905D01*
X17347857Y-15799476D01*
X17528810Y-15989952D02*
X17509762Y-15999476D01*
X17471667Y-15999476D01*
X17452619Y-15989952D01*
X17443095Y-15970905D01*
X17443095Y-15894714D01*
X17452619Y-15875667D01*
X17471667Y-15866143D01*
X17509762Y-15866143D01*
X17528810Y-15875667D01*
X17538333Y-15894714D01*
X17538333Y-15913762D01*
X17443095Y-15932809D01*
X17614524Y-15989952D02*
X17633571Y-15999476D01*
X17671667Y-15999476D01*
X17690714Y-15989952D01*
X17700238Y-15970905D01*
X17700238Y-15961381D01*
X17690714Y-15942333D01*
X17671667Y-15932809D01*
X17643095Y-15932809D01*
X17624048Y-15923286D01*
X17614524Y-15904238D01*
X17614524Y-15894714D01*
X17624048Y-15875667D01*
X17643095Y-15866143D01*
X17671667Y-15866143D01*
X17690714Y-15875667D01*
X17766905Y-16075667D02*
X17776429Y-16066143D01*
X17795476Y-16037571D01*
X17805000Y-16018524D01*
X17814524Y-15989952D01*
X17824048Y-15942333D01*
X17824048Y-15904238D01*
X17814524Y-15856619D01*
X17805000Y-15828048D01*
X17795476Y-15809000D01*
X17776429Y-15780428D01*
X17766905Y-15770905D01*
D14*
X12947500Y-16125500D02*
X12947500Y-16220500D01*
X12900000Y-16173000D02*
X12995000Y-16173000D01*
D11*
X13290714Y-16063476D02*
X13309762Y-16063476D01*
X13328809Y-16073000D01*
X13338333Y-16082524D01*
X13347857Y-16101571D01*
X13357381Y-16139667D01*
X13357381Y-16187286D01*
X13347857Y-16225381D01*
X13338333Y-16244428D01*
X13328809Y-16253952D01*
X13309762Y-16263476D01*
X13290714Y-16263476D01*
X13271667Y-16253952D01*
X13262143Y-16244428D01*
X13252619Y-16225381D01*
X13243095Y-16187286D01*
X13243095Y-16139667D01*
X13252619Y-16101571D01*
X13262143Y-16082524D01*
X13271667Y-16073000D01*
X13290714Y-16063476D01*
X13443095Y-16244428D02*
X13452619Y-16253952D01*
X13443095Y-16263476D01*
X13433571Y-16253952D01*
X13443095Y-16244428D01*
X13443095Y-16263476D01*
X13547857Y-16263476D02*
X13585952Y-16263476D01*
X13605000Y-16253952D01*
X13614524Y-16244428D01*
X13633571Y-16215857D01*
X13643095Y-16177762D01*
X13643095Y-16101571D01*
X13633571Y-16082524D01*
X13624048Y-16073000D01*
X13605000Y-16063476D01*
X13566905Y-16063476D01*
X13547857Y-16073000D01*
X13538333Y-16082524D01*
X13528809Y-16101571D01*
X13528809Y-16149190D01*
X13538333Y-16168238D01*
X13547857Y-16177762D01*
X13566905Y-16187286D01*
X13605000Y-16187286D01*
X13624048Y-16177762D01*
X13633571Y-16168238D01*
X13643095Y-16149190D01*
X13824048Y-16063476D02*
X13728809Y-16063476D01*
X13719286Y-16158714D01*
X13728809Y-16149190D01*
X13747857Y-16139667D01*
X13795476Y-16139667D01*
X13814524Y-16149190D01*
X13824048Y-16158714D01*
X13833571Y-16177762D01*
X13833571Y-16225381D01*
X13824048Y-16244428D01*
X13814524Y-16253952D01*
X13795476Y-16263476D01*
X13747857Y-16263476D01*
X13728809Y-16253952D01*
X13719286Y-16244428D01*
X13957381Y-16063476D02*
X13976428Y-16063476D01*
X13995476Y-16073000D01*
X14005000Y-16082524D01*
X14014524Y-16101571D01*
X14024048Y-16139667D01*
X14024048Y-16187286D01*
X14014524Y-16225381D01*
X14005000Y-16244428D01*
X13995476Y-16253952D01*
X13976428Y-16263476D01*
X13957381Y-16263476D01*
X13938333Y-16253952D01*
X13928809Y-16244428D01*
X13919286Y-16225381D01*
X13909762Y-16187286D01*
X13909762Y-16139667D01*
X13919286Y-16101571D01*
X13928809Y-16082524D01*
X13938333Y-16073000D01*
X13957381Y-16063476D01*
X14109762Y-16263476D02*
X14109762Y-16130143D01*
X14109762Y-16149190D02*
X14119286Y-16139667D01*
X14138333Y-16130143D01*
X14166905Y-16130143D01*
X14185952Y-16139667D01*
X14195476Y-16158714D01*
X14195476Y-16263476D01*
X14195476Y-16158714D02*
X14205000Y-16139667D01*
X14224048Y-16130143D01*
X14252619Y-16130143D01*
X14271667Y-16139667D01*
X14281190Y-16158714D01*
X14281190Y-16263476D01*
X14376428Y-16263476D02*
X14376428Y-16130143D01*
X14376428Y-16149190D02*
X14385952Y-16139667D01*
X14405000Y-16130143D01*
X14433571Y-16130143D01*
X14452619Y-16139667D01*
X14462143Y-16158714D01*
X14462143Y-16263476D01*
X14462143Y-16158714D02*
X14471667Y-16139667D01*
X14490714Y-16130143D01*
X14519286Y-16130143D01*
X14538333Y-16139667D01*
X14547857Y-16158714D01*
X14547857Y-16263476D01*
X14938333Y-16053952D02*
X14766905Y-16311095D01*
X15195476Y-16063476D02*
X15214524Y-16063476D01*
X15233571Y-16073000D01*
X15243095Y-16082524D01*
X15252619Y-16101571D01*
X15262143Y-16139667D01*
X15262143Y-16187286D01*
X15252619Y-16225381D01*
X15243095Y-16244428D01*
X15233571Y-16253952D01*
X15214524Y-16263476D01*
X15195476Y-16263476D01*
X15176428Y-16253952D01*
X15166905Y-16244428D01*
X15157381Y-16225381D01*
X15147857Y-16187286D01*
X15147857Y-16139667D01*
X15157381Y-16101571D01*
X15166905Y-16082524D01*
X15176428Y-16073000D01*
X15195476Y-16063476D01*
X15347857Y-16244428D02*
X15357381Y-16253952D01*
X15347857Y-16263476D01*
X15338333Y-16253952D01*
X15347857Y-16244428D01*
X15347857Y-16263476D01*
X15481190Y-16063476D02*
X15500238Y-16063476D01*
X15519286Y-16073000D01*
X15528809Y-16082524D01*
X15538333Y-16101571D01*
X15547857Y-16139667D01*
X15547857Y-16187286D01*
X15538333Y-16225381D01*
X15528809Y-16244428D01*
X15519286Y-16253952D01*
X15500238Y-16263476D01*
X15481190Y-16263476D01*
X15462143Y-16253952D01*
X15452619Y-16244428D01*
X15443095Y-16225381D01*
X15433571Y-16187286D01*
X15433571Y-16139667D01*
X15443095Y-16101571D01*
X15452619Y-16082524D01*
X15462143Y-16073000D01*
X15481190Y-16063476D01*
X15614524Y-16063476D02*
X15738333Y-16063476D01*
X15671667Y-16139667D01*
X15700238Y-16139667D01*
X15719286Y-16149190D01*
X15728809Y-16158714D01*
X15738333Y-16177762D01*
X15738333Y-16225381D01*
X15728809Y-16244428D01*
X15719286Y-16253952D01*
X15700238Y-16263476D01*
X15643095Y-16263476D01*
X15624048Y-16253952D01*
X15614524Y-16244428D01*
X15805000Y-16063476D02*
X15938333Y-16063476D01*
X15852619Y-16263476D01*
X16100238Y-16130143D02*
X16100238Y-16263476D01*
X16052619Y-16053952D02*
X16005000Y-16196809D01*
X16128809Y-16196809D01*
X16195476Y-16063476D02*
X16195476Y-16101571D01*
X16271667Y-16063476D02*
X16271667Y-16101571D01*
X16566905Y-16339667D02*
X16557381Y-16330143D01*
X16538333Y-16301571D01*
X16528809Y-16282524D01*
X16519286Y-16253952D01*
X16509762Y-16206333D01*
X16509762Y-16168238D01*
X16519286Y-16120619D01*
X16528809Y-16092048D01*
X16538333Y-16073000D01*
X16557381Y-16044428D01*
X16566905Y-16034905D01*
X16652619Y-16263476D02*
X16690714Y-16263476D01*
X16709762Y-16253952D01*
X16719286Y-16244428D01*
X16738333Y-16215857D01*
X16747857Y-16177762D01*
X16747857Y-16101571D01*
X16738333Y-16082524D01*
X16728809Y-16073000D01*
X16709762Y-16063476D01*
X16671667Y-16063476D01*
X16652619Y-16073000D01*
X16643095Y-16082524D01*
X16633571Y-16101571D01*
X16633571Y-16149190D01*
X16643095Y-16168238D01*
X16652619Y-16177762D01*
X16671667Y-16187286D01*
X16709762Y-16187286D01*
X16728809Y-16177762D01*
X16738333Y-16168238D01*
X16747857Y-16149190D01*
X16985952Y-16263476D02*
X16985952Y-16063476D01*
X17071667Y-16263476D02*
X17071667Y-16158714D01*
X17062143Y-16139667D01*
X17043095Y-16130143D01*
X17014524Y-16130143D01*
X16995476Y-16139667D01*
X16985952Y-16149190D01*
X17195476Y-16263476D02*
X17176429Y-16253952D01*
X17166905Y-16244428D01*
X17157381Y-16225381D01*
X17157381Y-16168238D01*
X17166905Y-16149190D01*
X17176429Y-16139667D01*
X17195476Y-16130143D01*
X17224048Y-16130143D01*
X17243095Y-16139667D01*
X17252619Y-16149190D01*
X17262143Y-16168238D01*
X17262143Y-16225381D01*
X17252619Y-16244428D01*
X17243095Y-16253952D01*
X17224048Y-16263476D01*
X17195476Y-16263476D01*
X17376429Y-16263476D02*
X17357381Y-16253952D01*
X17347857Y-16234905D01*
X17347857Y-16063476D01*
X17528810Y-16253952D02*
X17509762Y-16263476D01*
X17471667Y-16263476D01*
X17452619Y-16253952D01*
X17443095Y-16234905D01*
X17443095Y-16158714D01*
X17452619Y-16139667D01*
X17471667Y-16130143D01*
X17509762Y-16130143D01*
X17528810Y-16139667D01*
X17538333Y-16158714D01*
X17538333Y-16177762D01*
X17443095Y-16196809D01*
X17614524Y-16253952D02*
X17633571Y-16263476D01*
X17671667Y-16263476D01*
X17690714Y-16253952D01*
X17700238Y-16234905D01*
X17700238Y-16225381D01*
X17690714Y-16206333D01*
X17671667Y-16196809D01*
X17643095Y-16196809D01*
X17624048Y-16187286D01*
X17614524Y-16168238D01*
X17614524Y-16158714D01*
X17624048Y-16139667D01*
X17643095Y-16130143D01*
X17671667Y-16130143D01*
X17690714Y-16139667D01*
X17766905Y-16339667D02*
X17776429Y-16330143D01*
X17795476Y-16301571D01*
X17805000Y-16282524D01*
X17814524Y-16253952D01*
X17824048Y-16206333D01*
X17824048Y-16168238D01*
X17814524Y-16120619D01*
X17805000Y-16092048D01*
X17795476Y-16073000D01*
X17776429Y-16044428D01*
X17766905Y-16034905D01*
D10*
X12980356Y-16472356D02*
X12980356Y-16401644D01*
X12909644Y-16401644D01*
X12909644Y-16472356D01*
X12980356Y-16472356D01*
D11*
X13357381Y-16527476D02*
X13243095Y-16527476D01*
X13300238Y-16527476D02*
X13300238Y-16327476D01*
X13281190Y-16356048D01*
X13262143Y-16375095D01*
X13243095Y-16384619D01*
X13443095Y-16508428D02*
X13452619Y-16517952D01*
X13443095Y-16527476D01*
X13433571Y-16517952D01*
X13443095Y-16508428D01*
X13443095Y-16527476D01*
X13576428Y-16327476D02*
X13595476Y-16327476D01*
X13614524Y-16337000D01*
X13624048Y-16346524D01*
X13633571Y-16365571D01*
X13643095Y-16403667D01*
X13643095Y-16451286D01*
X13633571Y-16489381D01*
X13624048Y-16508428D01*
X13614524Y-16517952D01*
X13595476Y-16527476D01*
X13576428Y-16527476D01*
X13557381Y-16517952D01*
X13547857Y-16508428D01*
X13538333Y-16489381D01*
X13528809Y-16451286D01*
X13528809Y-16403667D01*
X13538333Y-16365571D01*
X13547857Y-16346524D01*
X13557381Y-16337000D01*
X13576428Y-16327476D01*
X13766905Y-16327476D02*
X13785952Y-16327476D01*
X13805000Y-16337000D01*
X13814524Y-16346524D01*
X13824048Y-16365571D01*
X13833571Y-16403667D01*
X13833571Y-16451286D01*
X13824048Y-16489381D01*
X13814524Y-16508428D01*
X13805000Y-16517952D01*
X13785952Y-16527476D01*
X13766905Y-16527476D01*
X13747857Y-16517952D01*
X13738333Y-16508428D01*
X13728809Y-16489381D01*
X13719286Y-16451286D01*
X13719286Y-16403667D01*
X13728809Y-16365571D01*
X13738333Y-16346524D01*
X13747857Y-16337000D01*
X13766905Y-16327476D01*
X13957381Y-16327476D02*
X13976428Y-16327476D01*
X13995476Y-16337000D01*
X14005000Y-16346524D01*
X14014524Y-16365571D01*
X14024048Y-16403667D01*
X14024048Y-16451286D01*
X14014524Y-16489381D01*
X14005000Y-16508428D01*
X13995476Y-16517952D01*
X13976428Y-16527476D01*
X13957381Y-16527476D01*
X13938333Y-16517952D01*
X13928809Y-16508428D01*
X13919286Y-16489381D01*
X13909762Y-16451286D01*
X13909762Y-16403667D01*
X13919286Y-16365571D01*
X13928809Y-16346524D01*
X13938333Y-16337000D01*
X13957381Y-16327476D01*
X14109762Y-16527476D02*
X14109762Y-16394143D01*
X14109762Y-16413190D02*
X14119286Y-16403667D01*
X14138333Y-16394143D01*
X14166905Y-16394143D01*
X14185952Y-16403667D01*
X14195476Y-16422714D01*
X14195476Y-16527476D01*
X14195476Y-16422714D02*
X14205000Y-16403667D01*
X14224048Y-16394143D01*
X14252619Y-16394143D01*
X14271667Y-16403667D01*
X14281190Y-16422714D01*
X14281190Y-16527476D01*
X14376428Y-16527476D02*
X14376428Y-16394143D01*
X14376428Y-16413190D02*
X14385952Y-16403667D01*
X14405000Y-16394143D01*
X14433571Y-16394143D01*
X14452619Y-16403667D01*
X14462143Y-16422714D01*
X14462143Y-16527476D01*
X14462143Y-16422714D02*
X14471667Y-16403667D01*
X14490714Y-16394143D01*
X14519286Y-16394143D01*
X14538333Y-16403667D01*
X14547857Y-16422714D01*
X14547857Y-16527476D01*
X14938333Y-16317952D02*
X14766905Y-16575095D01*
X15195476Y-16327476D02*
X15214524Y-16327476D01*
X15233571Y-16337000D01*
X15243095Y-16346524D01*
X15252619Y-16365571D01*
X15262143Y-16403667D01*
X15262143Y-16451286D01*
X15252619Y-16489381D01*
X15243095Y-16508428D01*
X15233571Y-16517952D01*
X15214524Y-16527476D01*
X15195476Y-16527476D01*
X15176428Y-16517952D01*
X15166905Y-16508428D01*
X15157381Y-16489381D01*
X15147857Y-16451286D01*
X15147857Y-16403667D01*
X15157381Y-16365571D01*
X15166905Y-16346524D01*
X15176428Y-16337000D01*
X15195476Y-16327476D01*
X15347857Y-16508428D02*
X15357381Y-16517952D01*
X15347857Y-16527476D01*
X15338333Y-16517952D01*
X15347857Y-16508428D01*
X15347857Y-16527476D01*
X15481190Y-16327476D02*
X15500238Y-16327476D01*
X15519286Y-16337000D01*
X15528809Y-16346524D01*
X15538333Y-16365571D01*
X15547857Y-16403667D01*
X15547857Y-16451286D01*
X15538333Y-16489381D01*
X15528809Y-16508428D01*
X15519286Y-16517952D01*
X15500238Y-16527476D01*
X15481190Y-16527476D01*
X15462143Y-16517952D01*
X15452619Y-16508428D01*
X15443095Y-16489381D01*
X15433571Y-16451286D01*
X15433571Y-16403667D01*
X15443095Y-16365571D01*
X15452619Y-16346524D01*
X15462143Y-16337000D01*
X15481190Y-16327476D01*
X15614524Y-16327476D02*
X15738333Y-16327476D01*
X15671667Y-16403667D01*
X15700238Y-16403667D01*
X15719286Y-16413190D01*
X15728809Y-16422714D01*
X15738333Y-16441762D01*
X15738333Y-16489381D01*
X15728809Y-16508428D01*
X15719286Y-16517952D01*
X15700238Y-16527476D01*
X15643095Y-16527476D01*
X15624048Y-16517952D01*
X15614524Y-16508428D01*
X15833571Y-16527476D02*
X15871667Y-16527476D01*
X15890714Y-16517952D01*
X15900238Y-16508428D01*
X15919286Y-16479857D01*
X15928809Y-16441762D01*
X15928809Y-16365571D01*
X15919286Y-16346524D01*
X15909762Y-16337000D01*
X15890714Y-16327476D01*
X15852619Y-16327476D01*
X15833571Y-16337000D01*
X15824048Y-16346524D01*
X15814524Y-16365571D01*
X15814524Y-16413190D01*
X15824048Y-16432238D01*
X15833571Y-16441762D01*
X15852619Y-16451286D01*
X15890714Y-16451286D01*
X15909762Y-16441762D01*
X15919286Y-16432238D01*
X15928809Y-16413190D01*
X16100238Y-16394143D02*
X16100238Y-16527476D01*
X16052619Y-16317952D02*
X16005000Y-16460809D01*
X16128809Y-16460809D01*
X16195476Y-16327476D02*
X16195476Y-16365571D01*
X16271667Y-16327476D02*
X16271667Y-16365571D01*
X16566905Y-16603667D02*
X16557381Y-16594143D01*
X16538333Y-16565571D01*
X16528809Y-16546524D01*
X16519286Y-16517952D01*
X16509762Y-16470333D01*
X16509762Y-16432238D01*
X16519286Y-16384619D01*
X16528809Y-16356048D01*
X16538333Y-16337000D01*
X16557381Y-16308428D01*
X16566905Y-16298905D01*
X16624048Y-16327476D02*
X16747857Y-16327476D01*
X16681190Y-16403667D01*
X16709762Y-16403667D01*
X16728809Y-16413190D01*
X16738333Y-16422714D01*
X16747857Y-16441762D01*
X16747857Y-16489381D01*
X16738333Y-16508428D01*
X16728809Y-16517952D01*
X16709762Y-16527476D01*
X16652619Y-16527476D01*
X16633571Y-16517952D01*
X16624048Y-16508428D01*
X16928810Y-16327476D02*
X16833571Y-16327476D01*
X16824048Y-16422714D01*
X16833571Y-16413190D01*
X16852619Y-16403667D01*
X16900238Y-16403667D01*
X16919286Y-16413190D01*
X16928810Y-16422714D01*
X16938333Y-16441762D01*
X16938333Y-16489381D01*
X16928810Y-16508428D01*
X16919286Y-16517952D01*
X16900238Y-16527476D01*
X16852619Y-16527476D01*
X16833571Y-16517952D01*
X16824048Y-16508428D01*
X17176429Y-16527476D02*
X17176429Y-16327476D01*
X17262143Y-16527476D02*
X17262143Y-16422714D01*
X17252619Y-16403667D01*
X17233571Y-16394143D01*
X17205000Y-16394143D01*
X17185952Y-16403667D01*
X17176429Y-16413190D01*
X17385952Y-16527476D02*
X17366905Y-16517952D01*
X17357381Y-16508428D01*
X17347857Y-16489381D01*
X17347857Y-16432238D01*
X17357381Y-16413190D01*
X17366905Y-16403667D01*
X17385952Y-16394143D01*
X17414524Y-16394143D01*
X17433571Y-16403667D01*
X17443095Y-16413190D01*
X17452619Y-16432238D01*
X17452619Y-16489381D01*
X17443095Y-16508428D01*
X17433571Y-16517952D01*
X17414524Y-16527476D01*
X17385952Y-16527476D01*
X17566905Y-16527476D02*
X17547857Y-16517952D01*
X17538333Y-16498905D01*
X17538333Y-16327476D01*
X17719286Y-16517952D02*
X17700238Y-16527476D01*
X17662143Y-16527476D01*
X17643095Y-16517952D01*
X17633571Y-16498905D01*
X17633571Y-16422714D01*
X17643095Y-16403667D01*
X17662143Y-16394143D01*
X17700238Y-16394143D01*
X17719286Y-16403667D01*
X17728810Y-16422714D01*
X17728810Y-16441762D01*
X17633571Y-16460809D01*
X17805000Y-16517952D02*
X17824048Y-16527476D01*
X17862143Y-16527476D01*
X17881190Y-16517952D01*
X17890714Y-16498905D01*
X17890714Y-16489381D01*
X17881190Y-16470333D01*
X17862143Y-16460809D01*
X17833571Y-16460809D01*
X17814524Y-16451286D01*
X17805000Y-16432238D01*
X17805000Y-16422714D01*
X17814524Y-16403667D01*
X17833571Y-16394143D01*
X17862143Y-16394143D01*
X17881190Y-16403667D01*
X17957381Y-16603667D02*
X17966905Y-16594143D01*
X17985952Y-16565571D01*
X17995476Y-16546524D01*
X18005000Y-16517952D01*
X18014524Y-16470333D01*
X18014524Y-16432238D01*
X18005000Y-16384619D01*
X17995476Y-16356048D01*
X17985952Y-16337000D01*
X17966905Y-16308428D01*
X17957381Y-16298905D01*
X12895000Y-16801000D02*
X12995000Y-16701000D01*
X12895000Y-16601000D01*
X12795000Y-16701000D01*
X12895000Y-16801000D01*
X13233571Y-16591476D02*
X13357381Y-16591476D01*
X13290714Y-16667667D01*
X13319286Y-16667667D01*
X13338333Y-16677190D01*
X13347857Y-16686714D01*
X13357381Y-16705762D01*
X13357381Y-16753381D01*
X13347857Y-16772428D01*
X13338333Y-16781952D01*
X13319286Y-16791476D01*
X13262143Y-16791476D01*
X13243095Y-16781952D01*
X13233571Y-16772428D01*
X13443095Y-16772428D02*
X13452619Y-16781952D01*
X13443095Y-16791476D01*
X13433571Y-16781952D01*
X13443095Y-16772428D01*
X13443095Y-16791476D01*
X13576428Y-16591476D02*
X13595476Y-16591476D01*
X13614524Y-16601000D01*
X13624048Y-16610524D01*
X13633571Y-16629571D01*
X13643095Y-16667667D01*
X13643095Y-16715286D01*
X13633571Y-16753381D01*
X13624048Y-16772428D01*
X13614524Y-16781952D01*
X13595476Y-16791476D01*
X13576428Y-16791476D01*
X13557381Y-16781952D01*
X13547857Y-16772428D01*
X13538333Y-16753381D01*
X13528809Y-16715286D01*
X13528809Y-16667667D01*
X13538333Y-16629571D01*
X13547857Y-16610524D01*
X13557381Y-16601000D01*
X13576428Y-16591476D01*
X13766905Y-16591476D02*
X13785952Y-16591476D01*
X13805000Y-16601000D01*
X13814524Y-16610524D01*
X13824048Y-16629571D01*
X13833571Y-16667667D01*
X13833571Y-16715286D01*
X13824048Y-16753381D01*
X13814524Y-16772428D01*
X13805000Y-16781952D01*
X13785952Y-16791476D01*
X13766905Y-16791476D01*
X13747857Y-16781952D01*
X13738333Y-16772428D01*
X13728809Y-16753381D01*
X13719286Y-16715286D01*
X13719286Y-16667667D01*
X13728809Y-16629571D01*
X13738333Y-16610524D01*
X13747857Y-16601000D01*
X13766905Y-16591476D01*
X13957381Y-16591476D02*
X13976428Y-16591476D01*
X13995476Y-16601000D01*
X14005000Y-16610524D01*
X14014524Y-16629571D01*
X14024048Y-16667667D01*
X14024048Y-16715286D01*
X14014524Y-16753381D01*
X14005000Y-16772428D01*
X13995476Y-16781952D01*
X13976428Y-16791476D01*
X13957381Y-16791476D01*
X13938333Y-16781952D01*
X13928809Y-16772428D01*
X13919286Y-16753381D01*
X13909762Y-16715286D01*
X13909762Y-16667667D01*
X13919286Y-16629571D01*
X13928809Y-16610524D01*
X13938333Y-16601000D01*
X13957381Y-16591476D01*
X14109762Y-16791476D02*
X14109762Y-16658143D01*
X14109762Y-16677190D02*
X14119286Y-16667667D01*
X14138333Y-16658143D01*
X14166905Y-16658143D01*
X14185952Y-16667667D01*
X14195476Y-16686714D01*
X14195476Y-16791476D01*
X14195476Y-16686714D02*
X14205000Y-16667667D01*
X14224048Y-16658143D01*
X14252619Y-16658143D01*
X14271667Y-16667667D01*
X14281190Y-16686714D01*
X14281190Y-16791476D01*
X14376428Y-16791476D02*
X14376428Y-16658143D01*
X14376428Y-16677190D02*
X14385952Y-16667667D01*
X14405000Y-16658143D01*
X14433571Y-16658143D01*
X14452619Y-16667667D01*
X14462143Y-16686714D01*
X14462143Y-16791476D01*
X14462143Y-16686714D02*
X14471667Y-16667667D01*
X14490714Y-16658143D01*
X14519286Y-16658143D01*
X14538333Y-16667667D01*
X14547857Y-16686714D01*
X14547857Y-16791476D01*
X14938333Y-16581952D02*
X14766905Y-16839095D01*
X15195476Y-16591476D02*
X15214524Y-16591476D01*
X15233571Y-16601000D01*
X15243095Y-16610524D01*
X15252619Y-16629571D01*
X15262143Y-16667667D01*
X15262143Y-16715286D01*
X15252619Y-16753381D01*
X15243095Y-16772428D01*
X15233571Y-16781952D01*
X15214524Y-16791476D01*
X15195476Y-16791476D01*
X15176428Y-16781952D01*
X15166905Y-16772428D01*
X15157381Y-16753381D01*
X15147857Y-16715286D01*
X15147857Y-16667667D01*
X15157381Y-16629571D01*
X15166905Y-16610524D01*
X15176428Y-16601000D01*
X15195476Y-16591476D01*
X15347857Y-16772428D02*
X15357381Y-16781952D01*
X15347857Y-16791476D01*
X15338333Y-16781952D01*
X15347857Y-16772428D01*
X15347857Y-16791476D01*
X15547857Y-16791476D02*
X15433571Y-16791476D01*
X15490714Y-16791476D02*
X15490714Y-16591476D01*
X15471667Y-16620048D01*
X15452619Y-16639095D01*
X15433571Y-16648619D01*
X15738333Y-16791476D02*
X15624048Y-16791476D01*
X15681190Y-16791476D02*
X15681190Y-16591476D01*
X15662143Y-16620048D01*
X15643095Y-16639095D01*
X15624048Y-16648619D01*
X15852619Y-16677190D02*
X15833571Y-16667667D01*
X15824048Y-16658143D01*
X15814524Y-16639095D01*
X15814524Y-16629571D01*
X15824048Y-16610524D01*
X15833571Y-16601000D01*
X15852619Y-16591476D01*
X15890714Y-16591476D01*
X15909762Y-16601000D01*
X15919286Y-16610524D01*
X15928809Y-16629571D01*
X15928809Y-16639095D01*
X15919286Y-16658143D01*
X15909762Y-16667667D01*
X15890714Y-16677190D01*
X15852619Y-16677190D01*
X15833571Y-16686714D01*
X15824048Y-16696238D01*
X15814524Y-16715286D01*
X15814524Y-16753381D01*
X15824048Y-16772428D01*
X15833571Y-16781952D01*
X15852619Y-16791476D01*
X15890714Y-16791476D01*
X15909762Y-16781952D01*
X15919286Y-16772428D01*
X15928809Y-16753381D01*
X15928809Y-16715286D01*
X15919286Y-16696238D01*
X15909762Y-16686714D01*
X15890714Y-16677190D01*
X16119286Y-16791476D02*
X16005000Y-16791476D01*
X16062143Y-16791476D02*
X16062143Y-16591476D01*
X16043095Y-16620048D01*
X16024048Y-16639095D01*
X16005000Y-16648619D01*
X16195476Y-16591476D02*
X16195476Y-16629571D01*
X16271667Y-16591476D02*
X16271667Y-16629571D01*
X16566905Y-16867667D02*
X16557381Y-16858143D01*
X16538333Y-16829571D01*
X16528809Y-16810524D01*
X16519286Y-16781952D01*
X16509762Y-16734333D01*
X16509762Y-16696238D01*
X16519286Y-16648619D01*
X16528809Y-16620048D01*
X16538333Y-16601000D01*
X16557381Y-16572428D01*
X16566905Y-16562905D01*
X16633571Y-16610524D02*
X16643095Y-16601000D01*
X16662143Y-16591476D01*
X16709762Y-16591476D01*
X16728809Y-16601000D01*
X16738333Y-16610524D01*
X16747857Y-16629571D01*
X16747857Y-16648619D01*
X16738333Y-16677190D01*
X16624048Y-16791476D01*
X16747857Y-16791476D01*
X16985952Y-16791476D02*
X16985952Y-16591476D01*
X17071667Y-16791476D02*
X17071667Y-16686714D01*
X17062143Y-16667667D01*
X17043095Y-16658143D01*
X17014524Y-16658143D01*
X16995476Y-16667667D01*
X16985952Y-16677190D01*
X17195476Y-16791476D02*
X17176429Y-16781952D01*
X17166905Y-16772428D01*
X17157381Y-16753381D01*
X17157381Y-16696238D01*
X17166905Y-16677190D01*
X17176429Y-16667667D01*
X17195476Y-16658143D01*
X17224048Y-16658143D01*
X17243095Y-16667667D01*
X17252619Y-16677190D01*
X17262143Y-16696238D01*
X17262143Y-16753381D01*
X17252619Y-16772428D01*
X17243095Y-16781952D01*
X17224048Y-16791476D01*
X17195476Y-16791476D01*
X17376429Y-16791476D02*
X17357381Y-16781952D01*
X17347857Y-16762905D01*
X17347857Y-16591476D01*
X17528810Y-16781952D02*
X17509762Y-16791476D01*
X17471667Y-16791476D01*
X17452619Y-16781952D01*
X17443095Y-16762905D01*
X17443095Y-16686714D01*
X17452619Y-16667667D01*
X17471667Y-16658143D01*
X17509762Y-16658143D01*
X17528810Y-16667667D01*
X17538333Y-16686714D01*
X17538333Y-16705762D01*
X17443095Y-16724809D01*
X17614524Y-16781952D02*
X17633571Y-16791476D01*
X17671667Y-16791476D01*
X17690714Y-16781952D01*
X17700238Y-16762905D01*
X17700238Y-16753381D01*
X17690714Y-16734333D01*
X17671667Y-16724809D01*
X17643095Y-16724809D01*
X17624048Y-16715286D01*
X17614524Y-16696238D01*
X17614524Y-16686714D01*
X17624048Y-16667667D01*
X17643095Y-16658143D01*
X17671667Y-16658143D01*
X17690714Y-16667667D01*
X17766905Y-16867667D02*
X17776429Y-16858143D01*
X17795476Y-16829571D01*
X17805000Y-16810524D01*
X17814524Y-16781952D01*
X17824048Y-16734333D01*
X17824048Y-16696238D01*
X17814524Y-16648619D01*
X17805000Y-16620048D01*
X17795476Y-16601000D01*
X17776429Y-16572428D01*
X17766905Y-16562905D01*
M02*
