%TF.GenerationSoftware,KiCad,Pcbnew,(6.0.11)*%
%TF.CreationDate,2023-08-09T22:56:22+02:00*%
%TF.ProjectId,Voiture_RC,566f6974-7572-4655-9f52-432e6b696361,rev?*%
%TF.SameCoordinates,Original*%
%TF.FileFunction,Drillmap*%
%TF.FilePolarity,Positive*%
%FSLAX45Y45*%
G04 Gerber Fmt 4.5, Leading zero omitted, Abs format (unit mm)*
G04 Created by KiCad (PCBNEW (6.0.11)) date 2023-08-09 22:56:22*
%MOMM*%
%LPD*%
G01*
G04 APERTURE LIST*
%ADD10C,0.100000*%
%ADD11C,0.200000*%
G04 APERTURE END LIST*
D10*
X13000000Y-11000000D02*
X13000000Y-14500000D01*
X21500000Y-10500000D02*
X13500000Y-10500000D01*
X13000000Y-14500000D02*
G75*
G03*
X13500000Y-15000000I500000J0D01*
G01*
X13500000Y-15000000D02*
X21500000Y-15000000D01*
X22000000Y-11000000D02*
G75*
G03*
X21500000Y-10500000I-500000J0D01*
G01*
X13500000Y-10500000D02*
G75*
G03*
X13000000Y-11000000I0J-500000D01*
G01*
X22000000Y-14500000D02*
X22000000Y-11000000D01*
X21500000Y-15000000D02*
G75*
G03*
X22000000Y-14500000I0J500000D01*
G01*
D11*
X13252619Y-15315476D02*
X13252619Y-15115476D01*
X13300238Y-15115476D01*
X13328809Y-15125000D01*
X13347857Y-15144048D01*
X13357381Y-15163095D01*
X13366905Y-15201190D01*
X13366905Y-15229762D01*
X13357381Y-15267857D01*
X13347857Y-15286905D01*
X13328809Y-15305952D01*
X13300238Y-15315476D01*
X13252619Y-15315476D01*
X13452619Y-15315476D02*
X13452619Y-15182143D01*
X13452619Y-15220238D02*
X13462143Y-15201190D01*
X13471667Y-15191667D01*
X13490714Y-15182143D01*
X13509762Y-15182143D01*
X13576428Y-15315476D02*
X13576428Y-15182143D01*
X13576428Y-15115476D02*
X13566905Y-15125000D01*
X13576428Y-15134524D01*
X13585952Y-15125000D01*
X13576428Y-15115476D01*
X13576428Y-15134524D01*
X13700238Y-15315476D02*
X13681190Y-15305952D01*
X13671667Y-15286905D01*
X13671667Y-15115476D01*
X13805000Y-15315476D02*
X13785952Y-15305952D01*
X13776428Y-15286905D01*
X13776428Y-15115476D01*
X14033571Y-15315476D02*
X14033571Y-15115476D01*
X14100238Y-15258333D01*
X14166905Y-15115476D01*
X14166905Y-15315476D01*
X14347857Y-15315476D02*
X14347857Y-15210714D01*
X14338333Y-15191667D01*
X14319286Y-15182143D01*
X14281190Y-15182143D01*
X14262143Y-15191667D01*
X14347857Y-15305952D02*
X14328809Y-15315476D01*
X14281190Y-15315476D01*
X14262143Y-15305952D01*
X14252619Y-15286905D01*
X14252619Y-15267857D01*
X14262143Y-15248809D01*
X14281190Y-15239286D01*
X14328809Y-15239286D01*
X14347857Y-15229762D01*
X14443095Y-15182143D02*
X14443095Y-15382143D01*
X14443095Y-15191667D02*
X14462143Y-15182143D01*
X14500238Y-15182143D01*
X14519286Y-15191667D01*
X14528809Y-15201190D01*
X14538333Y-15220238D01*
X14538333Y-15277381D01*
X14528809Y-15296428D01*
X14519286Y-15305952D01*
X14500238Y-15315476D01*
X14462143Y-15315476D01*
X14443095Y-15305952D01*
X14624048Y-15296428D02*
X14633571Y-15305952D01*
X14624048Y-15315476D01*
X14614524Y-15305952D01*
X14624048Y-15296428D01*
X14624048Y-15315476D01*
X14624048Y-15191667D02*
X14633571Y-15201190D01*
X14624048Y-15210714D01*
X14614524Y-15201190D01*
X14624048Y-15191667D01*
X14624048Y-15210714D01*
M02*
